SplineFontDB: 3.2
FontName: Libron-Bold
FullName: Libron Bold
FamilyName: Libron
Weight: Bold
Copyright: Newsreader (c) 2020 The Newsreader Project Authors\nLibron (c) 2026 Nico Verbruggen
Version: 1.0
ItalicAngle: 0
UnderlinePosition: -303
UnderlineWidth: 96
Ascent: 1600
Descent: 400
InvalidEm: 0
sfntRevision: 0x00010000
LayerCount: 2
Layer: 0 1 "Back" 1
Layer: 1 1 "Fore" 0
XUID: [1021 1015558403 2027698539 744064621]
StyleMap: 0x0020
FSType: 0
OS2Version: 4
OS2_WeightWidthSlopeOnly: 0
OS2_UseTypoMetrics: 1
CreationTime: 1606394360
ModificationTime: 1780819089
PfmFamily: 17
TTFWeight: 700
TTFWidth: 5
LineGap: 0
VLineGap: 0
Panose: 2 0 0 0 0 0 0 0 0 0
OS2TypoAscent: 1600
OS2TypoAOffset: 0
OS2TypoDescent: -400
OS2TypoDOffset: 0
OS2TypoLinegap: 0
OS2WinAscent: 2080
OS2WinAOffset: 0
OS2WinDescent: 520
OS2WinDOffset: 0
HheadAscent: 2080
HheadAOffset: 0
HheadDescent: -520
HheadDOffset: 0
OS2SubXSize: 1300
OS2SubYSize: 1200
OS2SubXOff: 0
OS2SubYOff: 150
OS2SupXSize: 1300
OS2SupYSize: 1200
OS2SupXOff: 0
OS2SupYOff: 700
OS2StrikeYSize: 130
OS2StrikeYPos: 501
OS2CapHeight: 1421
OS2XHeight: 1084
OS2Vendor: 'PROD'
OS2CodePages: 20000193.00000000
OS2UnicodeRanges: 00000047.00000001.00000000.00000000
Lookup: 1 0 0 "'locl' Localized Forms in Latin lookup 0" { "'locl' Localized Forms in Latin lookup 0 subtable"  } ['locl' ('latn' <'MOL ' > ) ]
Lookup: 1 0 0 "'locl' Localized Forms in Latin lookup 1" { "'locl' Localized Forms in Latin lookup 1 subtable"  } ['locl' ('latn' <'ROM ' > ) ]
Lookup: 6 0 0 "'ordn' Ordinals in Latin lookup 2" { "'ordn' Ordinals in Latin lookup 2 contextual 0"  "'ordn' Ordinals in Latin lookup 2 contextual 1"  } ['ordn' ('DFLT' <'dflt' > 'latn' <'MOL ' 'ROM ' 'dflt' > ) ]
Lookup: 1 0 0 "Single Substitution lookup 3" { "Single Substitution lookup 3 subtable"  } []
Lookup: 4 0 0 "'ordn' Ordinals in Latin lookup 4" { "'ordn' Ordinals in Latin lookup 4 subtable"  } ['ordn' ('DFLT' <'dflt' > 'latn' <'MOL ' 'ROM ' 'dflt' > ) ]

StartChar: .notdef
Encoding: 65536 -1 0
Width: 950
GlyphClass: 1
Flags: MW
LayerCount: 2
Fore
SplineSet
190 -381 m 1,0,-1
 760 -381 l 1,1,-1
 760 1419 l 1,2,-1
 190 1419 l 1,3,-1
 190 -381 l 1,0,-1
95 -481 m 1,4,-1
 95 1519 l 1,5,-1
 855 1519 l 1,6,-1
 855 -481 l 1,7,-1
 95 -481 l 1,4,-1
EndSplineSet
EndChar

StartChar: exclam
Encoding: 33 33 4
Width: 637
GlyphClass: 1
Flags: MW
LayerCount: 2
Fore
SplineSet
318 339 m 0,0,1
 405 339 405 339 455.5 291.5 c 128,-1,2
 506 244 506 244 506 160 c 0,3,4
 506 75 506 75 456 26.5 c 128,-1,5
 406 -22 406 -22 318 -22 c 0,6,7
 232 -22 232 -22 181.5 26.5 c 128,-1,8
 131 75 131 75 131 160 c 0,9,10
 131 244 131 244 181.5 291.5 c 128,-1,11
 232 339 232 339 318 339 c 0,0,1
505 1327 m 1,12,13
 506 1327 506 1327 504 1246 c 0,14,15
 503 1223 503 1223 497.5 1177.5 c 128,-1,16
 492 1132 492 1132 483 1070.5 c 128,-1,17
 474 1009 474 1009 463.5 936.5 c 128,-1,18
 453 864 453 864 442 787 c 128,-1,19
 431 710 431 710 420.5 633.5 c 128,-1,20
 410 557 410 557 402 488 c 1,21,-1
 236 488 l 1,22,23
 227 557 227 557 216.5 633.5 c 128,-1,24
 206 710 206 710 194.5 787 c 128,-1,25
 183 864 183 864 172.5 936.5 c 128,-1,26
 162 1009 162 1009 153.5 1070.5 c 128,-1,27
 145 1132 145 1132 140 1177.5 c 128,-1,28
 135 1223 135 1223 134 1246 c 2,29,-1
 131 1327 l 2,30,31
 131 1356 131 1356 146.5 1376 c 128,-1,32
 162 1396 162 1396 203 1406 c 128,-1,33
 244 1416 244 1416 318 1416 c 0,34,35
 394 1416 394 1416 435 1406 c 128,-1,36
 476 1396 476 1396 491 1376 c 128,-1,37
 506 1356 506 1356 505 1327 c 1,12,13
EndSplineSet
EndChar

StartChar: ampersand
Encoding: 38 38 9
Width: 1578
GlyphClass: 1
Flags: MW
LayerCount: 2
Fore
SplineSet
759 827 m 1,0,-1
 1104 433 l 1,1,2
 1113 457 1113 457 1121 482 c 0,3,4
 1151 581 1151 581 1167 719 c 1,5,-1
 1031 755 l 1,6,-1
 1031 851 l 1,7,-1
 1528 851 l 1,8,-1
 1528 755 l 1,9,-1
 1395 719 l 1,10,11
 1322 558 1322 558 1252 440 c 0,12,13
 1221 385 1221 385 1188 338 c 1,14,-1
 1352 151 l 1,15,-1
 1522 97 l 1,16,-1
 1522 0 l 1,17,-1
 1067 0 l 1,18,-1
 974 107 l 1,19,20
 940 81 940 81 904 60 c 0,21,22
 826 15 826 15 737.5 -5 c 128,-1,23
 649 -25 649 -25 546 -25 c 0,24,25
 377 -25 377 -25 274.5 20 c 128,-1,26
 172 65 172 65 127 148.5 c 128,-1,27
 82 232 82 232 82 347 c 0,28,29
 82 452 82 452 121.5 533 c 128,-1,30
 161 614 161 614 248 672 c 0,31,32
 315 717 315 717 415 750 c 1,33,34
 355 821 355 821 322 875 c 0,35,36
 287 930 287 930 273 981.5 c 128,-1,37
 259 1033 259 1033 259 1089 c 0,38,39
 259 1188 259 1188 305 1262.5 c 128,-1,40
 351 1337 351 1337 450.5 1379 c 128,-1,41
 550 1421 550 1421 711 1421 c 0,42,43
 849 1421 849 1421 936 1388.5 c 128,-1,44
 1023 1356 1023 1356 1065.5 1296.5 c 128,-1,45
 1108 1237 1108 1237 1108 1155 c 0,46,47
 1108 1093 1108 1093 1090 1042.5 c 128,-1,48
 1072 992 1072 992 1027.5 950.5 c 128,-1,49
 983 909 983 909 906 876 c 0,50,51
 846 849 846 849 759 827 c 1,0,-1
703 891 m 1,52,53
 769 938 769 938 801 992 c 0,54,55
 840 1057 840 1057 840 1140 c 0,56,57
 840 1212 840 1212 807.5 1248 c 128,-1,58
 775 1284 775 1284 706 1284 c 128,-1,59
 637 1284 637 1284 600 1251 c 128,-1,60
 563 1218 563 1218 563 1149 c 0,61,62
 563 1113 563 1113 574.5 1078 c 128,-1,63
 586 1043 586 1043 615.5 1000 c 128,-1,64
 645 957 645 957 700 894 c 1,65,-1
 703 891 l 1,52,53
895 198 m 1,66,-1
 472 684 l 1,67,68
 454 665 454 665 441 644 c 0,69,70
 416 604 416 604 405 558.5 c 128,-1,71
 394 513 394 513 394 462 c 0,72,73
 394 358 394 358 425 290.5 c 128,-1,74
 456 223 456 223 523.5 190.5 c 128,-1,75
 591 158 591 158 701 158 c 0,76,77
 789 158 789 158 860 184 c 0,78,79
 878 190 878 190 895 198 c 1,66,-1
EndSplineSet
EndChar

StartChar: quotesingle
Encoding: 39 39 10
Width: 480
GlyphClass: 1
Flags: MW
LayerCount: 2
Fore
SplineSet
155 839 m 1,0,-1
 99 1337 l 1,1,-1
 99 1396 l 1,2,-1
 383 1396 l 1,3,-1
 383 1337 l 1,4,-1
 326 839 l 1,5,-1
 155 839 l 1,0,-1
EndSplineSet
EndChar

StartChar: parenleft
Encoding: 40 40 11
Width: 669
GlyphClass: 1
Flags: MW
LayerCount: 2
Fore
SplineSet
343 610 m 128,-1,1
 343 498 343 498 356.5 399 c 128,-1,2
 370 300 370 300 402.5 209 c 128,-1,3
 435 118 435 118 488.5 29.5 c 128,-1,4
 542 -59 542 -59 621 -151 c 1,5,-1
 527 -253 l 1,6,7
 398 -133 398 -133 311.5 -25.5 c 128,-1,8
 225 82 225 82 174.5 184 c 128,-1,9
 124 286 124 286 102 390.5 c 128,-1,10
 80 495 80 495 80 610 c 0,11,12
 80 724 80 724 102 829 c 128,-1,13
 124 934 124 934 174.5 1036 c 128,-1,14
 225 1138 225 1138 311.5 1245.5 c 128,-1,15
 398 1353 398 1353 527 1473 c 1,16,-1
 621 1371 l 1,17,18
 542 1279 542 1279 488.5 1190.5 c 128,-1,19
 435 1102 435 1102 402.5 1011 c 128,-1,20
 370 920 370 920 356.5 821 c 128,-1,0
 343 722 343 722 343 610 c 128,-1,1
EndSplineSet
Substitution2: "'case' Case-Sensitive Forms in Latin lookup 9 subtable" parenleft.case
EndChar

StartChar: parenright
Encoding: 41 41 12
Width: 669
GlyphClass: 1
Flags: MW
LayerCount: 2
Fore
SplineSet
327 610 m 0,0,1
 327 723 327 723 313 821.5 c 128,-1,2
 299 920 299 920 267.5 1011 c 128,-1,3
 236 1102 236 1102 181.5 1190.5 c 128,-1,4
 127 1279 127 1279 48 1371 c 1,5,-1
 142 1473 l 1,6,7
 271 1353 271 1353 358 1245.5 c 128,-1,8
 445 1138 445 1138 495.5 1036 c 128,-1,9
 546 934 546 934 568 829.5 c 128,-1,10
 590 725 590 725 590 610 c 0,11,12
 590 496 590 496 568 391 c 128,-1,13
 546 286 546 286 495.5 184 c 128,-1,14
 445 82 445 82 358.5 -25.5 c 128,-1,15
 272 -133 272 -133 142 -253 c 1,16,-1
 48 -151 l 1,17,18
 127 -59 127 -59 181.5 30 c 128,-1,19
 236 119 236 119 267.5 209.5 c 128,-1,20
 299 300 299 300 313 399 c 128,-1,21
 327 498 327 498 327 610 c 0,0,1
EndSplineSet
Substitution2: "'case' Case-Sensitive Forms in Latin lookup 9 subtable" parenright.case
EndChar

StartChar: asterisk
Encoding: 42 42 13
Width: 883
GlyphClass: 1
Flags: MW
LayerCount: 2
Fore
SplineSet
628 744 m 1,0,-1
 514 694 l 1,1,-1
 409 912 l 1,2,-1
 219 771 l 1,3,-1
 140 871 l 1,4,-1
 304 1043 l 1,5,-1
 119 1189 l 1,6,-1
 182 1299 l 1,7,-1
 390 1187 l 1,8,-1
 464 1419 l 1,9,-1
 584 1388 l 1,10,-1
 546 1147 l 1,11,-1
 779 1145 l 1,12,13
 778 1145 778 1145 788 1015 c 1,14,-1
 560 977 l 1,15,-1
 628 744 l 1,0,-1
EndSplineSet
EndChar

StartChar: plus
Encoding: 43 43 14
Width: 1049
GlyphClass: 1
Flags: MW
LayerCount: 2
Fore
SplineSet
933 595 m 1,0,-1
 933 403 l 1,1,-1
 617 403 l 1,2,-1
 617 70 l 1,3,-1
 434 70 l 1,4,-1
 434 403 l 1,5,-1
 118 403 l 1,6,-1
 118 595 l 1,7,-1
 434 595 l 1,8,-1
 434 928 l 1,9,-1
 617 928 l 1,10,-1
 617 595 l 1,11,-1
 933 595 l 1,0,-1
EndSplineSet
EndChar

StartChar: comma
Encoding: 44 44 15
Width: 558
GlyphClass: 1
Flags: MW
LayerCount: 2
Fore
SplineSet
56 -284 m 1,0,1
 154 -206 154 -206 194.5 -149.5 c 128,-1,2
 235 -93 235 -93 235 -33 c 0,3,4
 235 8 235 8 213 37.5 c 128,-1,5
 191 67 191 67 162 88.5 c 128,-1,6
 133 110 133 110 111 129 c 128,-1,7
 89 148 89 148 89 167 c 0,8,9
 89 250 89 250 138.5 300.5 c 128,-1,10
 188 351 188 351 272 351 c 0,11,12
 363 351 363 351 411 298.5 c 128,-1,13
 459 246 459 246 459 144 c 0,14,15
 459 75 459 75 443.5 12.5 c 128,-1,16
 428 -50 428 -50 391 -111.5 c 128,-1,17
 354 -173 354 -173 289 -238.5 c 128,-1,18
 224 -304 224 -304 124 -378 c 1,19,-1
 56 -284 l 1,0,1
EndSplineSet
EndChar

StartChar: hyphen
Encoding: 45 45 16
Width: 791
GlyphClass: 1
Flags: MW
LayerCount: 2
Fore
SplineSet
124 613 m 1,0,-1
 668 613 l 1,1,-1
 668 390 l 1,2,-1
 124 390 l 1,3,-1
 124 613 l 1,0,-1
EndSplineSet
Substitution2: "'case' Case-Sensitive Forms in Latin lookup 9 subtable" hyphen.case
EndChar

StartChar: period
Encoding: 46 46 17
Width: 554
GlyphClass: 1
Flags: MW
LayerCount: 2
Fore
SplineSet
277 360 m 128,-1,1
 361 360 361 360 411.5 308.5 c 128,-1,2
 462 257 462 257 462 169 c 0,3,4
 462 82 462 82 411.5 30 c 128,-1,5
 361 -22 361 -22 277 -22 c 128,-1,6
 193 -22 193 -22 143 30 c 128,-1,7
 93 82 93 82 93 169 c 0,8,9
 93 257 93 257 143 308.5 c 128,-1,0
 193 360 193 360 277 360 c 128,-1,1
EndSplineSet
EndChar

StartChar: slash
Encoding: 47 47 18
Width: 871
GlyphClass: 1
Flags: MW
LayerCount: 2
Fore
SplineSet
49 0 m 1,0,-1
 604 1396 l 1,1,-1
 823 1396 l 1,2,-1
 268 0 l 1,3,-1
 49 0 l 1,0,-1
EndSplineSet
EndChar

StartChar: zero
Encoding: 48 48 19
Width: 1308
GlyphClass: 1
Flags: MW
LayerCount: 2
Fore
SplineSet
664 1421 m 0,0,1
 843 1421 843 1421 968.5 1339 c 128,-1,2
 1094 1257 1094 1257 1160 1100.5 c 128,-1,3
 1226 944 1226 944 1226 719 c 0,4,5
 1226 481 1226 481 1160 315 c 128,-1,6
 1094 149 1094 149 964.5 62 c 128,-1,7
 835 -25 835 -25 645 -25 c 0,8,9
 465 -25 465 -25 340 56.5 c 128,-1,10
 215 138 215 138 149.5 295 c 128,-1,11
 84 452 84 452 84 677 c 0,12,13
 84 914 84 914 149.5 1080.5 c 128,-1,14
 215 1247 215 1247 344 1334 c 128,-1,15
 473 1421 473 1421 664 1421 c 0,0,1
657 173 m 0,16,17
 735 173 735 173 785 224 c 128,-1,18
 835 275 835 275 859 381.5 c 128,-1,19
 883 488 883 488 883 654 c 0,20,21
 883 813 883 813 868.5 922 c 128,-1,22
 854 1031 854 1031 825 1097 c 128,-1,23
 796 1163 796 1163 752.5 1192.5 c 128,-1,24
 709 1222 709 1222 650 1222 c 0,25,26
 573 1222 573 1222 523 1171.5 c 128,-1,27
 473 1121 473 1121 449 1015 c 128,-1,28
 425 909 425 909 425 742 c 0,29,30
 425 583 425 583 439.5 474 c 128,-1,31
 454 365 454 365 483 299 c 128,-1,32
 512 233 512 233 555 203 c 128,-1,33
 598 173 598 173 657 173 c 0,16,17
EndSplineSet
Substitution2: "'tnum' Tabular Numbers in Latin lookup 7 subtable" zero
Substitution2: "'pnum' Proportional Numbers in Latin lookup 6 subtable" zero.lf
Substitution2: "'sups' Superscript in Latin lookup 5 subtable" zerosuperior
EndChar

StartChar: one
Encoding: 49 49 20
Width: 1308
GlyphClass: 1
Flags: MW
LayerCount: 2
Fore
SplineSet
567 1113 m 1,0,-1
 199 985 l 1,1,-1
 149 1135 l 1,2,-1
 665 1405 l 1,3,-1
 902 1405 l 1,4,-1
 902 167 l 1,5,-1
 1188 105 l 1,6,-1
 1188 0 l 1,7,-1
 267 0 l 1,8,-1
 267 105 l 1,9,-1
 567 167 l 1,10,-1
 567 1113 l 1,0,-1
EndSplineSet
Substitution2: "'tnum' Tabular Numbers in Latin lookup 7 subtable" one
Substitution2: "'pnum' Proportional Numbers in Latin lookup 6 subtable" one.lf
Substitution2: "'sups' Superscript in Latin lookup 5 subtable" uni00B9
EndChar

StartChar: colon
Encoding: 58 58 29
Width: 598
GlyphClass: 1
Flags: MW
LayerCount: 2
Fore
SplineSet
299 1013 m 128,-1,1
 383 1013 383 1013 433.5 962.5 c 128,-1,2
 484 912 484 912 484 827 c 128,-1,3
 484 742 484 742 433.5 691.5 c 128,-1,4
 383 641 383 641 299 641 c 128,-1,5
 215 641 215 641 165 691.5 c 128,-1,6
 115 742 115 742 115 827 c 128,-1,7
 115 912 115 912 165 962.5 c 128,-1,0
 215 1013 215 1013 299 1013 c 128,-1,1
299 351 m 128,-1,9
 383 351 383 351 433.5 300.5 c 128,-1,10
 484 250 484 250 484 165 c 0,11,12
 484 79 484 79 433.5 28.5 c 128,-1,13
 383 -22 383 -22 299 -22 c 128,-1,14
 215 -22 215 -22 165 28.5 c 128,-1,15
 115 79 115 79 115 165 c 0,16,17
 115 250 115 250 165 300.5 c 128,-1,8
 215 351 215 351 299 351 c 128,-1,9
EndSplineSet
EndChar

StartChar: semicolon
Encoding: 59 59 30
Width: 607
GlyphClass: 1
Flags: MW
LayerCount: 2
Fore
SplineSet
300 1013 m 128,-1,1
 384 1013 384 1013 434 962.5 c 128,-1,2
 484 912 484 912 484 827 c 128,-1,3
 484 742 484 742 434 691.5 c 128,-1,4
 384 641 384 641 300 641 c 128,-1,5
 216 641 216 641 166 691.5 c 128,-1,6
 116 742 116 742 116 827 c 128,-1,7
 116 912 116 912 166 962.5 c 128,-1,0
 216 1013 216 1013 300 1013 c 128,-1,1
85 -284 m 1,8,9
 184 -206 184 -206 224 -149.5 c 128,-1,10
 264 -93 264 -93 264 -33 c 0,11,12
 264 8 264 8 242 37.5 c 128,-1,13
 220 67 220 67 191 88.5 c 128,-1,14
 162 110 162 110 140 129 c 128,-1,15
 118 148 118 148 118 167 c 0,16,17
 118 250 118 250 168 300.5 c 128,-1,18
 218 351 218 351 301 351 c 0,19,20
 392 351 392 351 439.5 298.5 c 128,-1,21
 487 246 487 246 487 144 c 0,22,23
 487 75 487 75 472.5 12.5 c 128,-1,24
 458 -50 458 -50 421 -111.5 c 128,-1,25
 384 -173 384 -173 319 -238.5 c 128,-1,26
 254 -304 254 -304 153 -378 c 1,27,-1
 85 -284 l 1,8,9
EndSplineSet
EndChar

StartChar: less
Encoding: 60 60 31
Width: 1049
GlyphClass: 1
Flags: MW
LayerCount: 2
Fore
SplineSet
319 501 m 1,0,-1
 950 209 l 1,1,-1
 950 -1 l 1,2,-1
 82 409 l 1,3,-1
 82 588 l 1,4,-1
 950 998 l 1,5,-1
 950 792 l 1,6,-1
 319 501 l 1,0,-1
EndSplineSet
EndChar

StartChar: greater
Encoding: 62 62 33
Width: 1049
GlyphClass: 1
Flags: MW
LayerCount: 2
Fore
SplineSet
731 501 m 1,0,-1
 101 792 l 1,1,-1
 101 998 l 1,2,-1
 968 588 l 1,3,-1
 968 409 l 1,4,-1
 101 -1 l 1,5,-1
 101 209 l 1,6,-1
 731 501 l 1,0,-1
EndSplineSet
EndChar

StartChar: question
Encoding: 63 63 34
Width: 1195
GlyphClass: 1
Flags: MW
LayerCount: 2
Fore
SplineSet
555 340 m 0,0,1
 642 340 642 340 692.5 293 c 128,-1,2
 743 246 743 246 743 162 c 0,3,4
 743 76 743 76 692.5 28 c 128,-1,5
 642 -20 642 -20 555 -20 c 0,6,7
 469 -20 469 -20 418.5 28 c 128,-1,8
 368 76 368 76 368 162 c 0,9,10
 368 246 368 246 418.5 293 c 128,-1,11
 469 340 469 340 555 340 c 0,0,1
526 1421 m 0,12,13
 678 1421 678 1421 789.5 1390 c 128,-1,14
 901 1359 901 1359 972.5 1303.5 c 128,-1,15
 1044 1248 1044 1248 1078.5 1173 c 128,-1,16
 1113 1098 1113 1098 1113 1011 c 0,17,18
 1113 892 1113 892 1065 808 c 128,-1,19
 1017 724 1017 724 906 679 c 0,20,21
 815 642 815 642 670 633 c 1,22,-1
 649 475 l 1,23,-1
 468 475 l 1,24,-1
 413 831 l 1,25,26
 559 827 559 827 642.5 846.5 c 128,-1,27
 726 866 726 866 759.5 911.5 c 128,-1,28
 793 957 793 957 793 1030 c 0,29,30
 793 1087 793 1087 767.5 1132.5 c 128,-1,31
 742 1178 742 1178 686 1204 c 0,32,33
 632 1231 632 1231 542 1231 c 0,34,35
 473 1231 473 1231 421.5 1206.5 c 128,-1,36
 370 1182 370 1182 332 1149.5 c 128,-1,37
 294 1117 294 1117 263 1092.5 c 128,-1,38
 232 1068 232 1068 202 1068 c 0,39,40
 158 1068 158 1068 124.5 1085 c 128,-1,41
 91 1102 91 1102 72.5 1134 c 128,-1,42
 54 1166 54 1166 54 1207 c 0,43,44
 54 1267 54 1267 97.5 1315 c 128,-1,45
 141 1363 141 1363 243.5 1392 c 128,-1,46
 346 1421 346 1421 526 1421 c 0,12,13
EndSplineSet
EndChar

StartChar: at
Encoding: 64 64 35
Width: 1789
GlyphClass: 1
Flags: MW
LayerCount: 2
Fore
SplineSet
1272 171 m 0,0,1
 1151 171 1151 171 1082 221.5 c 128,-1,2
 1013 272 1013 272 1010 369 c 0,3,4
 1010 395 1010 395 1014 423.5 c 128,-1,5
 1018 452 1018 452 1028 482 c 2,6,-1
 1048 546 l 1,7,-1
 1038 546 l 1,8,9
 980 438 980 438 932 367.5 c 128,-1,10
 884 297 884 297 840 256 c 128,-1,11
 796 215 796 215 752 198 c 128,-1,12
 708 181 708 181 657 181 c 0,13,14
 554 181 554 181 497 243 c 128,-1,15
 440 305 440 305 438 406 c 0,16,17
 436 489 436 489 460.5 576 c 128,-1,18
 485 663 485 663 531 744 c 128,-1,19
 577 825 577 825 638.5 889 c 128,-1,20
 700 953 700 953 773 990.5 c 128,-1,21
 846 1028 846 1028 922 1028 c 0,22,23
 999 1028 999 1028 1051 980 c 0,24,25
 1087 947 1087 947 1114 892 c 1,26,-1
 1184 1009 l 1,27,-1
 1397 1009 l 1,28,-1
 1257 509 l 2,29,30
 1246 470 1246 470 1241.5 442 c 128,-1,31
 1237 414 1237 414 1237 390 c 0,32,33
 1238 341 1238 341 1262 320.5 c 128,-1,34
 1286 300 1286 300 1333 300 c 0,35,36
 1404 300 1404 300 1465.5 356 c 128,-1,37
 1527 412 1527 412 1564.5 511 c 128,-1,38
 1602 610 1602 610 1602 741 c 0,39,40
 1602 883 1602 883 1563 990.5 c 128,-1,41
 1524 1098 1524 1098 1448.5 1171.5 c 128,-1,42
 1373 1245 1373 1245 1262 1282 c 128,-1,43
 1151 1319 1151 1319 1008 1319 c 0,44,45
 828 1319 828 1319 684 1262 c 128,-1,46
 540 1205 540 1205 437.5 1098 c 128,-1,47
 335 991 335 991 281 841 c 128,-1,48
 227 691 227 691 227 505 c 0,49,50
 227 345 227 345 270.5 223.5 c 128,-1,51
 314 102 314 102 401.5 21 c 128,-1,52
 489 -60 489 -60 621 -100.5 c 128,-1,53
 753 -141 753 -141 930 -141 c 0,54,55
 1020 -141 1020 -141 1113.5 -123.5 c 128,-1,56
 1207 -106 1207 -106 1301.5 -70 c 128,-1,57
 1396 -34 1396 -34 1487 21 c 1,58,-1
 1535 -75 l 1,59,60
 1441 -135 1441 -135 1341 -176 c 128,-1,61
 1241 -217 1241 -217 1130.5 -238 c 128,-1,62
 1020 -259 1020 -259 896 -259 c 0,63,64
 697 -259 697 -259 545 -212 c 128,-1,65
 393 -165 393 -165 290 -71 c 128,-1,66
 187 23 187 23 134.5 164 c 128,-1,67
 82 305 82 305 82 493 c 0,68,69
 82 702 82 702 147 874 c 128,-1,70
 212 1046 212 1046 334 1169.5 c 128,-1,71
 456 1293 456 1293 628.5 1360.5 c 128,-1,72
 801 1428 801 1428 1015 1428 c 0,73,74
 1184 1428 1184 1428 1317.5 1384 c 128,-1,75
 1451 1340 1451 1340 1544.5 1255.5 c 128,-1,76
 1638 1171 1638 1171 1687.5 1049 c 128,-1,77
 1737 927 1737 927 1737 771 c 0,78,79
 1737 632 1737 632 1703.5 521.5 c 128,-1,80
 1670 411 1670 411 1609 332.5 c 128,-1,81
 1548 254 1548 254 1462.5 212.5 c 128,-1,82
 1377 171 1377 171 1272 171 c 0,0,1
1088 837 m 1,83,84
 1079 849 1079 849 1070 858 c 0,85,86
 1048 879 1048 879 1006 879 c 0,87,88
 966 879 966 879 925.5 850 c 128,-1,89
 885 821 885 821 848 772.5 c 128,-1,90
 811 724 811 724 782.5 666.5 c 128,-1,91
 754 609 754 609 737.5 551 c 128,-1,92
 721 493 721 493 722 445 c 0,93,94
 723 407 723 407 740 389 c 128,-1,95
 757 371 757 371 789 371 c 0,96,97
 818 371 818 371 852 396 c 128,-1,98
 886 421 886 421 921 466 c 128,-1,99
 956 511 956 511 987.5 573 c 128,-1,100
 1019 635 1019 635 1044 709 c 2,101,-1
 1088 837 l 1,83,84
EndSplineSet
EndChar

StartChar: A
Encoding: 65 65 36
Width: 1645
GlyphClass: 2
Flags: MW
AnchorPoint: "Anchor-4" 765 0 basechar 0
AnchorPoint: "Anchor-3" 1461 0 basechar 0
LayerCount: 2
Fore
SplineSet
1478 154 m 1,0,-1
 1590 119 l 1,1,-1
 1590 0 l 1,2,-1
 987 0 l 1,3,-1
 987 113 l 1,4,-1
 1109 146 l 1,5,-1
 1007 425 l 1,6,-1
 474 425 l 1,7,-1
 379 148 l 1,8,-1
 492 117 l 1,9,-1
 492 0 l 1,10,-1
 48 0 l 1,11,-1
 48 113 l 1,12,-1
 163 146 l 1,13,-1
 613 1366 l 1,14,-1
 999 1405 l 1,15,-1
 1478 154 l 1,0,-1
732 1174 m 1,16,-1
 539 614 l 1,17,-1
 937 614 l 1,18,-1
 732 1174 l 1,16,-1
EndSplineSet
Substitution2: "Single Substitution lookup 3 subtable" ordfeminine
EndChar

StartChar: B
Encoding: 66 66 37
Width: 1485
GlyphClass: 2
Flags: MW
AnchorPoint: "Anchor-4" 775 0 basechar 0
LayerCount: 2
Fore
SplineSet
92 0 m 1,0,-1
 92 102 l 1,1,-1
 253 152 l 1,2,-1
 253 1244 l 1,3,-1
 92 1293 l 1,4,-1
 92 1396 l 1,5,-1
 443 1396 l 1,6,-1
 598 1396 l 1,7,-1
 896 1396 l 2,8,9
 1055 1396 1055 1396 1149.5 1354.5 c 128,-1,10
 1244 1313 1244 1313 1286.5 1239 c 128,-1,11
 1329 1165 1329 1165 1329 1067 c 0,12,13
 1329 929 1329 929 1248 844 c 0,14,15
 1188 780 1188 780 1087 757 c 1,16,17
 1219 735 1219 735 1298 656 c 0,18,19
 1397 559 1397 559 1397 403 c 0,20,21
 1397 280 1397 280 1346 189 c 128,-1,22
 1295 98 1295 98 1182.5 49 c 128,-1,23
 1070 0 1070 0 885 0 c 2,24,-1
 598 0 l 1,25,-1
 443 0 l 1,26,-1
 92 0 l 1,0,-1
598 1209 m 1,27,-1
 598 821 l 1,28,-1
 804 821 l 2,29,30
 892 821 892 821 939.5 868.5 c 128,-1,31
 987 916 987 916 987 1022 c 0,32,33
 987 1083 987 1083 967 1124.5 c 128,-1,34
 947 1166 947 1166 904 1187.5 c 128,-1,35
 861 1209 861 1209 788 1209 c 2,36,-1
 598 1209 l 1,27,-1
598 650 m 1,37,-1
 598 187 l 1,38,-1
 801 187 l 2,39,40
 883 187 883 187 936 209.5 c 128,-1,41
 989 232 989 232 1015 284.5 c 128,-1,42
 1041 337 1041 337 1041 427 c 0,43,44
 1041 496 1041 496 1018.5 546 c 128,-1,45
 996 596 996 596 944 623 c 128,-1,46
 892 650 892 650 808 650 c 2,47,-1
 598 650 l 1,37,-1
EndSplineSet
EndChar

StartChar: C
Encoding: 67 67 38
Width: 1472
GlyphClass: 2
Flags: MW
AnchorPoint: "Anchor-4" 833 0 basechar 0
AnchorPoint: "Anchor-3" 1327 0 basechar 0
LayerCount: 2
Fore
SplineSet
936 169 m 0,0,1
 1009 169 1009 169 1086 184 c 0,2,3
 1106 188 1106 188 1126 193 c 1,4,-1
 1354 266 l 1,5,-1
 1334 56 l 1,6,7
 1241 17 1241 17 1125 -4 c 128,-1,8
 1009 -25 1009 -25 876 -25 c 0,9,10
 683 -25 683 -25 536.5 19.5 c 128,-1,11
 390 64 390 64 291.5 153 c 128,-1,12
 193 242 193 242 143 374.5 c 128,-1,13
 93 507 93 507 94 683 c 0,14,15
 95 907 95 907 184 1072.5 c 128,-1,16
 273 1238 273 1238 446.5 1329.5 c 128,-1,17
 620 1421 620 1421 877 1421 c 0,18,19
 963 1421 963 1421 1068 1400 c 128,-1,20
 1173 1379 1173 1379 1342 1334 c 1,21,-1
 1360 919 l 1,22,-1
 1219 916 l 1,23,-1
 1125 1169 l 1,24,25
 1086 1187 1086 1187 1048 1198 c 0,26,27
 973 1218 973 1218 882 1218 c 0,28,29
 770 1218 770 1218 687.5 1190 c 128,-1,30
 605 1162 605 1162 552 1103 c 128,-1,31
 499 1044 499 1044 472.5 954 c 128,-1,32
 446 864 446 864 445 740 c 0,33,34
 444 593 444 593 476 485.5 c 128,-1,35
 508 378 508 378 571.5 308 c 128,-1,36
 635 238 635 238 727 203.5 c 128,-1,37
 819 169 819 169 936 169 c 0,0,1
EndSplineSet
EndChar

StartChar: D
Encoding: 68 68 39
Width: 1626
GlyphClass: 2
Flags: MW
AnchorPoint: "Anchor-4" 810 0 basechar 0
LayerCount: 2
Fore
SplineSet
89 0 m 1,0,-1
 89 102 l 1,1,-1
 253 152 l 1,2,-1
 253 1244 l 1,3,-1
 89 1293 l 1,4,-1
 89 1396 l 1,5,-1
 411 1396 l 1,6,-1
 598 1396 l 1,7,-1
 812 1396 l 2,8,9
 1050 1396 1050 1396 1210.5 1320.5 c 128,-1,10
 1371 1245 1371 1245 1451 1096.5 c 128,-1,11
 1531 948 1531 948 1531 730 c 0,12,13
 1531 494 1531 494 1440 331 c 128,-1,14
 1349 168 1349 168 1186 84 c 128,-1,15
 1023 0 1023 0 807 0 c 2,16,-1
 598 0 l 1,17,-1
 411 0 l 1,18,-1
 89 0 l 1,0,-1
1177 714 m 0,19,20
 1177 963 1177 963 1075 1078.5 c 128,-1,21
 973 1194 973 1194 753 1194 c 2,22,-1
 598 1194 l 1,23,-1
 598 202 l 1,24,-1
 791 202 l 2,25,26
 917 202 917 202 1003 254.5 c 128,-1,27
 1089 307 1089 307 1133 419.5 c 128,-1,28
 1177 532 1177 532 1177 714 c 0,19,20
EndSplineSet
EndChar

StartChar: E
Encoding: 69 69 40
Width: 1450
GlyphClass: 2
Flags: MW
AnchorPoint: "Anchor-4" 730 0 basechar 0
AnchorPoint: "Anchor-3" 1225 0 basechar 0
LayerCount: 2
Fore
SplineSet
115 0 m 1,0,-1
 115 113 l 1,1,-1
 242 152 l 1,2,-1
 242 1244 l 1,3,-1
 116 1282 l 1,4,-1
 117 1397 l 1,5,-1
 414 1396 l 1,6,-1
 587 1396 l 1,7,-1
 1112 1396 l 1,8,-1
 1315 1396 l 1,9,-1
 1327 1078 l 1,10,-1
 1157 1078 l 1,11,-1
 1104 1209 l 1,12,-1
 587 1209 l 1,13,-1
 587 814 l 1,14,-1
 1015 813 l 1,15,-1
 1015 642 l 1,16,-1
 587 643 l 1,17,-1
 587 187 l 1,18,-1
 1103 187 l 1,19,-1
 1193 370 l 1,20,-1
 1365 370 l 1,21,-1
 1309 0 l 1,22,-1
 587 0 l 1,23,-1
 414 0 l 1,24,-1
 115 0 l 1,0,-1
EndSplineSet
EndChar

StartChar: F
Encoding: 70 70 41
Width: 1356
GlyphClass: 2
Flags: MW
AnchorPoint: "Anchor-4" 426 0 basechar 0
LayerCount: 2
Fore
SplineSet
1186 1396 m 1,0,-1
 1273 1396 l 1,1,-1
 1279 1042 l 1,2,-1
 1136 1042 l 1,3,-1
 1073 1209 l 1,4,-1
 598 1209 l 1,5,-1
 598 743 l 1,6,-1
 1021 743 l 1,7,-1
 1022 571 l 1,8,-1
 598 571 l 1,9,-1
 598 152 l 1,10,-1
 762 102 l 1,11,-1
 762 0 l 1,12,-1
 128 0 l 1,13,-1
 128 114 l 1,14,-1
 253 152 l 1,15,-1
 253 1244 l 1,16,-1
 131 1280 l 1,17,-1
 131 1396 l 1,18,-1
 421 1396 l 1,19,-1
 598 1396 l 1,20,-1
 1084 1396 l 1,21,-1
 1186 1396 l 1,0,-1
EndSplineSet
EndChar

StartChar: G
Encoding: 71 71 42
Width: 1519
GlyphClass: 2
Flags: MW
AnchorPoint: "Anchor-4" 869.5 0 basechar 0
LayerCount: 2
Fore
SplineSet
1365 64 m 1,0,1
 1258.5 15 1258.5 15 1092 -9 c 0,2,3
 982.5 -25 982.5 -25 873.5 -25 c 0,4,5
 680.5 -25 680.5 -25 534.5 20 c 128,-1,6
 388.5 65 388.5 65 290 154.5 c 128,-1,7
 191.5 244 191.5 244 142 376.5 c 128,-1,8
 92.5 509 92.5 509 92.5 683 c 0,9,10
 93.5 907 93.5 907 184 1073 c 128,-1,11
 274.5 1239 274.5 1239 452 1330 c 128,-1,12
 629.5 1421 629.5 1421 891.5 1421 c 0,13,14
 980.5 1421 980.5 1421 1063.5 1407 c 0,15,16
 1116.5 1398 1116.5 1398 1169.5 1384 c 1,17,-1
 1363.5 1342 l 1,18,-1
 1362 1032 l 1,19,-1
 1195.5 1032 l 1,20,-1
 1141.5 1169 l 1,21,22
 1104.5 1186 1104.5 1186 1068.5 1196 c 0,23,24
 991.5 1218 991.5 1218 895.5 1218 c 0,25,26
 779.5 1218 779.5 1218 695 1190 c 128,-1,27
 610.5 1162 610.5 1162 555.5 1103 c 128,-1,28
 500.5 1044 500.5 1044 473 953 c 128,-1,29
 445.5 862 445.5 862 444.5 737 c 0,30,31
 442.5 544 442.5 544 499 419.5 c 128,-1,32
 555.5 295 555.5 295 641 235.5 c 128,-1,33
 726.5 176 726.5 176 879.5 176 c 0,34,35
 939.5 176 939.5 176 989.5 187.5 c 128,-1,36
 1039.5 199 1039.5 199 1081.5 206 c 1,37,-1
 1081.5 506 l 1,38,-1
 899.5 570 l 1,39,-1
 925.5 702 l 1,40,-1
 1365 700 l 1,41,-1
 1365 64 l 1,0,1
EndSplineSet
EndChar

StartChar: H
Encoding: 72 72 43
Width: 1767
GlyphClass: 2
Flags: MW
AnchorPoint: "Anchor-4" 884 0 basechar 0
LayerCount: 2
Fore
SplineSet
1515 152 m 1,0,-1
 1679 102 l 1,1,-1
 1679 0 l 1,2,-1
 1006 0 l 1,3,-1
 1006 102 l 1,4,-1
 1170 152 l 1,5,-1
 1170 611 l 1,6,-1
 598 611 l 1,7,-1
 598 152 l 1,8,-1
 762 102 l 1,9,-1
 762 0 l 1,10,-1
 89 0 l 1,11,-1
 89 102 l 1,12,-1
 253 152 l 1,13,-1
 253 1244 l 1,14,-1
 89 1293 l 1,15,-1
 89 1396 l 1,16,-1
 762 1396 l 1,17,-1
 762 1293 l 1,18,-1
 598 1244 l 1,19,-1
 598 813 l 1,20,-1
 1170 813 l 1,21,-1
 1170 1244 l 1,22,-1
 1006 1293 l 1,23,-1
 1006 1396 l 1,24,-1
 1679 1396 l 1,25,-1
 1679 1293 l 1,26,-1
 1515 1244 l 1,27,-1
 1515 152 l 1,0,-1
EndSplineSet
EndChar

StartChar: I
Encoding: 73 73 44
Width: 851
GlyphClass: 2
Flags: MW
AnchorPoint: "Anchor-4" 426 0 basechar 0
AnchorPoint: "Anchor-3" 592 0 basechar 0
LayerCount: 2
Fore
SplineSet
762 102 m 1,0,-1
 762 0 l 1,1,-1
 89 0 l 1,2,-1
 89 102 l 1,3,-1
 253 152 l 1,4,-1
 253 1244 l 1,5,-1
 89 1293 l 1,6,-1
 89 1396 l 1,7,-1
 762 1396 l 1,8,-1
 762 1293 l 1,9,-1
 598 1244 l 1,10,-1
 598 152 l 1,11,-1
 762 102 l 1,0,-1
EndSplineSet
EndChar

StartChar: J
Encoding: 74 74 45
Width: 1124
GlyphClass: 2
Flags: MW
AnchorPoint: "Anchor-4" 526 0 basechar 0
LayerCount: 2
Fore
SplineSet
906 453 m 2,0,1
 906 347 906 347 871.5 259.5 c 128,-1,2
 837 172 837 172 767 109 c 128,-1,3
 697 46 697 46 592.5 12 c 128,-1,4
 488 -22 488 -22 349 -22 c 0,5,6
 228 -22 228 -22 155 3 c 128,-1,7
 82 28 82 28 49 73.5 c 128,-1,8
 16 119 16 119 16 177 c 0,9,10
 16 238 16 238 49.5 275 c 128,-1,11
 83 312 83 312 135 312 c 0,12,13
 152 312 152 312 176 291.5 c 128,-1,14
 200 271 200 271 229 244.5 c 128,-1,15
 258 218 258 218 295 198 c 128,-1,16
 332 178 332 178 376 178 c 0,17,18
 472 178 472 178 516.5 226 c 128,-1,19
 561 274 561 274 561 393 c 2,20,-1
 561 1244 l 1,21,-1
 395 1293 l 1,22,-1
 395 1396 l 1,23,-1
 1070 1396 l 1,24,-1
 1070 1293 l 1,25,-1
 906 1244 l 1,26,-1
 906 453 l 2,0,1
EndSplineSet
EndChar

StartChar: K
Encoding: 75 75 46
Width: 1650
GlyphClass: 2
Flags: MW
AnchorPoint: "Anchor-4" 881 0 basechar 0
LayerCount: 2
Fore
SplineSet
1496 154 m 1,0,-1
 1641 102 l 1,1,-1
 1641 0 l 1,2,-1
 1064 0 l 1,3,-1
 1064 80 l 1,4,-1
 1096 107 l 1,5,-1
 729 619 l 1,6,-1
 598 619 l 1,7,-1
 598 152 l 1,8,-1
 760 102 l 1,9,-1
 760 0 l 1,10,-1
 89 0 l 1,11,-1
 89 102 l 1,12,-1
 253 152 l 1,13,-1
 253 1244 l 1,14,-1
 89 1293 l 1,15,-1
 89 1396 l 1,16,-1
 762 1396 l 1,17,-1
 762 1293 l 1,18,-1
 598 1244 l 1,19,-1
 598 821 l 1,20,-1
 748 821 l 1,21,-1
 1159 1252 l 1,22,-1
 1004 1293 l 1,23,-1
 1004 1396 l 1,24,-1
 1549 1396 l 1,25,-1
 1549 1293 l 1,26,27
 1548 1293 1548 1293 1396 1244 c 1,28,-1
 1002 837 l 1,29,-1
 1496 154 l 1,0,-1
EndSplineSet
EndChar

StartChar: L
Encoding: 76 76 47
Width: 1372
GlyphClass: 2
Flags: MW
AnchorPoint: "Anchor-4" 690 0 basechar 0
AnchorPoint: "Anchor-3" 806 1395 basechar 0
LayerCount: 2
Fore
SplineSet
1254 0 m 1,0,-1
 1130 0 l 1,1,-1
 1037 0 l 1,2,-1
 598 0 l 1,3,-1
 425 0 l 1,4,-1
 133.5 0 l 1,5,-1
 133.5 117 l 1,6,-1
 253 152 l 1,7,-1
 253 1244 l 1,8,-1
 133.5 1281 l 1,9,-1
 133.5 1396 l 1,10,-1
 762 1396 l 1,11,-1
 762 1293 l 1,12,-1
 598 1244 l 1,13,-1
 598 202 l 1,14,-1
 1031 202 l 1,15,-1
 1163 461 l 1,16,-1
 1324 461 l 1,17,-1
 1254 0 l 1,0,-1
EndSplineSet
EndChar

StartChar: M
Encoding: 77 77 48
Width: 2177
GlyphClass: 2
Flags: MW
AnchorPoint: "Anchor-4" 1019 0 basechar 0
LayerCount: 2
Fore
SplineSet
1949 157 m 1,0,-1
 2114 102 l 1,1,-1
 2114 2 l 1,2,-1
 1453 2 l 1,3,-1
 1453 102 l 1,4,-1
 1599 150 l 1,5,-1
 1538 1156 l 1,6,-1
 1174 0 l 1,7,-1
 841 0 l 1,8,-1
 476 1149 l 1,9,-1
 422 152 l 1,10,-1
 566 102 l 1,11,-1
 566 2 l 1,12,-1
 70 2 l 1,13,-1
 70 102 l 1,14,-1
 227 154 l 1,15,-1
 293 1224 l 1,16,-1
 155 1277 l 1,17,-1
 155 1396 l 1,18,-1
 760 1396 l 1,19,-1
 1085 334 l 1,20,-1
 1414 1396 l 1,21,-1
 2017 1395 l 1,22,-1
 2016 1280 l 1,23,-1
 1885 1234 l 1,24,-1
 1949 157 l 1,0,-1
EndSplineSet
EndChar

StartChar: N
Encoding: 78 78 49
Width: 1672
GlyphClass: 2
Flags: MW
AnchorPoint: "Anchor-4" 875 0 basechar 0
LayerCount: 2
Fore
SplineSet
256 151 m 1,0,-1
 256 1232 l 1,1,-1
 120 1282 l 1,2,-1
 120 1396 l 1,3,-1
 676 1396 l 1,4,-1
 1247 382 l 1,5,-1
 1247 1244 l 1,6,-1
 1076 1293 l 1,7,-1
 1076 1396 l 1,8,-1
 1601 1396 l 1,9,-1
 1601 1293 l 1,10,-1
 1439 1244 l 1,11,-1
 1439 0 l 1,12,-1
 1074 0 l 1,13,-1
 447 1119 l 1,14,-1
 447 151 l 1,15,-1
 618 102 l 1,16,-1
 618 2 l 1,17,-1
 94 2 l 1,18,-1
 94 102 l 1,19,-1
 256 151 l 1,0,-1
EndSplineSet
EndChar

StartChar: O
Encoding: 79 79 50
Width: 1615
GlyphClass: 2
Flags: MW
AnchorPoint: "Anchor-4" 808 0 basechar 0
AnchorPoint: "Anchor-3" 1000 0 basechar 0
AnchorPoint: "Anchor-2" 1122 1396 basechar 0
LayerCount: 2
Fore
SplineSet
812 187 m 0,0,1
 927 187 927 187 1007 237.5 c 128,-1,2
 1087 288 1087 288 1128.5 390.5 c 128,-1,3
 1170 493 1170 493 1170 647 c 0,4,5
 1170 835 1170 835 1129 959.5 c 128,-1,6
 1088 1084 1088 1084 1006.5 1146.5 c 128,-1,7
 925 1209 925 1209 803 1209 c 0,8,9
 689 1209 689 1209 608.5 1158.5 c 128,-1,10
 528 1108 528 1108 486.5 1005.5 c 128,-1,11
 445 903 445 903 445 749 c 0,12,13
 445 562 445 562 486 437 c 128,-1,14
 527 312 527 312 608.5 249.5 c 128,-1,15
 690 187 690 187 812 187 c 0,0,1
823 1421 m 0,16,17
 986 1421 986 1421 1115.5 1370.5 c 128,-1,18
 1245 1320 1245 1320 1336 1226 c 128,-1,19
 1427 1132 1427 1132 1474.5 999 c 128,-1,20
 1522 866 1522 866 1522 700 c 0,21,22
 1522 533 1522 533 1471 399.5 c 128,-1,23
 1420 266 1420 266 1324.5 171 c 128,-1,24
 1229 76 1229 76 1094.5 25.5 c 128,-1,25
 960 -25 960 -25 792 -25 c 0,26,27
 629 -25 629 -25 499.5 25.5 c 128,-1,28
 370 76 370 76 279 170 c 128,-1,29
 188 264 188 264 140.5 397 c 128,-1,30
 93 530 93 530 93 696 c 128,-1,31
 93 862 93 862 144 996 c 128,-1,32
 195 1130 195 1130 291 1225 c 128,-1,33
 387 1320 387 1320 521.5 1370.5 c 128,-1,34
 656 1421 656 1421 823 1421 c 0,16,17
EndSplineSet
Substitution2: "Single Substitution lookup 3 subtable" ordmasculine
EndChar

StartChar: P
Encoding: 80 80 51
Width: 1417
GlyphClass: 2
Flags: MW
AnchorPoint: "Anchor-4" 426 0 basechar 0
LayerCount: 2
Fore
SplineSet
1022 960 m 0,0,1
 1022 1037 1022 1037 998.5 1089 c 128,-1,2
 975 1141 975 1141 918.5 1167.5 c 128,-1,3
 862 1194 862 1194 763 1194 c 2,4,-1
 598 1194 l 1,5,-1
 598 725 l 1,6,-1
 798 725 l 2,7,8
 870 725 870 725 920 750 c 128,-1,9
 970 775 970 775 996 827 c 128,-1,10
 1022 879 1022 879 1022 960 c 0,0,1
598 529 m 1,11,-1
 598 152 l 1,12,-1
 762 102 l 1,13,-1
 762 0 l 1,14,-1
 89 0 l 1,15,-1
 89 102 l 1,16,-1
 253 152 l 1,17,-1
 253 1244 l 1,18,-1
 89 1293 l 1,19,-1
 89 1396 l 1,20,-1
 389 1396 l 1,21,-1
 598 1396 l 1,22,-1
 831 1396 l 2,23,24
 1022 1396 1022 1396 1138.5 1342.5 c 128,-1,25
 1255 1289 1255 1289 1308 1192 c 128,-1,26
 1361 1095 1361 1095 1361 964 c 0,27,28
 1361 838 1361 838 1310.5 739.5 c 128,-1,29
 1260 641 1260 641 1148.5 585 c 128,-1,30
 1037 529 1037 529 856 529 c 2,31,-1
 598 529 l 1,11,-1
EndSplineSet
EndChar

StartChar: Q
Encoding: 81 81 52
Width: 1615
GlyphClass: 2
Flags: MW
AnchorPoint: "Anchor-4" 819 -417 basechar 0
LayerCount: 2
Fore
SplineSet
812 193 m 0,0,1
 927 193 927 193 1007 243 c 128,-1,2
 1087 293 1087 293 1128.5 394 c 128,-1,3
 1170 495 1170 495 1170 647 c 0,4,5
 1170 835 1170 835 1129 959.5 c 128,-1,6
 1088 1084 1088 1084 1006.5 1146.5 c 128,-1,7
 925 1209 925 1209 803 1209 c 0,8,9
 689 1209 689 1209 608.5 1158.5 c 128,-1,10
 528 1108 528 1108 486.5 1005.5 c 128,-1,11
 445 903 445 903 445 749 c 0,12,13
 445 564 445 564 486 440 c 128,-1,14
 527 316 527 316 608.5 254.5 c 128,-1,15
 690 193 690 193 812 193 c 0,0,1
662 -221 m 2,16,-1
 323 120 l 2,17,18
 248 195 248 195 196.5 280.5 c 128,-1,19
 145 366 145 366 119 469 c 128,-1,20
 93 572 93 572 93 696 c 0,21,22
 93 862 93 862 144 996 c 128,-1,23
 195 1130 195 1130 291 1225 c 128,-1,24
 387 1320 387 1320 521.5 1370.5 c 128,-1,25
 656 1421 656 1421 823 1421 c 0,26,27
 986 1421 986 1421 1115.5 1370.5 c 128,-1,28
 1245 1320 1245 1320 1336 1226 c 128,-1,29
 1427 1132 1427 1132 1474.5 999 c 128,-1,30
 1522 866 1522 866 1522 700 c 0,31,32
 1522 525 1522 525 1457.5 385 c 128,-1,33
 1393 245 1393 245 1276.5 154 c 128,-1,34
 1160 63 1160 63 1004 32 c 0,35,36
 896 11 896 11 776 26 c 1,37,-1
 1011 -144 l 2,38,39
 1075 -190 1075 -190 1122 -218 c 128,-1,40
 1169 -246 1169 -246 1212.5 -260 c 128,-1,41
 1256 -274 1256 -274 1307 -276.5 c 128,-1,42
 1358 -279 1358 -279 1428 -274 c 1,43,-1
 1428 -418 l 1,44,45
 1390 -426 1390 -426 1351 -433 c 128,-1,46
 1312 -440 1312 -440 1263.5 -444 c 128,-1,47
 1215 -448 1215 -448 1148 -448 c 0,48,49
 1063 -448 1063 -448 1000.5 -437 c 128,-1,50
 938 -426 938 -426 885 -400.5 c 128,-1,51
 832 -375 832 -375 779.5 -331.5 c 128,-1,52
 727 -288 727 -288 662 -221 c 2,16,-1
EndSplineSet
EndChar

StartChar: R
Encoding: 82 82 53
Width: 1545
GlyphClass: 2
Flags: MW
AnchorPoint: "Anchor-4" 842 0 basechar 0
LayerCount: 2
Fore
SplineSet
837 771 m 2,0,1
 938 771 938 771 992 822 c 128,-1,2
 1046 873 1046 873 1046 983 c 0,3,4
 1046 1054 1046 1054 1024 1100.5 c 128,-1,5
 1002 1147 1002 1147 950 1170.5 c 128,-1,6
 898 1194 898 1194 806 1194 c 2,7,-1
 598 1194 l 1,8,-1
 598 771 l 1,9,-1
 837 771 l 2,0,1
598 601 m 1,10,-1
 598 152 l 1,11,-1
 750 102 l 1,12,-1
 750 7.69230769231 l 1,13,-1
 89 7.69230769231 l 1,14,-1
 89 102 l 1,15,-1
 253 152 l 1,16,-1
 253 1244 l 1,17,-1
 89 1293 l 1,18,-1
 89 1396 l 1,19,-1
 408 1396 l 1,20,-1
 598 1396 l 1,21,-1
 925 1396 l 2,22,23
 1094 1396 1094 1396 1194.5 1352 c 128,-1,24
 1295 1308 1295 1308 1339 1229 c 128,-1,25
 1383 1150 1383 1150 1383 1046 c 0,26,27
 1383 948 1383 948 1342 871.5 c 128,-1,28
 1301 795 1301 795 1217 746 c 0,29,30
 1143 703 1143 703 1033 687 c 1,31,32
 1130 677 1130 677 1178 656 c 0,33,34
 1239 629 1239 629 1267.5 579.5 c 0,35,36
 1291.25407756 538.293947082 1291.25407756 538.293947082 1310 453 c 2,37,-1
 1350 271 l 2,38,39
 1365 203 1365 203 1377.5 180.5 c 0,40,41
 1393 151 1393 151 1409.5 143 c 128,-1,42
 1426 135 1426 135 1475 135 c 1,43,-1
 1530 7.69230769231 l 1,44,45
 1384 -2.30769230769 1384 -2.30769230769 1277 0.692307692308 c 128,-1,46
 1170 3.69230769231 1170 3.69230769231 1119.5 25.1923076923 c 1,47,48
 1069 39 1069 39 1044 83 c 0,49,50
 1021.2130246 122.629522431 1021.2130246 122.629522431 1007 197 c 2,51,-1
 964 422 l 2,52,53
 950 496 950 496 931.5 532.5 c 0,54,55
 912 571 912 571 875 586 c 128,-1,56
 838 601 838 601 769 601 c 2,57,-1
 598 601 l 1,10,-1
EndSplineSet
EndChar

StartChar: S
Encoding: 83 83 54
Width: 1292
GlyphClass: 2
Flags: MW
AnchorPoint: "Anchor-4" 651 0 basechar 0
LayerCount: 2
Fore
SplineSet
388 173 m 1,0,1
 455 160 455 160 542 160 c 0,2,3
 666 160 666 160 740.5 181.5 c 128,-1,4
 815 203 815 203 848 247 c 128,-1,5
 881 291 881 291 881 360 c 0,6,7
 881 426 881 426 847 464.5 c 128,-1,8
 813 503 813 503 756 524.5 c 128,-1,9
 699 546 699 546 629.5 559 c 128,-1,10
 560 572 560 572 488 588 c 0,11,12
 418 604 418 604 350.5 629 c 128,-1,13
 283 654 283 654 230 698.5 c 128,-1,14
 177 743 177 743 145.5 815.5 c 128,-1,15
 114 888 114 888 114 998 c 0,16,17
 114 1136 114 1136 181.5 1230.5 c 128,-1,18
 249 1325 249 1325 376.5 1373 c 128,-1,19
 504 1421 504 1421 682 1421 c 0,20,21
 770 1421 770 1421 874 1402 c 0,22,23
 894.292237443 1398.31050228 894.292237443 1398.31050228 1122 1332 c 1,24,-1
 1140 983 l 1,25,-1
 1000 980 l 1,26,-1
 905 1196 l 1,27,28
 872 1212 872 1212 834 1221 c 0,29,30
 766 1238 766 1238 680 1238 c 0,31,32
 553 1238 553 1238 486 1201.5 c 128,-1,33
 419 1165 419 1165 419 1076 c 0,34,35
 419 1019 419 1019 447 984.5 c 128,-1,36
 475 950 475 950 524.5 929 c 128,-1,37
 574 908 574 908 638 893.5 c 128,-1,38
 702 879 702 879 774 864 c 0,39,40
 846 848 846 848 920 824 c 128,-1,41
 994 800 994 800 1056 755 c 128,-1,42
 1118 710 1118 710 1155.5 633 c 128,-1,43
 1193 556 1193 556 1193 436 c 0,44,45
 1193 279 1193 279 1120.5 176.5 c 128,-1,46
 1048 74 1048 74 909.5 24.5 c 128,-1,47
 771 -25 771 -25 573 -25 c 0,48,49
 453 -25 453 -25 357 -15.5 c 128,-1,50
 261 -6 261 -6 161 27 c 1,51,-1
 107 435 l 1,52,53
 108 435 108 435 238 435 c 1,54,-1
 388 173 l 1,0,1
EndSplineSet
EndChar

StartChar: T
Encoding: 84 84 55
Width: 1501
GlyphClass: 2
Flags: MW
AnchorPoint: "Anchor-4" 750 0 basechar 0
LayerCount: 2
Fore
SplineSet
1401 1395.5 m 1,0,-1
 1401 1070.90039062 l 1,1,-1
 1199 1070.90039062 l 1,2,-1
 1199 1194 l 1,3,-1
 922 1194 l 1,4,-1
 922 152 l 1,5,-1
 1092 102 l 1,6,-1
 1092 0 l 1,7,-1
 407 0 l 1,8,-1
 407 102 l 1,9,-1
 578 152 l 1,10,-1
 578 1194 l 1,11,-1
 303 1194 l 1,12,-1
 303 1070.90039062 l 1,13,-1
 101 1070.90039062 l 1,14,-1
 101 1395.5 l 1,15,-1
 1401 1395.5 l 1,0,-1
EndSplineSet
EndChar

StartChar: U
Encoding: 85 85 56
Width: 1633
GlyphClass: 2
Flags: MW
AnchorPoint: "Anchor-4" 857 0 basechar 0
AnchorPoint: "Anchor-3" 1050 0 basechar 0
AnchorPoint: "Anchor-2" 1415 1396 basechar 0
LayerCount: 2
Fore
SplineSet
1227 552 m 2,0,-1
 1227 1244 l 1,1,-1
 1061 1293 l 1,2,-1
 1061 1396 l 1,3,-1
 1584 1396 l 1,4,-1
 1584 1293 l 1,5,-1
 1419 1244 l 1,6,-1
 1419 545 l 2,7,8
 1419 353 1419 353 1352.5 226.5 c 128,-1,9
 1286 100 1286 100 1156.5 37.5 c 128,-1,10
 1027 -25 1027 -25 838 -25 c 0,11,12
 631 -25 631 -25 492 33.5 c 128,-1,13
 353 92 353 92 284 215 c 128,-1,14
 215 338 215 338 215 530 c 2,15,-1
 215 1244 l 1,16,-1
 50 1293 l 1,17,-1
 50 1396 l 1,18,-1
 723 1396 l 1,19,-1
 723 1293 l 1,20,-1
 560 1244 l 1,21,-1
 560 545 l 2,22,23
 560 437 560 437 597 367 c 128,-1,24
 634 297 634 297 709 263 c 128,-1,25
 784 229 784 229 896 229 c 128,-1,26
 1008 229 1008 229 1081 264 c 128,-1,27
 1154 299 1154 299 1190.5 370.5 c 128,-1,28
 1227 442 1227 442 1227 552 c 2,0,-1
EndSplineSet
EndChar

StartChar: V
Encoding: 86 86 57
Width: 1607
GlyphClass: 2
Flags: MW
AnchorPoint: "Anchor-4" 826 0 basechar 0
LayerCount: 2
Fore
SplineSet
163 1241 m 1,0,-1
 -4 1293 l 1,1,-1
 -4 1396 l 1,2,-1
 696 1396 l 1,3,-1
 696 1293 l 1,4,-1
 534 1250 l 1,5,-1
 904 227 l 1,6,-1
 1234 1247 l 1,7,-1
 1074 1293 l 1,8,-1
 1074 1396 l 1,9,-1
 1596 1396 l 1,10,-1
 1596 1293 l 1,11,-1
 1441 1250 l 1,12,-1
 1008 0 l 1,13,-1
 636 0 l 1,14,-1
 163 1241 l 1,0,-1
EndSplineSet
EndChar

StartChar: W
Encoding: 87 87 58
Width: 2225
GlyphClass: 2
Flags: MW
AnchorPoint: "Anchor-4" 1145 0 basechar 0
LayerCount: 2
Fore
SplineSet
1689 323 m 1,0,-1
 1852 1249 l 1,1,-1
 1702 1293 l 1,2,-1
 1702 1396 l 1,3,-1
 2211 1396 l 1,4,-1
 2211 1293 l 1,5,-1
 2057 1251 l 1,6,-1
 1793 0 l 1,7,-1
 1430 0 l 1,8,-1
 1130 998 l 1,9,-1
 825 0 l 1,10,-1
 446 0 l 1,11,-1
 175 1243 l 1,12,-1
 9 1293 l 1,13,-1
 9 1396 l 1,14,15
 10 1396 10 1396 694 1396 c 1,16,-1
 694 1293 l 1,17,-1
 543 1251 l 1,18,-1
 726 309 l 1,19,-1
 1039 1398 l 1,20,-1
 1361 1398 l 1,21,-1
 1689 323 l 1,0,-1
EndSplineSet
EndChar

StartChar: X
Encoding: 88 88 59
Width: 1659
GlyphClass: 2
Flags: MW
AnchorPoint: "Anchor-4" 828 0 basechar 0
LayerCount: 2
Fore
SplineSet
1049 737 m 1,0,-1
 1497 156 l 1,1,-1
 1651 102 l 1,2,-1
 1651 0 l 1,3,-1
 895 0 l 1,4,-1
 895 102 l 1,5,-1
 1048 152 l 1,6,-1
 733 564 l 1,7,-1
 425 148 l 1,8,-1
 572 102 l 1,9,-1
 572 0 l 1,10,-1
 38 0 l 1,11,-1
 38 102 l 1,12,-1
 183 152 l 1,13,-1
 615 715 l 1,14,-1
 210 1239 l 1,15,-1
 56 1293 l 1,16,-1
 56 1396 l 1,17,-1
 812 1396 l 1,18,-1
 812 1293 l 1,19,-1
 659 1243 l 1,20,-1
 935 881 l 1,21,-1
 1195 1247 l 1,22,-1
 1055 1293 l 1,23,-1
 1055 1396 l 1,24,-1
 1569 1396 l 1,25,-1
 1569 1293 l 1,26,-1
 1424 1243 l 1,27,-1
 1049 737 l 1,0,-1
EndSplineSet
EndChar

StartChar: Y
Encoding: 89 89 60
Width: 1548
GlyphClass: 2
Flags: MW
AnchorPoint: "Anchor-4" 795 0 basechar 0
LayerCount: 2
Fore
SplineSet
147 1247 m 1,0,-1
 0 1293 l 1,1,-1
 0 1396 l 1,2,-1
 715 1396 l 1,3,-1
 715 1293 l 1,4,-1
 564 1247 l 1,5,-1
 886 784 l 1,6,-1
 1174 1247 l 1,7,-1
 1023 1293 l 1,8,-1
 1023 1396 l 1,9,-1
 1525 1396 l 1,10,-1
 1525 1293 l 1,11,-1
 1391 1247 l 1,12,-1
 968 596 l 1,13,-1
 968 152 l 1,14,-1
 1131 102 l 1,15,-1
 1131 0 l 1,16,-1
 459 0 l 1,17,-1
 459 102 l 1,18,-1
 623 152 l 1,19,-1
 623 591 l 1,20,-1
 147 1247 l 1,0,-1
EndSplineSet
EndChar

StartChar: Z
Encoding: 90 90 61
Width: 1387
GlyphClass: 2
Flags: MW
AnchorPoint: "Anchor-4" 664 0 basechar 0
LayerCount: 2
Fore
SplineSet
1249 1396 m 1,0,-1
 1249 1228 l 1,1,-1
 529 202 l 1,2,-1
 1044 202 l 1,3,-1
 1206 488 l 1,4,-1
 1325 485 l 1,5,-1
 1252 0 l 1,6,-1
 1053 0 l 1,7,-1
 112 0 l 1,8,-1
 112 168 l 1,9,-1
 829 1194 l 1,10,-1
 339 1194 l 1,11,-1
 226 929 l 1,12,-1
 106 932 l 1,13,-1
 124 1395.5 l 1,14,-1
 329 1396 l 1,15,-1
 1249 1396 l 1,0,-1
EndSplineSet
EndChar

StartChar: bracketleft
Encoding: 91 91 62
Width: 754
GlyphClass: 1
Flags: MW
LayerCount: 2
Fore
SplineSet
183 -228 m 1,0,-1
 183 1448 l 1,1,-1
 703 1448 l 1,2,-1
 703 1295 l 1,3,-1
 431 1295 l 1,4,-1
 431 -75 l 1,5,-1
 703 -75 l 1,6,-1
 703 -228 l 1,7,-1
 183 -228 l 1,0,-1
EndSplineSet
Substitution2: "'case' Case-Sensitive Forms in Latin lookup 9 subtable" bracketleft.case
EndChar

StartChar: backslash
Encoding: 92 92 63
Width: 871
GlyphClass: 1
Flags: MW
LayerCount: 2
Fore
SplineSet
821 0 m 1,0,-1
 602 0 l 1,1,-1
 48 1396 l 1,2,-1
 267 1396 l 1,3,-1
 821 0 l 1,0,-1
EndSplineSet
EndChar

StartChar: bracketright
Encoding: 93 93 64
Width: 754
GlyphClass: 1
Flags: MW
LayerCount: 2
Fore
SplineSet
571 1448 m 1,0,-1
 571 -227 l 1,1,-1
 51 -227 l 1,2,-1
 51 -75 l 1,3,-1
 323 -75 l 1,4,-1
 323 1295 l 1,5,-1
 51 1295 l 1,6,-1
 51 1448 l 1,7,-1
 571 1448 l 1,0,-1
EndSplineSet
Substitution2: "'case' Case-Sensitive Forms in Latin lookup 9 subtable" bracketright.case
EndChar

StartChar: asciicircum
Encoding: 94 94 65
Width: 1049
GlyphClass: 1
Flags: MW
LayerCount: 2
Fore
SplineSet
525 1155 m 1,0,-1
 296 635 l 1,1,-1
 98 635 l 1,2,-1
 435 1396 l 1,3,-1
 614 1396 l 1,4,-1
 952 635 l 1,5,-1
 753 635 l 1,6,-1
 525 1155 l 1,0,-1
EndSplineSet
EndChar

StartChar: a
Encoding: 97 97 68
Width: 1178
GlyphClass: 2
Flags: MW
AnchorPoint: "Anchor-4" 589 0 basechar 0
AnchorPoint: "Anchor-3" 1170 0 basechar 0
AnchorPoint: "Anchor-0" 565 1071 basechar 0
LayerCount: 2
Fore
SplineSet
684 124 m 1,0,1
 597 15 597 15 516 -9.5 c 0,2,3
 462.812623518 -27 462.812623518 -27 388 -27 c 0,4,5
 244 -27 244 -27 164 47 c 128,-1,6
 84 121 84 121 84 267 c 0,7,8
 84 344 84 344 109.5 404 c 128,-1,9
 135 464 135 464 205.5 513 c 128,-1,10
 276 562 276 562 409 601 c 0,11,12
 520 633 520 633 686 663 c 1,13,-1
 686 744 l 2,14,15
 686 843 686 843 646 892 c 0,16,17
 609 937 609 937 528 934 c 0,18,19
 461 931 461 931 436.075195312 917.9140625 c 0,20,21
 398 897 398 897 375 855.5 c 0,22,23
 369 845 369 845 354 798 c 0,24,25
 341 758 341 758 305.5 743 c 0,26,27
 272 729 272 729 217 729 c 0,28,29
 155 729 155 729 124 754 c 128,-1,30
 93 779 93 779 93 818 c 0,31,32
 93 861 93 861 132 909 c 128,-1,33
 171 957 171 957 242.5 1000 c 128,-1,34
 314 1043 314 1043 410.5 1070 c 128,-1,35
 507 1097 507 1097 623 1097 c 0,36,37
 764 1097 764 1097 846.5 1054.5 c 128,-1,38
 929 1012 929 1012 965 932.5 c 128,-1,39
 1001 853 1001 853 1001 743 c 2,40,-1
 1001 259 l 2,41,42
 1001 224 1001 224 1010.5 204 c 128,-1,43
 1020 184 1020 184 1038 174.5 c 128,-1,44
 1056 165 1056 165 1085 165 c 0,45,46
 1103 165 1103 165 1124 169 c 128,-1,47
 1145 173 1145 173 1170 180 c 1,48,-1
 1170 69 l 1,49,50
 1115 26 1115 26 1051 0.5 c 128,-1,51
 987 -25 987 -25 922 -25 c 0,52,53
 847 -25 847 -25 787.283676182 7.5 c 0,54,55
 718 45 718 45 684 124 c 1,0,1
686 527 m 1,56,57
 612 515 612 515 560 501 c 0,58,59
 491 482 491 482 455.5 458.5 c 128,-1,60
 420 435 420 435 407.5 405 c 128,-1,61
 395 375 395 375 395 335 c 0,62,63
 395 264 395 264 425 232 c 128,-1,64
 455 200 455 200 524 200 c 0,65,66
 571 200 571 200 608 217.5 c 128,-1,67
 645 235 645 235 665.5 267 c 128,-1,68
 686 299 686 299 686 340 c 2,69,-1
 686 527 l 1,56,57
EndSplineSet
Substitution2: "Single Substitution lookup 3 subtable" ordfeminine
EndChar

StartChar: b
Encoding: 98 98 69
Width: 1296
GlyphClass: 2
Flags: MW
AnchorPoint: "Anchor-4" 630 12 basechar 0
LayerCount: 2
Fore
SplineSet
476 847 m 2,0,-1
 476 415 l 2,1,2
 476 329 476 329 497 274.5 c 128,-1,3
 518 220 518 220 561.5 195 c 128,-1,4
 605 170 605 170 670 170 c 0,5,6
 740 170 740 170 790.5 207.5 c 128,-1,7
 841 245 841 245 867.5 327 c 128,-1,8
 894 409 894 409 894 542 c 0,9,10
 894 656 894 656 866.5 730 c 128,-1,11
 839 804 839 804 783.5 838.5 c 128,-1,12
 728 873 728 873 644 873 c 0,13,14
 606 873 606 873 564.5 867 c 128,-1,15
 523 861 523 861 483 849 c 0,16,17
 479 848 479 848 476 847 c 2,0,-1
476 966 m 1,18,19
 510 988 510 988 539 1006 c 0,20,21
 599 1042 599 1042 643.5 1062.5 c 128,-1,22
 688 1083 688 1083 722 1090.5 c 128,-1,23
 756 1098 756 1098 788 1098 c 0,24,25
 927 1098 927 1098 1022 1035 c 128,-1,26
 1117 972 1117 972 1166 856 c 128,-1,27
 1215 740 1215 740 1215 580 c 0,28,29
 1215 430 1215 430 1179 316 c 128,-1,30
 1143 202 1143 202 1077.5 131.5 c 128,-1,31
 1012 61 1012 61 924.5 22.5 c 0,32,33
 838 -15 838 -15 735 -16 c 0,34,35
 161 -19 161 -19 160.833007812 55 c 1,36,37
 160 55 160 55 160 292 c 2,38,-1
 160 1283 l 1,39,40
 147 1294 147 1294 117.5 1312.5 c 128,-1,41
 88 1331 88 1331 50.5 1352.5 c 128,-1,42
 13 1374 13 1374 -25 1395 c 1,43,-1
 -25 1493 l 1,44,45
 -24 1493 -24 1493 428 1591 c 1,46,-1
 497 1591 l 1,47,-1
 476 1328 l 1,48,-1
 476 966 l 1,18,19
EndSplineSet
EndChar

StartChar: c
Encoding: 99 99 70
Width: 1077
GlyphClass: 2
Flags: MW
AnchorPoint: "Anchor-4" 577 0 basechar 0
AnchorPoint: "Anchor-3" 1012 0 basechar 0
AnchorPoint: "Anchor-0" 580 1071 basechar 0
LayerCount: 2
Fore
SplineSet
668 1098 m 0,0,1
 800 1098 800 1098 877 1069 c 128,-1,2
 954 1040 954 1040 986.5 993 c 128,-1,3
 1019 946 1019 946 1019 891 c 0,4,5
 1019 842 1019 842 998 805 c 128,-1,6
 977 768 977 768 944 747 c 128,-1,7
 911 726 911 726 876 726 c 0,8,9
 858 726 858 726 830 747.5 c 128,-1,10
 802 769 802 769 769.5 801.5 c 128,-1,11
 737 834 737 834 704 866.5 c 128,-1,12
 671 899 671 899 641 921 c 128,-1,13
 611 943 611 943 590 943 c 0,14,15
 524 943 524 943 475.5 911 c 128,-1,16
 427 879 427 879 400 808.5 c 128,-1,17
 373 738 373 738 373 620 c 0,18,19
 373 480 373 480 407 393.5 c 128,-1,20
 441 307 441 307 510.5 267 c 128,-1,21
 580 227 580 227 689 227 c 0,22,23
 773 227 773 227 846 243.5 c 128,-1,24
 919 260 919 260 994 293 c 1,25,-1
 1003 171 l 1,26,27
 916 101 916 101 842.5 57 c 128,-1,28
 769 13 769 13 704.5 -7 c 128,-1,29
 640 -27 640 -27 581 -27 c 0,30,31
 425 -27 425 -27 312.5 36.5 c 128,-1,32
 200 100 200 100 139.5 221.5 c 128,-1,33
 79 343 79 343 79 516 c 0,34,35
 79 645 79 645 117.5 751.5 c 128,-1,36
 156 858 156 858 230.5 935.5 c 128,-1,37
 305 1013 305 1013 415.5 1055.5 c 128,-1,38
 526 1098 526 1098 668 1098 c 0,0,1
EndSplineSet
EndChar

StartChar: d
Encoding: 100 100 71
Width: 1326
GlyphClass: 2
Flags: MW
AnchorPoint: "Anchor-4" 680 0 basechar 0
AnchorPoint: "Anchor-3" 1137 1542 basechar 0
AnchorPoint: "Anchor-1" 935 1254 basechar 0
LayerCount: 2
Fore
SplineSet
820 698 m 2,0,1
 820 804 820 804 779.5 858.5 c 128,-1,2
 739 913 739 913 645 913 c 0,3,4
 567 913 567 913 512.5 874 c 128,-1,5
 458 835 458 835 429.5 753.5 c 128,-1,6
 401 672 401 672 401 543 c 0,7,8
 401 421 401 421 429 344.5 c 128,-1,9
 457 268 457 268 512.5 233 c 128,-1,10
 568 198 568 198 653 198 c 0,11,12
 709 198 709 198 769 212 c 0,13,14
 794 219 794 219 820 227 c 1,15,-1
 820 698 l 2,0,1
820 1078 m 1,16,-1
 820 1308 l 1,17,18
 808 1317 808 1317 776 1333 c 128,-1,19
 744 1349 744 1349 706 1366 c 128,-1,20
 668 1383 668 1383 639 1396 c 1,21,-1
 639 1494 l 1,22,-1
 1088 1591 l 1,23,-1
 1157 1591 l 1,24,-1
 1138.99902344 1300 l 1,25,26
 1130 738 1130 738 1138.99902344 180 c 0,27,28
 1140 121 1140 121 1298 136 c 1,29,-1
 1298 0 l 1,30,-1
 940 0 l 1,31,-1
 891 0 l 1,32,-1
 861 72 l 1,33,34
 709 -14 709 -14 505 -24 c 1,35,36
 365 -24 365 -24 270.5 37.5 c 128,-1,37
 176 99 176 99 128.5 216 c 128,-1,38
 81 333 81 333 81 491 c 0,39,40
 81 634 81 634 124.5 746.5 c 128,-1,41
 168 859 168 859 246 937.5 c 128,-1,42
 324 1016 324 1016 426.5 1057 c 128,-1,43
 529 1098 529 1098 648 1098 c 0,44,45
 717 1098 717 1098 775 1088 c 0,46,47
 798 1084 798 1084 820 1078 c 1,16,-1
EndSplineSet
EndChar

StartChar: e
Encoding: 101 101 72
Width: 1120
GlyphClass: 2
Flags: MW
AnchorPoint: "Anchor-4" 590 0 basechar 0
AnchorPoint: "Anchor-3" 1026 0 basechar 0
AnchorPoint: "Anchor-0" 575 1071 basechar 0
LayerCount: 2
Fore
SplineSet
585 1098 m 0,0,1
 739 1098 739 1098 838 1036 c 128,-1,2
 937 974 937 974 986.5 847 c 128,-1,3
 1036 720 1036 720 1042 524 c 1,4,-1
 378 524 l 1,5,6
 385 440 385 440 410 382 c 0,7,8
 446 298 446 298 519.5 259.5 c 128,-1,9
 593 221 593 221 709 221 c 0,10,11
 769 221 769 221 822 229 c 128,-1,12
 875 237 875 237 923.5 251 c 128,-1,13
 972 265 972 265 1017 283 c 1,14,-1
 1026 170 l 1,15,16
 945 105 945 105 870 60.5 c 128,-1,17
 795 16 795 16 726 -5.5 c 128,-1,18
 657 -27 657 -27 594 -27 c 0,19,20
 433 -27 433 -27 318 37.5 c 128,-1,21
 203 102 203 102 141.5 224 c 128,-1,22
 80 346 80 346 80 518 c 0,23,24
 80 692 80 692 139.5 823 c 128,-1,25
 199 954 199 954 311.5 1026 c 128,-1,26
 424 1098 424 1098 585 1098 c 0,0,1
740 673 m 1,27,28
 736 752 736 752 722 802 c 0,29,30
 702 868 702 868 663.5 895.5 c 128,-1,31
 625 923 625 923 567 923 c 0,32,33
 504 923 504 923 461.5 893 c 128,-1,34
 419 863 419 863 396 794 c 0,35,36
 380 744 380 744 376 667 c 1,37,-1
 740 673 l 1,27,28
EndSplineSet
EndChar

StartChar: f
Encoding: 102 102 73
Width: 915
GlyphClass: 2
Flags: MW
AnchorPoint: "Anchor-4" 395 0 basechar 0
LayerCount: 2
Fore
SplineSet
553 143 m 1,0,-1
 709 98 l 1,1,-1
 709 0 l 1,2,-1
 100 0 l 1,3,-1
 100 98 l 1,4,-1
 236 141 l 1,5,-1
 240 868.900390625 l 1,6,-1
 39 926 l 1,7,-1
 68 1070.90039062 l 1,8,-1
 236 1070.90039062 l 1,9,10
 239 1216 239 1216 272 1306 c 0,11,12
 308 1404 308 1404 379 1466.5 c 128,-1,13
 450 1529 450 1529 553 1560 c 128,-1,14
 656 1591 656 1591 789 1591 c 0,15,16
 895 1591 895 1591 965 1577.5 c 128,-1,17
 1035 1564 1035 1564 1073.5 1538.5 c 128,-1,18
 1112 1513 1112 1513 1127.5 1479 c 128,-1,19
 1143 1445 1143 1445 1143 1404 c 0,20,21
 1143 1340 1143 1340 1102.5 1296 c 128,-1,22
 1062 1252 1062 1252 993 1252 c 0,23,24
 973 1252 973 1252 953 1276.5 c 128,-1,25
 933 1301 933 1301 906.5 1333 c 128,-1,26
 880 1365 880 1365 840.5 1390 c 128,-1,27
 801 1415 801 1415 741 1415 c 0,28,29
 676 1415 676 1415 634.5 1393.5 c 128,-1,30
 593 1372 593 1372 573 1326 c 128,-1,31
 553 1280 553 1280 553 1207 c 2,32,-1
 553 1071 l 1,33,-1
 883 1071 l 1,34,-1
 842 869 l 1,35,-1
 553 869 l 1,36,-1
 553 143 l 1,0,-1
EndSplineSet
EndChar

StartChar: g
Encoding: 103 103 74
Width: 1181
GlyphClass: 2
Flags: MW
AnchorPoint: "Anchor-4" 577 -512 basechar 0
AnchorPoint: "Anchor-0" 551 1071 basechar 0
LayerCount: 2
Fore
SplineSet
549 485 m 0,0,1
 618 485 618 485 660 536.5 c 128,-1,2
 702 588 702 588 702 717 c 0,3,4
 702 844 702 844 661.5 896 c 128,-1,5
 621 948 621 948 540 948 c 0,6,7
 471 948 471 948 428 897 c 128,-1,8
 385 846 385 846 385 715 c 0,9,10
 385 589 385 589 425 537 c 128,-1,11
 465 485 465 485 549 485 c 0,0,1
546 -519 m 0,12,13
 403 -519 403 -519 305 -503.5 c 128,-1,14
 207 -488 207 -488 149 -457.5 c 128,-1,15
 91 -427 91 -427 65.5 -383.5 c 128,-1,16
 40 -340 40 -340 40 -285 c 0,17,18
 40 -240 40 -240 60.5 -202.5 c 128,-1,19
 81 -165 81 -165 128 -137.5 c 128,-1,20
 175 -110 175 -110 254 -92 c 0,21,22
 283 -86 283 -86 317 -81 c 1,23,24
 317 -81 317 -81 316 -81 c 0,25,26
 234 -62 234 -62 187 -29 c 128,-1,27
 140 4 140 4 121 48.5 c 128,-1,28
 102 93 102 93 102 146 c 0,29,30
 103 242 103 242 177 302 c 0,31,32
 227 342 227 342 319 361 c 1,33,34
 308 366 308 366 296 370 c 0,35,36
 195 415 195 415 142.5 501.5 c 128,-1,37
 90 588 90 588 90 712 c 0,38,39
 90 838 90 838 145.5 924 c 128,-1,40
 201 1010 201 1010 303 1054 c 128,-1,41
 405 1098 405 1098 542 1098 c 0,42,43
 640 1098 640 1098 720 1073 c 1,44,45
 763 1073 763 1073 806 1074 c 0,46,47
 872 1075 872 1075 931 1078 c 128,-1,48
 990 1081 990 1081 1037.5 1084.5 c 128,-1,49
 1085 1088 1085 1088 1114 1088 c 0,50,51
 1142 1088 1142 1088 1152.5 1071 c 128,-1,52
 1163 1054 1163 1054 1163 1008 c 0,53,54
 1163 938 1163 938 1150 910 c 128,-1,55
 1137 882 1137 882 1116 882 c 0,56,57
 1098 882 1098 882 1071.5 891.5 c 128,-1,58
 1045 901 1045 901 1000 915 c 0,59,60
 968 925 968 925 923 936 c 1,61,62
 946 905 946 905 962 869 c 0,63,64
 992 798 992 798 992 712 c 0,65,66
 992 587 992 587 936.5 500.5 c 128,-1,67
 881 414 881 414 780 370 c 128,-1,68
 679 326 679 326 542 326 c 0,69,70
 468 326 468 326 405 338 c 1,71,72
 364 332 364 332 346 318 c 0,73,74
 324 301 324 301 324 266 c 0,75,76
 324 242 324 242 333 225 c 128,-1,77
 342 208 342 208 376 197.5 c 128,-1,78
 410 187 410 187 482 181.5 c 128,-1,79
 554 176 554 176 680 174 c 0,80,81
 808 172 808 172 897.5 154.5 c 128,-1,82
 987 137 987 137 1042.5 101 c 128,-1,83
 1098 65 1098 65 1123.5 7.5 c 128,-1,84
 1149 -50 1149 -50 1149 -132 c 0,85,86
 1149 -251 1149 -251 1081.5 -337.5 c 128,-1,87
 1014 -424 1014 -424 880 -471.5 c 128,-1,88
 746 -519 746 -519 546 -519 c 0,12,13
436 -98 m 1,89,90
 417 -103 417 -103 401 -108 c 0,91,92
 349 -126 349 -126 327 -156 c 128,-1,93
 305 -186 305 -186 305 -227 c 0,94,95
 305 -277 305 -277 331 -308 c 128,-1,96
 357 -339 357 -339 418 -354.5 c 128,-1,97
 479 -370 479 -370 581 -370 c 0,98,99
 697 -370 697 -370 768.5 -353 c 128,-1,100
 840 -336 840 -336 872.5 -302.5 c 128,-1,101
 905 -269 905 -269 905 -224 c 0,102,103
 905 -193 905 -193 893.5 -170.5 c 128,-1,104
 882 -148 882 -148 844.5 -134 c 128,-1,105
 807 -120 807 -120 731 -112.5 c 128,-1,106
 655 -105 655 -105 526 -103 c 0,107,108
 478 -102 478 -102 436 -98 c 1,89,90
EndSplineSet
EndChar

StartChar: h
Encoding: 104 104 75
Width: 1354
GlyphClass: 2
Flags: MW
AnchorPoint: "Anchor-4" 677 0 basechar 0
AnchorPoint: "Anchor-1" 390 1254 basechar 0
LayerCount: 2
Fore
SplineSet
611 0 m 1,0,-1
 51 0 l 1,1,-1
 51 98 l 1,2,-1
 187 141 l 1,3,-1
 187 1283 l 1,4,5
 175 1294 175 1294 146 1312.5 c 128,-1,6
 117 1331 117 1331 79 1352.5 c 128,-1,7
 41 1374 41 1374 3 1395 c 1,8,-1
 3 1493 l 1,9,-1
 455 1591 l 1,10,-1
 524 1591 l 1,11,-1
 504 1328 l 1,12,-1
 504 928 l 1,13,14
 561.426106918 985.398274843 561.426106918 985.398274843 608 1018 c 0,15,16
 668 1060 668 1060 708.5 1072 c 128,-1,17
 749 1084 749 1084 783.5 1091 c 128,-1,18
 818 1098 818 1098 861 1098 c 0,19,20
 1023 1098 1023 1098 1099.5 1009.5 c 128,-1,21
 1176 921 1176 921 1176 751 c 2,22,-1
 1176 141 l 1,23,-1
 1314 98 l 1,24,-1
 1314 0 l 1,25,-1
 756 0 l 1,26,-1
 756 98 l 1,27,-1
 860 134 l 1,28,-1
 860 671 l 2,29,30
 860 724 860 724 843 758 c 128,-1,31
 826 792 826 792 790 808.5 c 128,-1,32
 754 825 754 825 693 825 c 0,33,34
 639 825 639 825 582 812 c 0,35,36
 540 803 540 803 504 790 c 1,37,-1
 504 136 l 1,38,-1
 611 98 l 1,39,-1
 611 0 l 1,0,-1
EndSplineSet
EndChar

StartChar: i
Encoding: 105 105 76
Width: 721
GlyphClass: 2
Flags: MW
AnchorPoint: "Anchor-4" 376 0 basechar 0
AnchorPoint: "Anchor-3" 542 0 basechar 0
AnchorPoint: "Anchor-0" 354.513 1642.54 basechar 0
LayerCount: 2
Fore
SplineSet
549 1070.90039062 m 1,0,-1
 533 799 l 1,1,-1
 533 141 l 1,2,-1
 667 98 l 1,3,-1
 667 0 l 1,4,-1
 81 0 l 1,5,-1
 81 98 l 1,6,-1
 218 141 l 1,7,-1
 217.5 863 l 2,8,9
 217 865 217 865 62 903 c 1,10,-1
 63 1050 l 1,11,-1
 549 1070.90039062 l 1,0,-1
362.6796875 1289.70019531 m 0,12,13
 275 1290 275 1290 229.1796875 1335.375 c 0,14,15
 183 1381 183 1381 182.900390625 1465.04980469 c 128,-1,16
 183 1549 183 1549 229.1796875 1592.625 c 0,17,18
 275 1636 275 1636 362.6796875 1636.20019531 c 0,19,20
 451 1636 451 1636 496.625 1592.625 c 0,21,22
 542 1549 542 1549 542.459960938 1465.04980469 c 0,23,24
 542 1381 542 1381 496.625 1335.375 c 0,25,26
 451 1290 451 1290 362.6796875 1289.70019531 c 0,12,13
EndSplineSet
EndChar

StartChar: j
Encoding: 106 106 77
Width: 663
GlyphClass: 2
Flags: MW
AnchorPoint: "Anchor-4" 327 -388 basechar 0
AnchorPoint: "Anchor-0" 487.625 1966.14 basechar 0
LayerCount: 2
Fore
SplineSet
195 886 m 17,0,1
 109 895 109 895 40 903 c 1,2,-1
 40 1052 l 1,3,-1
 440 1070.90039062 l 1,4,-1
 526 1070.90039062 l 1,5,-1
 512 799 l 1,6,-1
 494 -60 l 2,7,8
 487 -403 487 -403 67 -402 c 0,9,10
 67 -402 67 -402 67 -402 c 1,11,-1
 -16 -277 l 1,12,13
 160 -264 160 -264 198 -106 c 1,14,15
 198 -106 198 -106 200 112 c 1,16,-1
 195 886 l 17,0,1
360.700195312 1279.70019531 m 0,17,18
 272 1280 272 1280 224.349609375 1325.375 c 0,19,20
 177 1371 177 1371 177.099609375 1455.04980469 c 128,-1,21
 177 1539 177 1539 224.349609375 1582.625 c 0,22,23
 272 1626 272 1626 360.700195312 1626.20019531 c 0,24,25
 450 1626 450 1626 495.700195312 1582.625 c 0,26,27
 542 1539 542 1539 541.599609375 1455.04980469 c 0,28,29
 542 1371 542 1371 495.700195312 1325.375 c 0,30,31
 450 1280 450 1280 360.700195312 1279.70019531 c 0,17,18
EndSplineSet
EndChar

StartChar: k
Encoding: 107 107 78
Width: 1357
GlyphClass: 2
Flags: MW
AnchorPoint: "Anchor-4" 728 0 basechar 0
LayerCount: 2
Fore
SplineSet
504 141 m 1,0,-1
 634 98 l 1,1,-1
 634 0 l 1,2,-1
 51 0 l 1,3,-1
 51 98 l 1,4,-1
 187 141 l 1,5,-1
 187 1283 l 1,6,7
 175 1294 175 1294 146 1312.5 c 128,-1,8
 117 1331 117 1331 79 1352.5 c 128,-1,9
 41 1374 41 1374 3 1395 c 1,10,-1
 3 1493 l 1,11,-1
 455 1591 l 1,12,-1
 524 1591 l 1,13,-1
 504 1328 l 1,14,-1
 504 684 l 1,15,-1
 657 684 l 1,16,-1
 911 940 l 1,17,-1
 769 977 l 1,18,-1
 769 1071 l 1,19,-1
 1280 1071 l 1,20,-1
 1280 977 l 1,21,-1
 1132 939 l 1,22,-1
 870 695 l 1,23,-1
 1241 147 l 1,24,-1
 1355 91 l 1,25,-1
 1355 0 l 1,26,-1
 984 0 l 1,27,-1
 639 500 l 1,28,-1
 504 500 l 1,29,-1
 504 141 l 1,0,-1
EndSplineSet
EndChar

StartChar: l
Encoding: 108 108 79
Width: 691
GlyphClass: 2
Flags: MW
AnchorPoint: "Anchor-4" 347 0 basechar 0
AnchorPoint: "Anchor-3" 504 1564 basechar 0
LayerCount: 2
Fore
SplineSet
504 141 m 1,0,-1
 639 98 l 1,1,-1
 639 0 l 1,2,-1
 53 0 l 1,3,-1
 53 98 l 1,4,-1
 189 141 l 1,5,-1
 189 1283 l 1,6,7
 176 1294 176 1294 147 1312.5 c 128,-1,8
 118 1331 118 1331 80.5 1352.5 c 128,-1,9
 43 1374 43 1374 5 1395 c 1,10,-1
 5 1493 l 1,11,-1
 457 1591 l 1,12,-1
 526 1591 l 1,13,-1
 504 1328 l 1,14,-1
 504 141 l 1,0,-1
EndSplineSet
EndChar

StartChar: m
Encoding: 109 109 80
Width: 1986
GlyphClass: 2
Flags: MW
AnchorPoint: "Anchor-4" 1013 0 basechar 0
AnchorPoint: "Anchor-0" 1013 1071 basechar 0
LayerCount: 2
Fore
SplineSet
1808 767 m 2,0,-1
 1808 141 l 1,1,-1
 1946 98 l 1,2,-1
 1946 0 l 1,3,-1
 1392 0 l 1,4,-1
 1392 98 l 1,5,-1
 1492 134 l 1,6,-1
 1492 686 l 2,7,8
 1492 735 1492 735 1476.5 766 c 128,-1,9
 1461 797 1461 797 1428 811.5 c 128,-1,10
 1395 826 1395 826 1339 826 c 0,11,12
 1290 826 1290 826 1238 816 c 0,13,14
 1202 808 1202 808 1170 797 c 1,15,16
 1170 788 1170 788 1170 780 c 2,17,-1
 1170 134 l 1,18,-1
 1271 98 l 1,19,-1
 1271 0 l 1,20,-1
 753 0 l 1,21,-1
 753 98 l 1,22,-1
 854 134 l 1,23,-1
 854 686 l 2,24,25
 854 735 854 735 839 766 c 128,-1,26
 824 797 824 797 790.5 811.5 c 128,-1,27
 757 826 757 826 703 826 c 0,28,29
 653 826 653 826 602 816 c 0,30,31
 565 808 565 808 533 796 c 1,32,-1
 533 134 l 1,33,-1
 633 98 l 1,34,-1
 633 0 l 1,35,-1
 80 0 l 1,36,-1
 80 98 l 1,37,-1
 217 141 l 1,38,-1
 217 767 l 1,39,40
 199 786 199 786 161.5 817 c 128,-1,41
 124 848 124 848 62 897 c 1,42,-1
 62 968 l 1,43,-1
 396 1101 l 1,44,-1
 453 1101 l 1,45,-1
 519 897 l 1,46,47
 585 956 585 956 630 993 c 0,48,49
 686 1040 686 1040 724.5 1062.5 c 128,-1,50
 763 1085 763 1085 796 1091.5 c 128,-1,51
 829 1098 829 1098 871 1098 c 0,52,53
 974 1098 974 1098 1040.5 1062.5 c 128,-1,54
 1107 1027 1107 1027 1138 956 c 0,55,56
 1150 930 1150 930 1158 899 c 1,57,58
 1221 956 1221 956 1265 992 c 0,59,60
 1322 1040 1322 1040 1360.5 1062.5 c 128,-1,61
 1399 1085 1399 1085 1432.5 1091.5 c 128,-1,62
 1466 1098 1466 1098 1507 1098 c 0,63,64
 1662 1098 1662 1098 1735 1013.5 c 128,-1,65
 1808 929 1808 929 1808 767 c 2,0,-1
EndSplineSet
EndChar

StartChar: n
Encoding: 110 110 81
Width: 1383
GlyphClass: 2
Flags: MW
AnchorPoint: "Anchor-4" 700 0 basechar 0
AnchorPoint: "Anchor-0" 712 1071 basechar 0
LayerCount: 2
Fore
SplineSet
786 98 m 1,0,-1
 888 134 l 1,1,-1
 888 671 l 2,2,3
 888 724 888 724 872 758 c 128,-1,4
 856 792 856 792 819.5 808.5 c 128,-1,5
 783 825 783 825 722 825 c 0,6,7
 667 825 667 825 611 812 c 0,8,9
 570 803 570 803 533 790 c 1,10,-1
 533 134 l 1,11,12
 534 134 534 134 636 98 c 1,13,-1
 636 0 l 1,14,-1
 80 0 l 1,15,-1
 80 98 l 1,16,-1
 217 141 l 1,17,-1
 218 812 l 1,18,19
 218 812 218 812 62 897 c 1,20,-1
 62 968 l 1,21,-1
 396 1101 l 1,22,-1
 453 1101 l 1,23,-1
 522 888 l 1,24,25
 590 948 590 948 636 987 c 0,26,27
 696 1037 696 1037 737 1060.5 c 128,-1,28
 778 1084 778 1084 812.5 1091 c 128,-1,29
 847 1098 847 1098 890 1098 c 0,30,31
 1052 1098 1052 1098 1129 1009.5 c 128,-1,32
 1206 921 1206 921 1206 751 c 2,33,-1
 1206 141 l 1,34,-1
 1343 98 l 1,35,-1
 1343 0 l 1,36,-1
 786 0 l 1,37,-1
 786 98 l 1,0,-1
EndSplineSet
EndChar

StartChar: o
Encoding: 111 111 82
Width: 1226
GlyphClass: 2
Flags: MW
AnchorPoint: "Anchor-4" 614 0 basechar 0
AnchorPoint: "Anchor-3" 819 0 basechar 0
AnchorPoint: "Anchor-2" 812 1071 basechar 0
AnchorPoint: "Anchor-0" 614 1071 basechar 0
LayerCount: 2
Fore
SplineSet
600 -27 m 0,0,1
 437 -27 437 -27 320 40.5 c 128,-1,2
 203 108 203 108 141 232.5 c 128,-1,3
 79 357 79 357 79 529 c 0,4,5
 79 704 79 704 145 832 c 128,-1,6
 211 960 211 960 334 1029 c 128,-1,7
 457 1098 457 1098 626 1098 c 0,8,9
 790 1098 790 1098 906.5 1030.5 c 128,-1,10
 1023 963 1023 963 1085.5 838.5 c 128,-1,11
 1148 714 1148 714 1148 542 c 0,12,13
 1148 367 1148 367 1082 239 c 128,-1,14
 1016 111 1016 111 893 42 c 128,-1,15
 770 -27 770 -27 600 -27 c 0,0,1
610 173 m 128,-1,17
 683 173 683 173 732.5 206.5 c 128,-1,18
 782 240 782 240 806 314 c 128,-1,19
 830 388 830 388 830 508 c 0,20,21
 830 643 830 643 808 729 c 128,-1,22
 786 815 786 815 739 857 c 128,-1,23
 692 899 692 899 618 899 c 0,24,25
 545 899 545 899 496 865.5 c 128,-1,26
 447 832 447 832 422 758 c 128,-1,27
 397 684 397 684 397 564 c 0,28,29
 397 430 397 430 420 343 c 128,-1,30
 443 256 443 256 490 214.5 c 128,-1,16
 537 173 537 173 610 173 c 128,-1,17
EndSplineSet
Substitution2: "Single Substitution lookup 3 subtable" ordmasculine
EndChar

StartChar: p
Encoding: 112 112 83
Width: 1332
GlyphClass: 2
Flags: MW
AnchorPoint: "Anchor-4" 356 -492 basechar 0
AnchorPoint: "Anchor-0" 680 1071 basechar 0
LayerCount: 2
Fore
SplineSet
931 530 m 0,0,1
 931 710 931 710 867.5 791 c 128,-1,2
 804 872 804 872 680 872 c 0,3,4
 644 872 644 872 603.5 866.5 c 128,-1,5
 563 861 563 861 524 850 c 0,6,7
 518 849 518 849 513 847 c 1,8,-1
 513 402 l 2,9,10
 513 321 513 321 536 269 c 128,-1,11
 559 217 559 217 602.5 193.5 c 128,-1,12
 646 170 646 170 707 170 c 0,13,14
 777 170 777 170 827 207.5 c 128,-1,15
 877 245 877 245 904 325 c 128,-1,16
 931 405 931 405 931 530 c 0,0,1
513 118 m 1,17,-1
 513 -350 l 1,18,-1
 670 -394 l 1,19,-1
 670 -519 l 1,20,-1
 58 -519 l 1,21,-1
 58 -394 l 1,22,-1
 196 -351 l 1,23,-1
 196 769 l 1,24,25
 184 782 184 782 160 802 c 128,-1,26
 136 822 136 822 105.5 847 c 128,-1,27
 75 872 75 872 41 899 c 1,28,-1
 41 969 l 1,29,-1
 381 1102 l 1,30,-1
 437 1102 l 1,31,-1
 496 952 l 1,32,33
 542 984 542 984 580 1007 c 0,34,35
 637 1043 637 1043 680 1063 c 128,-1,36
 723 1083 723 1083 756.5 1090.5 c 128,-1,37
 790 1098 790 1098 824 1098 c 0,38,39
 964 1098 964 1098 1059 1034.5 c 128,-1,40
 1154 971 1154 971 1202.5 855 c 128,-1,41
 1251 739 1251 739 1251 581 c 0,42,43
 1251 387 1251 387 1187 250.5 c 128,-1,44
 1123 114 1123 114 1016.5 43.5 c 128,-1,45
 910 -27 910 -27 781 -27 c 0,46,47
 695 -27 695 -27 629.5 7.5 c 128,-1,48
 564 42 564 42 523 102 c 0,49,50
 518 110 518 110 513 118 c 1,17,-1
EndSplineSet
EndChar

StartChar: q
Encoding: 113 113 84
Width: 1296
GlyphClass: 2
Flags: MW
AnchorPoint: "Anchor-4" 978 -492 basechar 0
AnchorPoint: "Anchor-0" 660 1071 basechar 0
LayerCount: 2
Fore
SplineSet
401 544 m 0,0,1
 401 422 401 422 429 345.5 c 128,-1,2
 457 269 457 269 512.5 233.5 c 128,-1,3
 568 198 568 198 653 198 c 0,4,5
 708 198 708 198 768 212 c 0,6,7
 794 217 794 217 820 226 c 1,8,-1
 820 691 l 2,9,10
 820 800 820 800 780 856.5 c 128,-1,11
 740 913 740 913 643 913 c 0,12,13
 567 913 567 913 512.5 874 c 128,-1,14
 458 835 458 835 429.5 753 c 128,-1,15
 401 671 401 671 401 544 c 0,0,1
1137 835 m 1,16,-1
 1137 835 l 2,17,-1
 1137 -351 l 1,18,-1
 1274 -394 l 1,19,-1
 1274 -519 l 1,20,-1
 662 -519 l 1,21,-1
 662 -394 l 1,22,-1
 820 -350 l 1,23,-1
 820 133 l 1,24,25
 775 98 775 98 739 73 c 0,26,27
 678 30 678 30 637 8.5 c 128,-1,28
 596 -13 596 -13 565 -20 c 128,-1,29
 534 -27 534 -27 504 -27 c 0,30,31
 364 -27 364 -27 270 36 c 128,-1,32
 176 99 176 99 128.5 216 c 128,-1,33
 81 333 81 333 81 491 c 0,34,35
 81 680 81 680 157.5 817 c 128,-1,36
 234 954 234 954 363 1026 c 128,-1,37
 492 1098 492 1098 651 1098 c 0,38,39
 806.273368607 1098 806.273368607 1098 896 1070.90039062 c 0,40,41
 995 1040 995 1040 1063 984.900390625 c 0,42,43
 1127.10117007 930.276238091 1127.10117007 930.276238091 1137 835 c 1,16,-1
EndSplineSet
EndChar

StartChar: r
Encoding: 114 114 85
Width: 1055
GlyphClass: 2
Flags: MW
AnchorPoint: "Anchor-4" 374 0 basechar 0
AnchorPoint: "Anchor-0" 519 1071 basechar 0
LayerCount: 2
Fore
SplineSet
846 1093 m 0,0,1
 935 1093 935 1093 1010 1010 c 1,2,3
 1010 1010 1010 1010 979 784 c 1,4,5
 774 861 774 861 533 776 c 1,6,7
 533 776 533 776 533 776 c 1,8,-1
 533 145 l 1,9,-1
 685 98 l 1,10,-1
 685 0 l 1,11,-1
 80 0 l 1,12,-1
 80 98 l 1,13,-1
 217 141 l 1,14,-1
 215 889 l 2,15,16
 215 889 215 889 61 908 c 1,17,-1
 62 968 l 1,18,-1
 403 1101 l 1,19,-1
 460 1101 l 1,20,-1
 523 890 l 1,21,22
 553 923 553 923 580 949 c 0,23,24
 638 1007 638 1007 682.5 1038 c 128,-1,25
 727 1069 727 1069 765.5 1081 c 128,-1,26
 804 1093 804 1093 846 1093 c 0,0,1
EndSplineSet
EndChar

StartChar: s
Encoding: 115 115 86
Width: 1034
GlyphClass: 2
Flags: MW
AnchorPoint: "Anchor-4" 525 0 basechar 0
AnchorPoint: "Anchor-0" 510 1071 basechar 0
LayerCount: 2
Fore
SplineSet
565 1098 m 0,0,1
 653 1098 653 1098 725 1088 c 128,-1,2
 797 1078 797 1078 874 1053 c 1,3,-1
 898 765 l 1,4,-1
 776 765 l 1,5,-1
 694 899 l 1,6,7
 679 903 679 903 663 906 c 0,8,9
 606 917 606 917 563 917 c 0,10,11
 465 917 465 917 419 903 c 128,-1,12
 373 889 373 889 373 832 c 0,13,14
 373 783 373 783 399.5 754.5 c 128,-1,15
 426 726 426 726 484 707.5 c 128,-1,16
 542 689 542 689 637 670 c 0,17,18
 709 656 709 656 767.5 632.5 c 128,-1,19
 826 609 826 609 868.5 572 c 128,-1,20
 911 535 911 535 933.5 477.5 c 128,-1,21
 956 420 956 420 956 338 c 0,22,23
 956 221 956 221 902 140 c 128,-1,24
 848 59 848 59 740 16.5 c 128,-1,25
 632 -26 632 -26 467 -26 c 0,26,27
 374 -26 374 -26 282 -14 c 128,-1,28
 190 -2 190 -2 128 18 c 1,29,-1
 86 336 l 1,30,-1
 202 336 l 1,31,-1
 302 171 l 1,32,33
 329 167 329 167 356 165 c 0,34,35
 396 162 396 162 432 162 c 0,36,37
 556 162 556 162 610.5 182 c 128,-1,38
 665 202 665 202 665 272 c 0,39,40
 665 316 665 316 645.5 344 c 128,-1,41
 626 372 626 372 588 388 c 128,-1,42
 550 404 550 404 494.5 417 c 128,-1,43
 439 430 439 430 368 446 c 0,44,45
 274 468 274 468 214 506 c 128,-1,46
 154 544 154 544 126 605.5 c 128,-1,47
 98 667 98 667 98 756 c 0,48,49
 98 868 98 868 153 944.5 c 128,-1,50
 208 1021 208 1021 313.5 1059.5 c 128,-1,51
 419 1098 419 1098 565 1098 c 0,0,1
EndSplineSet
EndChar

StartChar: t
Encoding: 116 116 87
Width: 941
GlyphClass: 2
Flags: MW
AnchorPoint: "Anchor-4" 571 0 basechar 0
AnchorPoint: "Anchor-3" 513 1611 basechar 0
LayerCount: 2
Fore
SplineSet
527 361 m 2,0,1
 527 278 527 278 568.5 242.5 c 128,-1,2
 610 207 610 207 707 207 c 0,3,4
 750 207 750 207 801.5 215.5 c 128,-1,5
 853 224 853 224 913 240 c 1,6,-1
 913 240 l 1,7,8
 872 52 872 52 621.5 -13.5 c 0,9,10
 570 -27 570 -27 521 -27 c 0,11,12
 426 -27 426 -27 356 6.5 c 128,-1,13
 286 40 286 40 248.5 107 c 128,-1,14
 211 174 211 174 211 275 c 2,15,-1
 211 869 l 1,16,-1
 30 914 l 1,17,-1
 30 1042 l 1,18,19
 160 1059 160 1059 248 1070.90039062 c 1,20,21
 298 1314 298 1314 381 1378 c 0,22,23
 381 1378 381 1378 438 1378 c 1,24,-1
 528 1378 l 1,25,-1
 527 1071 l 1,26,-1
 884 1071 l 1,27,-1
 848 869 l 1,28,-1
 527 869 l 1,29,-1
 527 361 l 2,0,1
EndSplineSet
EndChar

StartChar: u
Encoding: 117 117 88
Width: 1330
GlyphClass: 2
Flags: MW
AnchorPoint: "Anchor-4" 662 0 basechar 0
AnchorPoint: "Anchor-3" 1107 0 basechar 0
AnchorPoint: "Anchor-2" 1049 1070 basechar 0
AnchorPoint: "Anchor-0" 638 1071 basechar 0
LayerCount: 2
Fore
SplineSet
500 388 m 2,0,1
 500 337 500 337 514.5 305.5 c 128,-1,2
 529 274 529 274 563 260 c 128,-1,3
 597 246 597 246 653 246 c 0,4,5
 692 246 692 246 752 258 c 0,6,7
 787 265 787 265 819 276 c 1,8,-1
 819 899 l 1,9,10
 820 899 820 899 732 974 c 1,11,-1
 731 1039 l 1,12,-1
 1147 1062 l 1,13,-1
 1136 909 l 1,14,-1
 1130 168 l 1,15,16
 1130 168 1130 168 1284 118 c 1,17,18
 1189 -35 1189 -35 891 -26 c 0,19,-1
 891 -26 l 1,20,-1
 829 126 l 1,21,22
 821 118 821 118 631 8.5 c 0,23,24
 592 -14 592 -14 559 -20.5 c 128,-1,25
 526 -27 526 -27 484 -27 c 0,26,27
 330 -27 330 -27 256.5 58 c 128,-1,28
 183 143 183 143 183 305 c 2,29,-1
 183 875 l 1,30,31
 182 875 182 875 28 966 c 1,32,-1
 28 1036 l 1,33,-1
 519 1062 l 1,34,-1
 500 917 l 1,35,-1
 500 388 l 2,0,1
EndSplineSet
EndChar

StartChar: v
Encoding: 118 118 89
Width: 1292
GlyphClass: 2
Flags: MW
AnchorPoint: "Anchor-4" 656 0 basechar 0
AnchorPoint: "Anchor-0" 684 1071 basechar 0
LayerCount: 2
Fore
SplineSet
1154 934 m 1,0,-1
 808 0 l 1,1,-1
 503 0 l 1,2,-1
 133 920 l 1,3,-1
 7 973 l 1,4,-1
 7 1071 l 1,5,-1
 596 1071 l 1,6,-1
 596 971 l 1,7,-1
 474 934 l 1,8,-1
 731 252 l 1,9,-1
 957 932 l 1,10,-1
 842 971 l 1,11,-1
 842 1071 l 1,12,-1
 1257 1071 l 1,13,-1
 1257 971 l 1,14,-1
 1154 934 l 1,0,-1
EndSplineSet
EndChar

StartChar: w
Encoding: 119 119 90
Width: 1778
GlyphClass: 2
Flags: MW
AnchorPoint: "Anchor-4" 907 0 basechar 0
AnchorPoint: "Anchor-0" 926 1040 basechar 0
LayerCount: 2
Fore
SplineSet
1455 933 m 1,0,-1
 1347 971 l 1,1,-1
 1347 1071 l 1,2,-1
 1743 1071 l 1,3,-1
 1743 971 l 1,4,-1
 1648 935 l 1,5,-1
 1428 0 l 1,6,-1
 1129 0 l 1,7,-1
 899 722 l 1,8,-1
 665 0 l 1,9,-1
 365 0 l 1,10,-1
 140 920 l 1,11,-1
 13 973 l 1,12,-1
 13 1071 l 1,13,-1
 572 1071 l 1,14,-1
 572 971 l 1,15,-1
 458 934 l 1,16,-1
 596 319 l 1,17,-1
 827 1050 l 1,18,-1
 1098 1050 l 1,19,-1
 1335 322 l 1,20,-1
 1455 933 l 1,0,-1
EndSplineSet
EndChar

StartChar: x
Encoding: 120 120 91
Width: 1261
GlyphClass: 2
Flags: MW
AnchorPoint: "Anchor-4" 639 0 basechar 0
AnchorPoint: "Anchor-0" 651 1071 basechar 0
LayerCount: 2
Fore
SplineSet
1138 139 m 1,0,-1
 1249 94 l 1,1,-1
 1249 0 l 1,2,-1
 692 0 l 1,3,-1
 692 94 l 1,4,-1
 761 124 l 1,5,-1
 554 406 l 1,6,-1
 349 129 l 1,7,-1
 463 95 l 1,8,-1
 463 0 l 1,9,-1
 31 0 l 1,10,-1
 31 95 l 1,11,-1
 139 133 l 1,12,-1
 453 540 l 1,13,-1
 158 931 l 1,14,-1
 46 976 l 1,15,-1
 46 1071 l 1,16,-1
 605 1071 l 1,17,-1
 605 976 l 1,18,-1
 534 947 l 1,19,-1
 719 696 l 1,20,-1
 895 944 l 1,21,-1
 781 976 l 1,22,-1
 781 1071 l 1,23,-1
 1204 1071 l 1,24,-1
 1204 976 l 1,25,-1
 1097 939 l 1,26,-1
 818 564 l 1,27,-1
 1138 139 l 1,0,-1
EndSplineSet
EndChar

StartChar: y
Encoding: 121 121 92
Width: 1276
GlyphClass: 2
Flags: MW
AnchorPoint: "Anchor-4" 940 -120 basechar 0
AnchorPoint: "Anchor-0" 682 1071 basechar 0
LayerCount: 2
Fore
SplineSet
316 -519 m 0,0,1
 213 -519 213 -519 161 -474 c 128,-1,2
 109 -429 109 -429 109 -343 c 0,3,4
 109 -304 109 -304 121.5 -272.5 c 128,-1,5
 134 -241 134 -241 151.5 -221.5 c 128,-1,6
 169 -202 169 -202 182 -202 c 0,7,8
 201 -202 201 -202 231.5 -209 c 128,-1,9
 262 -216 262 -216 300.5 -222.5 c 128,-1,10
 339 -229 339 -229 379 -229 c 0,11,12
 428 -229 428 -229 461.5 -212 c 128,-1,13
 495 -195 495 -195 521 -159 c 128,-1,14
 547 -123 547 -123 573 -67 c 2,15,-1
 590 -27 l 1,16,-1
 139 920 l 1,17,-1
 9 973 l 1,18,-1
 9 1071 l 1,19,-1
 601 1071 l 1,20,-1
 601 971 l 1,21,-1
 481 934 l 1,22,-1
 743 344 l 1,23,-1
 948 933 l 1,24,-1
 835 971 l 1,25,-1
 835 1071 l 1,26,-1
 1252 1071 l 1,27,-1
 1252 971 l 1,28,-1
 1147 935 l 1,29,-1
 723 -162 l 2,30,31
 673 -292 673 -292 615 -370 c 128,-1,32
 557 -448 557 -448 484 -483.5 c 128,-1,33
 411 -519 411 -519 316 -519 c 0,0,1
EndSplineSet
EndChar

StartChar: z
Encoding: 122 122 93
Width: 1089
GlyphClass: 2
Flags: MW
AnchorPoint: "Anchor-4" 543 0 basechar 0
AnchorPoint: "Anchor-0" 564 1071 basechar 0
LayerCount: 2
Fore
SplineSet
92 0 m 1,0,-1
 92 125 l 1,1,-1
 613 891 l 1,2,-1
 273 889 l 1,3,-1
 183 692 l 1,4,-1
 73 692 l 1,5,-1
 118 1070.90039062 l 1,6,-1
 196 1070.90039062 l 1,7,-1
 261 1071 l 1,8,-1
 991 1071 l 1,9,-1
 991 947 l 1,10,-1
 463 181 l 1,11,-1
 798 184 l 1,12,-1
 938 419 l 1,13,-1
 1042 419 l 1,14,-1
 955 0 l 1,15,-1
 92 0 l 1,0,-1
EndSplineSet
EndChar

StartChar: braceleft
Encoding: 123 123 94
Width: 734
GlyphClass: 1
Flags: MW
LayerCount: 2
Fore
SplineSet
54 540 m 1,0,-1
 54 678 l 1,1,-1
 124 681 l 2,2,3
 194 684 194 684 223.5 713 c 128,-1,4
 253 742 253 742 253 806 c 0,5,6
 253 867 253 867 239.5 927.5 c 128,-1,7
 226 988 226 988 213 1050 c 128,-1,8
 200 1112 200 1112 200 1176 c 0,9,10
 200 1246 200 1246 233.5 1307 c 128,-1,11
 267 1368 267 1368 336.5 1410 c 128,-1,12
 406 1452 406 1452 511 1460 c 2,13,-1
 661 1472 l 1,14,15
 660 1472 660 1472 674 1330 c 1,16,-1
 598 1320 l 2,17,18
 525 1310 525 1310 498 1268.5 c 128,-1,19
 471 1227 471 1227 471 1157 c 0,20,21
 471 1082 471 1082 480 1004 c 128,-1,22
 489 926 489 926 489 850 c 0,23,24
 489 746 489 746 430 680 c 0,25,26
 391 637 391 637 322 609 c 1,27,28
 392 582 392 582 430 540 c 0,29,30
 489 473 489 473 489 369 c 0,31,32
 489 293 489 293 480 214.5 c 128,-1,33
 471 136 471 136 471 62 c 0,34,35
 471 -8 471 -8 498 -50 c 0,36,37
 524 -91 524 -91 598 -101 c 2,38,-1
 674 -112 l 1,39,-1
 661 -253 l 1,40,-1
 511 -241 l 2,41,42
 406 -232 406 -232 336.5 -191 c 128,-1,43
 267 -150 267 -150 233.5 -88.5 c 128,-1,44
 200 -27 200 -27 200 42 c 0,45,46
 200 107 200 107 213 169 c 128,-1,47
 226 231 226 231 239.5 291.5 c 128,-1,48
 253 352 253 352 253 413 c 0,49,50
 253 477 253 477 223.5 506.5 c 128,-1,51
 194 536 194 536 124 538 c 2,52,-1
 54 540 l 1,0,-1
EndSplineSet
Substitution2: "'case' Case-Sensitive Forms in Latin lookup 9 subtable" braceleft.case
EndChar

StartChar: bar
Encoding: 124 124 95
Width: 564
GlyphClass: 1
Flags: MW
LayerCount: 2
Fore
SplineSet
184 -481 m 1,0,-1
 184 1519 l 1,1,-1
 380 1519 l 1,2,-1
 380 -481 l 1,3,-1
 184 -481 l 1,0,-1
EndSplineSet
EndChar

StartChar: braceright
Encoding: 125 125 96
Width: 734
GlyphClass: 1
Flags: MW
LayerCount: 2
Fore
SplineSet
680 679 m 1,0,-1
 680 541 l 1,1,-1
 611 538 l 2,2,3
 542 536 542 536 512 506.5 c 128,-1,4
 482 477 482 477 482 413 c 0,5,6
 482 352 482 352 495 291.5 c 128,-1,7
 508 231 508 231 521.5 169.5 c 128,-1,8
 535 108 535 108 535 43 c 0,9,10
 535 -26 535 -26 501 -87.5 c 128,-1,11
 467 -149 467 -149 398.5 -190.5 c 128,-1,12
 330 -232 330 -232 223 -241 c 2,13,-1
 73 -253 l 1,14,-1
 60 -112 l 1,15,-1
 136 -101 l 2,16,17
 209 -91 209 -91 236 -49.5 c 128,-1,18
 263 -8 263 -8 263 62 c 0,19,20
 263 136 263 136 254 214.5 c 128,-1,21
 245 293 245 293 245 369 c 0,22,23
 245 474 245 474 305 540 c 0,24,25
 343 583 343 583 413 610 c 1,26,27
 343 637 343 637 305 680 c 0,28,29
 245 746 245 746 245 850 c 0,30,31
 245 926 245 926 254 1004.5 c 128,-1,32
 263 1083 263 1083 263 1157 c 0,33,34
 263 1227 263 1227 236 1268.5 c 128,-1,35
 209 1310 209 1310 136 1320 c 2,36,-1
 60 1331 l 1,37,-1
 73 1472 l 1,38,-1
 223 1460 l 2,39,40
 329 1452 329 1452 398 1410 c 128,-1,41
 467 1368 467 1368 501 1307 c 128,-1,42
 535 1246 535 1246 535 1177 c 0,43,44
 535 1112 535 1112 521.5 1050 c 128,-1,45
 508 988 508 988 495 927.5 c 128,-1,46
 482 867 482 867 482 806 c 0,47,48
 482 742 482 742 512 713 c 128,-1,49
 542 684 542 684 611 681 c 2,50,-1
 680 679 l 1,0,-1
EndSplineSet
Substitution2: "'case' Case-Sensitive Forms in Latin lookup 9 subtable" braceright.case
EndChar

StartChar: asciitilde
Encoding: 126 126 97
Width: 1049
GlyphClass: 1
Flags: MW
LayerCount: 2
Fore
SplineSet
118 340 m 1,0,1
 118 455 118 455 144.5 527.5 c 128,-1,2
 171 600 171 600 222.5 633.5 c 128,-1,3
 274 667 274 667 347 667 c 0,4,5
 411 667 411 667 455.5 645.5 c 128,-1,6
 500 624 500 624 534 595.5 c 128,-1,7
 568 567 568 567 598 545 c 128,-1,8
 628 523 628 523 660 523 c 0,9,10
 708 523 708 523 729 554 c 128,-1,11
 750 585 750 585 752 657 c 1,12,-1
 934 657 l 1,13,14
 934 542 934 542 907.5 469.5 c 128,-1,15
 881 397 881 397 829.5 363 c 128,-1,16
 778 329 778 329 705 329 c 0,17,18
 641 329 641 329 596.5 351 c 128,-1,19
 552 373 552 373 518 401.5 c 128,-1,20
 484 430 484 430 454 452 c 128,-1,21
 424 474 424 474 391 474 c 0,22,23
 343 474 343 474 323 442.5 c 128,-1,24
 303 411 303 411 299 340 c 1,25,-1
 118 340 l 1,0,1
EndSplineSet
EndChar

StartChar: exclamdown
Encoding: 161 161 99
Width: 613
GlyphClass: 1
Flags: MW
LayerCount: 2
Fore
SplineSet
307 647 m 128,-1,1
 220 647 220 647 169.5 694.5 c 128,-1,2
 119 742 119 742 119 826 c 0,3,4
 119 911 119 911 169 959.5 c 128,-1,5
 219 1008 219 1008 307 1008 c 0,6,7
 394 1008 394 1008 444 959.5 c 128,-1,8
 494 911 494 911 494 826 c 0,9,10
 494 742 494 742 444 694.5 c 128,-1,0
 394 647 394 647 307 647 c 128,-1,1
120 -341 m 2,11,-1
 122 -260 l 2,12,13
 123 -237 123 -237 128 -191.5 c 128,-1,14
 133 -146 133 -146 142 -84.5 c 128,-1,15
 151 -23 151 -23 161.5 49.5 c 128,-1,16
 172 122 172 122 183 199 c 128,-1,17
 194 276 194 276 205 352.5 c 128,-1,18
 216 429 216 429 223 498 c 1,19,-1
 390 498 l 1,20,21
 399 429 399 429 409 352.5 c 128,-1,22
 419 276 419 276 430.5 199 c 128,-1,23
 442 122 442 122 452.5 49.5 c 128,-1,24
 463 -23 463 -23 471.5 -84.5 c 128,-1,25
 480 -146 480 -146 485 -191.5 c 128,-1,26
 490 -237 490 -237 491 -260 c 2,27,-1
 494 -341 l 2,28,29
 495 -370 495 -370 479.5 -390 c 128,-1,30
 464 -410 464 -410 423 -420 c 128,-1,31
 382 -430 382 -430 307 -430 c 128,-1,32
 232 -430 232 -430 191 -420 c 128,-1,33
 150 -410 150 -410 134.5 -390 c 128,-1,34
 119 -370 119 -370 120 -341 c 2,11,-1
EndSplineSet
Substitution2: "'case' Case-Sensitive Forms in Latin lookup 9 subtable" exclamdown.case
EndChar

StartChar: currency
Encoding: 164 164 102
Width: 1046
GlyphClass: 1
Flags: MW
LayerCount: 2
Fore
SplineSet
923 205 m 1,0,-1
 802 77 l 1,1,-1
 696 188 l 1,2,3
 622 147 622 147 523 147 c 256,4,5
 424 147 424 147 351 188 c 1,6,-1
 245 77 l 1,7,-1
 124 205 l 1,8,-1
 227 314 l 1,9,10
 185 393 185 393 185 499 c 0,11,12
 185 604 185 604 227 682 c 1,13,-1
 124 791 l 1,14,-1
 245 919 l 1,15,-1
 350 809 l 1,16,17
 424 850 424 850 523 850 c 128,-1,18
 622 850 622 850 697 808 c 1,19,-1
 802 919 l 1,20,-1
 923 791 l 2,21,22
 924 791 924 791 820 682 c 1,23,24
 862 603 862 603 862 499 c 0,25,26
 862 393 862 393 820 314 c 1,27,-1
 923 205 l 1,0,-1
523 304 m 128,-1,29
 605 304 605 304 656 357.5 c 128,-1,30
 707 411 707 411 707 499 c 0,31,32
 707 586 707 586 656 639.5 c 128,-1,33
 605 693 605 693 523 693 c 128,-1,34
 441 693 441 693 390.5 639.5 c 128,-1,35
 340 586 340 586 340 499 c 0,36,37
 340 411 340 411 390.5 357.5 c 128,-1,28
 441 304 441 304 523 304 c 128,-1,29
EndSplineSet
EndChar

StartChar: brokenbar
Encoding: 166 166 104
Width: 564
GlyphClass: 1
Flags: MW
LayerCount: 2
Fore
SplineSet
184 -481 m 1,0,-1
 184 320 l 1,1,-1
 380 320 l 1,2,-1
 380 -481 l 1,3,-1
 184 -481 l 1,0,-1
380 735 m 1,4,-1
 184 735 l 1,5,-1
 184 1519 l 1,6,-1
 380 1519 l 1,7,-1
 380 735 l 1,4,-1
EndSplineSet
EndChar

StartChar: section
Encoding: 167 167 105
Width: 1288
GlyphClass: 1
Flags: MW
LayerCount: 2
Fore
SplineSet
919 568 m 0,0,1
 919 626 919 626 879 657 c 128,-1,2
 839 688 839 688 773.5 704 c 128,-1,3
 708 720 708 720 630 732 c 0,4,5
 572 741 572 741 515 753 c 1,6,7
 462 740 462 740 429 716 c 0,8,9
 369 675 369 675 369 601 c 0,10,11
 369 544 369 544 408.5 512.5 c 128,-1,12
 448 481 448 481 514 465 c 128,-1,13
 580 449 580 449 658 436 c 0,14,15
 714 427 714 427 771 415 c 1,16,17
 825 428 825 428 858 452 c 0,18,19
 919 494 919 494 919 568 c 0,0,1
578 -254 m 0,20,21
 419 -254 419 -254 332 -231 c 128,-1,22
 245 -208 245 -208 210.5 -167 c 128,-1,23
 176 -126 176 -126 176 -73 c 0,24,25
 176 -17 176 -17 214 18 c 128,-1,26
 252 53 252 53 306 53 c 0,27,28
 324 53 324 53 347.5 30 c 128,-1,29
 371 7 371 7 406 -23 c 128,-1,30
 441 -53 441 -53 492.5 -75.5 c 128,-1,31
 544 -98 544 -98 618 -98 c 0,32,33
 727 -98 727 -98 774 -68 c 128,-1,34
 821 -38 821 -38 821 15 c 0,35,36
 821 67 821 67 781 96 c 128,-1,37
 741 125 741 125 675.5 141 c 128,-1,38
 610 157 610 157 532 170 c 128,-1,39
 454 183 454 183 375.5 201.5 c 128,-1,40
 297 220 297 220 232 253 c 128,-1,41
 167 286 167 286 127 343 c 128,-1,42
 87 400 87 400 87 491 c 0,43,44
 87 644 87 644 184 724 c 0,45,46
 248 778 248 778 360 801 c 1,47,48
 344 808 344 808 328 816 c 0,49,50
 263 852 263 852 223 915.5 c 128,-1,51
 183 979 183 979 183 1081 c 0,52,53
 183 1182 183 1182 235 1258.5 c 128,-1,54
 287 1335 287 1335 403.5 1378 c 128,-1,55
 520 1421 520 1421 712 1421 c 0,56,57
 872 1421 872 1421 958.5 1398 c 128,-1,58
 1045 1375 1045 1375 1079 1334.5 c 128,-1,59
 1113 1294 1113 1294 1113 1240 c 0,60,61
 1113 1184 1113 1184 1075.5 1149 c 128,-1,62
 1038 1114 1038 1114 983 1114 c 0,63,64
 966 1114 966 1114 942.5 1137 c 128,-1,65
 919 1160 919 1160 883.5 1189.5 c 128,-1,66
 848 1219 848 1219 797 1242 c 128,-1,67
 746 1265 746 1265 672 1265 c 0,68,69
 561 1265 561 1265 514 1235 c 128,-1,70
 467 1205 467 1205 467 1152 c 0,71,72
 467 1101 467 1101 507 1072 c 128,-1,73
 547 1043 547 1043 612 1027 c 128,-1,74
 677 1011 677 1011 755.5 998.5 c 128,-1,75
 834 986 834 986 912 967.5 c 128,-1,76
 990 949 990 949 1055.5 916 c 128,-1,77
 1121 883 1121 883 1160.5 826 c 128,-1,78
 1200 769 1200 769 1200 678 c 0,79,80
 1200 523 1200 523 1102 443 c 0,81,82
 1037 390 1037 390 926 368 c 1,83,84
 943 360 943 360 958 352 c 0,85,86
 1024 316 1024 316 1064 253 c 128,-1,87
 1104 190 1104 190 1104 87 c 0,88,89
 1104 -14 1104 -14 1052.5 -91 c 128,-1,90
 1001 -168 1001 -168 886 -211 c 128,-1,91
 771 -254 771 -254 578 -254 c 0,20,21
EndSplineSet
EndChar

StartChar: copyright
Encoding: 169 169 107
Width: 1612
GlyphClass: 1
Flags: MW
LayerCount: 2
Fore
SplineSet
902 420 m 0,0,1
 938 420 938 420 978 428 c 0,2,3
 991 430 991 430 1003 434 c 1,4,-1
 1068 575 l 1,5,-1
 1142 575 l 1,6,-1
 1109 337 l 1,7,8
 1050 317 1050 317 988 307 c 128,-1,9
 926 297 926 297 856 297 c 0,10,11
 710 297 710 297 611.5 340.5 c 128,-1,12
 513 384 513 384 463 471.5 c 128,-1,13
 413 559 413 559 413 691 c 0,14,15
 413 816 413 816 463 910 c 128,-1,16
 513 1004 513 1004 612 1056.5 c 128,-1,17
 711 1109 711 1109 857 1109 c 0,18,19
 910 1109 910 1109 961 1100 c 0,20,21
 995 1095 995 1095 1029 1086 c 1,22,-1
 1065 1128 l 1,23,-1
 1126 1128 l 1,24,-1
 1135 813 l 1,25,-1
 1056 811 l 1,26,-1
 1004 954 l 1,27,28
 985 963 985 963 966 968 c 0,29,30
 922 980 922 980 869 980 c 0,31,32
 761 980 761 980 705 918 c 128,-1,33
 649 856 649 856 649 709 c 0,34,35
 649 610 649 610 678.5 546 c 128,-1,36
 708 482 708 482 764.5 451 c 128,-1,37
 821 420 821 420 902 420 c 0,0,1
806 1310 m 0,38,39
 627 1310 627 1310 498.5 1237.5 c 128,-1,40
 370 1165 370 1165 301 1028 c 128,-1,41
 232 891 232 891 232 698 c 0,42,43
 232 504 232 504 301 367.5 c 128,-1,44
 370 231 370 231 498.5 158.5 c 128,-1,45
 627 86 627 86 806 86 c 0,46,47
 986 86 986 86 1114.5 158.5 c 128,-1,48
 1243 231 1243 231 1312 367.5 c 128,-1,49
 1381 504 1381 504 1381 698 c 0,50,51
 1381 891 1381 891 1312 1028 c 128,-1,52
 1243 1165 1243 1165 1114.5 1237.5 c 128,-1,53
 986 1310 986 1310 806 1310 c 0,38,39
806 1421 m 128,-1,55
 968 1421 968 1421 1096.5 1372 c 128,-1,56
 1225 1323 1225 1323 1315 1229 c 128,-1,57
 1405 1135 1405 1135 1452.5 1001.5 c 128,-1,58
 1500 868 1500 868 1500 698 c 128,-1,59
 1500 528 1500 528 1452.5 394 c 128,-1,60
 1405 260 1405 260 1315 166.5 c 128,-1,61
 1225 73 1225 73 1096.5 24 c 128,-1,62
 968 -25 968 -25 806 -25 c 128,-1,63
 644 -25 644 -25 516 24 c 128,-1,64
 388 73 388 73 297.5 166.5 c 128,-1,65
 207 260 207 260 159.5 394 c 128,-1,66
 112 528 112 528 112 698 c 128,-1,67
 112 868 112 868 159.5 1001.5 c 128,-1,68
 207 1135 207 1135 297.5 1229 c 128,-1,69
 388 1323 388 1323 516 1372 c 128,-1,54
 644 1421 644 1421 806 1421 c 128,-1,55
EndSplineSet
EndChar

StartChar: ordfeminine
Encoding: 170 170 108
Width: 1000
GlyphClass: 1
Flags: MW
LayerCount: 2
Fore
SplineSet
137 492 m 1,0,-1
 137 661 l 1,1,-1
 883 661 l 1,2,-1
 883 492 l 1,3,-1
 137 492 l 1,0,-1
560 965 m 1,4,5
 536 878 536 878 492 836 c 0,6,7
 441 787 441 787 349 787 c 0,8,9
 244 787 244 787 188.5 836.5 c 128,-1,10
 133 886 133 886 133 983 c 0,11,12
 133 1037 133 1037 152 1077 c 128,-1,13
 171 1117 171 1117 219 1148 c 128,-1,14
 267 1179 267 1179 354 1205 c 0,15,16
 432 1228 432 1228 550 1250 c 1,17,-1
 550 1287 l 2,18,19
 550 1349 550 1349 523.5 1379.5 c 128,-1,20
 497 1410 497 1410 430 1410 c 0,21,22
 401 1410 401 1410 374 1406 c 0,23,24
 364 1405 364 1405 353 1403 c 1,25,26
 350 1393 350 1393 348 1384 c 0,27,28
 339 1351 339 1351 326 1329 c 0,29,30
 311 1305 311 1305 290 1294 c 128,-1,31
 269 1283 269 1283 226 1283 c 0,32,33
 186 1283 186 1283 164.5 1298 c 128,-1,34
 143 1313 143 1313 143 1340 c 0,35,36
 143 1386 143 1386 198 1430.5 c 128,-1,37
 253 1475 253 1475 339.5 1504.5 c 128,-1,38
 426 1534 426 1534 522 1534 c 0,39,40
 620 1534 620 1534 677.5 1507 c 128,-1,41
 735 1480 735 1480 761 1424.5 c 128,-1,42
 787 1369 787 1369 787 1286 c 2,43,-1
 787 983 l 2,44,45
 787 946 787 946 798 932 c 128,-1,46
 809 918 809 918 836 918 c 0,47,48
 846 918 846 918 858 920 c 128,-1,49
 870 922 870 922 888 928 c 1,50,-1
 888 841 l 1,51,52
 843 815 843 815 801 802 c 128,-1,53
 759 789 759 789 716 789 c 0,54,55
 638 789 638 789 600 839 c 0,56,57
 567 882 567 882 560 965 c 1,4,5
550 1145 m 1,58,59
 503 1137 503 1137 470 1128 c 0,60,61
 427 1117 427 1117 403.5 1102.5 c 128,-1,62
 380 1088 380 1088 371 1069.5 c 128,-1,63
 362 1051 362 1051 362 1026 c 0,64,65
 362 982 362 982 382.5 962.5 c 128,-1,66
 403 943 403 943 451 943 c 0,67,68
 500 943 500 943 525 970 c 128,-1,69
 550 997 550 997 550 1039 c 2,70,-1
 550 1145 l 1,58,59
EndSplineSet
EndChar

StartChar: guillemotleft
Encoding: 171 171 109
Width: 1227
GlyphClass: 1
Flags: MW
LayerCount: 2
Fore
SplineSet
911 500 m 1,0,-1
 1146 120 l 1,1,-1
 1032 12 l 1,2,-1
 603 412 l 1,3,-1
 603 588 l 1,4,-1
 1032 988 l 1,5,-1
 1146 880 l 1,6,-1
 911 500 l 1,0,-1
384 500 m 1,7,-1
 618 120 l 1,8,-1
 504 12 l 1,9,-1
 76 412 l 1,10,-1
 76 588 l 1,11,-1
 504 988 l 1,12,-1
 618 880 l 1,13,-1
 384 500 l 1,7,-1
EndSplineSet
Substitution2: "'case' Case-Sensitive Forms in Latin lookup 9 subtable" guillemotleft.case
EndChar

StartChar: logicalnot
Encoding: 172 172 110
Width: 1049
GlyphClass: 1
Flags: MW
LayerCount: 2
Fore
SplineSet
102 781 m 1,0,-1
 933 781 l 1,1,-1
 933 711 l 1,2,-1
 933 589 l 1,3,-1
 933 213 l 1,4,5
 932 213 932 213 750 213 c 1,6,-1
 750 589 l 1,7,-1
 102 589 l 1,8,-1
 102 781 l 1,0,-1
EndSplineSet
EndChar

StartChar: registered
Encoding: 174 174 112
Width: 1143
GlyphClass: 1
Flags: MW
LayerCount: 2
Fore
SplineSet
401 1151 m 1,0,-1
 350 1165 l 1,1,-1
 350 1204 l 1,2,-1
 462 1204 l 1,3,-1
 536 1204 l 1,4,-1
 639 1204 l 2,5,6
 719 1204 719 1204 754 1175.5 c 128,-1,7
 789 1147 789 1147 789 1091 c 0,8,9
 789 1040 789 1040 760 1010 c 0,10,11
 733 982 733 982 681 976 c 1,12,13
 721 973 721 973 740 958 c 0,14,15
 761 940 761 940 766 901 c 2,16,-1
 775 850 l 2,17,18
 779 823 779 823 787.5 815.5 c 128,-1,19
 796 808 796 808 821 808 c 1,20,-1
 821 758 l 1,21,22
 753 752 753 752 715 755 c 128,-1,23
 677 758 677 758 661.5 775 c 128,-1,24
 646 792 646 792 640 825 c 2,25,-1
 630 894 l 2,26,27
 624 925 624 925 613 934 c 128,-1,28
 602 943 602 943 571 943 c 2,29,-1
 536 943 l 1,30,-1
 536 812 l 1,31,-1
 578 796 l 1,32,-1
 578 757 l 1,33,-1
 350 757 l 1,34,-1
 350 796 l 1,35,-1
 401 812 l 1,36,-1
 401 1151 l 1,0,-1
570 1328 m 128,-1,38
 450 1328 450 1328 371.5 1285.5 c 128,-1,39
 293 1243 293 1243 254.5 1162.5 c 128,-1,40
 216 1082 216 1082 216 967 c 0,41,42
 216 854 216 854 254.5 773 c 128,-1,43
 293 692 293 692 371.5 649.5 c 128,-1,44
 450 607 450 607 570 607 c 128,-1,45
 690 607 690 607 769.5 649.5 c 128,-1,46
 849 692 849 692 888.5 773 c 128,-1,47
 928 854 928 854 928 967 c 0,48,49
 928 1082 928 1082 888.5 1162.5 c 128,-1,50
 849 1243 849 1243 769.5 1285.5 c 128,-1,37
 690 1328 690 1328 570 1328 c 128,-1,38
570 1421 m 0,51,52
 714 1421 714 1421 817.5 1367 c 128,-1,53
 921 1313 921 1313 976 1211.5 c 128,-1,54
 1031 1110 1031 1110 1031 967 c 0,55,56
 1031 826 1031 826 976 724 c 128,-1,57
 921 622 921 622 817.5 568 c 128,-1,58
 714 514 714 514 570 514 c 0,59,60
 427 514 427 514 324.5 568 c 128,-1,61
 222 622 222 622 167.5 724 c 128,-1,62
 113 826 113 826 113 967 c 0,63,64
 113 1110 113 1110 167.5 1211.5 c 128,-1,65
 222 1313 222 1313 324.5 1367 c 128,-1,66
 427 1421 427 1421 570 1421 c 0,51,52
536 1126 m 1,67,-1
 536 1006 l 1,68,-1
 599 1006 l 2,69,70
 629 1006 629 1006 643.5 1020.5 c 128,-1,71
 658 1035 658 1035 658 1067 c 0,72,73
 658 1098 658 1098 645 1112 c 128,-1,74
 632 1126 632 1126 598 1126 c 2,75,-1
 536 1126 l 1,67,-1
EndSplineSet
EndChar

StartChar: degree
Encoding: 176 176 114
Width: 726
GlyphClass: 1
Flags: MW
LayerCount: 2
Fore
SplineSet
363 948 m 0,0,1
 432 948 432 948 476 994.5 c 128,-1,2
 520 1041 520 1041 520 1117 c 0,3,4
 520 1194 520 1194 476 1240.5 c 128,-1,5
 432 1287 432 1287 363 1287 c 0,6,7
 295 1287 295 1287 250.5 1240.5 c 128,-1,8
 206 1194 206 1194 206 1117 c 0,9,10
 206 1041 206 1041 250.5 994.5 c 128,-1,11
 295 948 295 948 363 948 c 0,0,1
364 1414 m 128,-1,13
 488 1414 488 1414 568 1331.5 c 128,-1,14
 648 1249 648 1249 648 1118 c 0,15,16
 648 986 648 986 567.5 903.5 c 128,-1,17
 487 821 487 821 363 821 c 128,-1,18
 239 821 239 821 159 903.5 c 128,-1,19
 79 986 79 986 79 1118 c 0,20,21
 79 1249 79 1249 159.5 1331.5 c 128,-1,12
 240 1414 240 1414 364 1414 c 128,-1,13
EndSplineSet
EndChar

StartChar: plusminus
Encoding: 177 177 115
Width: 1049
GlyphClass: 1
Flags: MW
LayerCount: 2
Fore
SplineSet
434 995 m 1,0,-1
 617 995 l 1,1,-1
 617 662 l 1,2,-1
 933 662 l 1,3,-1
 933 470 l 1,4,-1
 617 470 l 1,5,-1
 617 192 l 1,6,-1
 933 192 l 1,7,-1
 933 0 l 1,8,-1
 118 0 l 1,9,-1
 118 192 l 1,10,-1
 434 192 l 1,11,-1
 434 470 l 1,12,-1
 118 470 l 1,13,-1
 118 662 l 1,14,-1
 434 662 l 1,15,-1
 434 995 l 1,0,-1
EndSplineSet
EndChar

StartChar: uni00B2
Encoding: 178 178 116
Width: 773
GlyphClass: 1
Flags: MW
LayerCount: 2
Fore
SplineSet
239 783 m 1,0,-1
 239 783 l 1,1,2
 239 783 239 783 239 783 c 1,0,-1
320 839 m 1,3,-1
 580 839 l 1,4,-1
 642 930 l 1,5,-1
 716 930 l 1,6,-1
 659 611 l 1,7,-1
 606 611 l 1,8,-1
 560 645 l 1,9,-1
 86 645 l 1,10,-1
 86 754 l 1,11,-1
 260 910 l 2,12,13
 325 966 325 966 360 1004.5 c 128,-1,14
 395 1043 395 1043 409.5 1074 c 128,-1,15
 424 1105 424 1105 424 1140 c 0,16,17
 424 1186 424 1186 393.5 1212.5 c 128,-1,18
 363 1239 363 1239 304 1239 c 0,19,20
 243 1239 243 1239 206.5 1206.5 c 128,-1,21
 170 1174 170 1174 142 1105 c 1,22,-1
 52 1144 l 1,23,24
 92 1285 92 1285 172.5 1349.5 c 128,-1,25
 253 1414 253 1414 386 1414 c 0,26,27
 514 1414 514 1414 585.5 1359.5 c 128,-1,28
 657 1305 657 1305 657 1200 c 0,29,30
 657 1145 657 1145 635.5 1099.5 c 128,-1,31
 614 1054 614 1054 554.5 1003.5 c 128,-1,32
 495 953 495 953 383 882 c 1,33,-1
 320 839 l 1,3,-1
EndSplineSet
EndChar

StartChar: uni00B3
Encoding: 179 179 117
Width: 738
GlyphClass: 1
Flags: MW
LayerCount: 2
Fore
SplineSet
283 629 m 0,0,1
 156 629 156 629 108 663 c 128,-1,2
 60 697 60 697 60 741 c 0,3,4
 60 777 60 777 81 800 c 128,-1,5
 102 823 102 823 140 823 c 0,6,7
 150 823 150 823 164 810 c 128,-1,8
 178 797 178 797 198 780.5 c 128,-1,9
 218 764 218 764 245.5 751 c 128,-1,10
 273 738 273 738 311 738 c 0,11,12
 375 738 375 738 414 767 c 128,-1,13
 453 796 453 796 453 866 c 0,14,15
 453 907 453 907 437 931.5 c 128,-1,16
 421 956 421 956 384 964.5 c 128,-1,17
 347 973 347 973 282 965 c 2,18,-1
 243 960 l 1,19,-1
 232 1053 l 1,20,21
 338 1072 338 1072 371.5 1100.5 c 128,-1,22
 405 1129 405 1129 405 1178 c 0,23,24
 405 1216 405 1216 381 1239 c 128,-1,25
 357 1262 357 1262 307 1262 c 0,26,27
 251 1262 251 1262 213 1231.5 c 128,-1,28
 175 1201 175 1201 151 1144 c 1,29,-1
 68 1185 l 1,30,31
 107 1300 107 1300 179.5 1357.5 c 128,-1,32
 252 1415 252 1415 385 1415 c 0,33,34
 508 1415 508 1415 565 1372.5 c 128,-1,35
 622 1330 622 1330 622 1253 c 0,36,37
 622 1185 622 1185 570 1137 c 0,38,39
 532 1102 532 1102 462 1085 c 1,40,41
 509 1085 509 1085 546 1074 c 0,42,43
 609 1055 609 1055 642 1011.5 c 128,-1,44
 675 968 675 968 675 901 c 0,45,46
 675 819 675 819 634.5 757.5 c 128,-1,47
 594 696 594 696 507 662.5 c 128,-1,48
 420 629 420 629 283 629 c 0,0,1
EndSplineSet
EndChar

StartChar: uni00B5
Encoding: 181 181 119
Width: 1361
GlyphClass: 1
Flags: MW
LayerCount: 2
Fore
SplineSet
1140 259 m 2,0,1
 1140 224 1140 224 1149.5 204 c 128,-1,2
 1159 184 1159 184 1178 175 c 128,-1,3
 1197 166 1197 166 1224 166 c 0,4,5
 1243 166 1243 166 1263 170 c 128,-1,6
 1283 174 1283 174 1308 180 c 1,7,-1
 1308 71 l 1,8,9
 1253 27 1253 27 1187.5 1 c 128,-1,10
 1122 -25 1122 -25 1056 -25 c 0,11,12
 943 -25 943 -25 883 54 c 0,13,14
 849 99 849 99 834 166 c 1,15,16
 786 118 786 118 750 86 c 0,17,18
 699 41 699 41 663 19 c 128,-1,19
 627 -3 627 -3 596.5 -10.5 c 128,-1,20
 566 -18 566 -18 533 -18 c 0,21,22
 480 -18 480 -18 441 0.5 c 128,-1,23
 402 19 402 19 377 59 c 0,24,25
 377 60 377 60 376 60 c 1,26,-1
 476 -486 l 1,27,-1
 233 -513 l 1,28,-1
 187 -513 l 1,29,-1
 187 1071 l 1,30,31
 188 1071 188 1071 504 1071 c 1,32,-1
 504 388 l 2,33,34
 504 337 504 337 518.5 305.5 c 128,-1,35
 533 274 533 274 566.5 260 c 128,-1,36
 600 246 600 246 656 246 c 0,37,38
 703 246 703 246 756 258 c 0,39,40
 791 265 791 265 823 276 c 0,41,42
 823 278 823 278 823 281 c 2,43,-1
 823 1071 l 1,44,-1
 1140 1071 l 1,45,-1
 1140 259 l 2,0,1
EndSplineSet
EndChar

StartChar: paragraph
Encoding: 182 182 120
Width: 1310
GlyphClass: 1
Flags: MW
LayerCount: 2
Fore
SplineSet
1061 -228 m 1,0,-1
 912 -228 l 1,1,-1
 912 1261 l 1,2,-1
 760 1261 l 1,3,-1
 760 -228 l 1,4,-1
 612 -228 l 1,5,-1
 612 649 l 1,6,-1
 443 649 l 2,7,8
 313 649 313 649 227.5 692 c 128,-1,9
 142 735 142 735 99 817 c 128,-1,10
 56 899 56 899 56 1017 c 128,-1,11
 56 1135 56 1135 99 1220 c 128,-1,12
 142 1305 142 1305 230.5 1350.5 c 128,-1,13
 319 1396 319 1396 458 1396 c 2,14,-1
 612 1396 l 1,15,-1
 711 1396 l 1,16,-1
 912 1396 l 1,17,-1
 978 1396 l 1,18,-1
 1233 1396 l 1,19,-1
 1233 1305 l 1,20,-1
 1061 1264 l 1,21,-1
 1061 -228 l 1,0,-1
EndSplineSet
EndChar

StartChar: uni00B9
Encoding: 185 185 123
Width: 634
GlyphClass: 1
Flags: MW
LayerCount: 2
Fore
SplineSet
238 1214 m 1,0,-1
 66 1155 l 1,1,-1
 34 1245 l 1,2,-1
 308 1396 l 1,3,-1
 470 1396 l 1,4,-1
 470 751 l 1,5,-1
 580 721 l 1,6,-1
 580 645 l 1,7,-1
 116 645 l 1,8,-1
 116 721 l 1,9,-1
 238 751 l 1,10,-1
 238 1214 l 1,0,-1
EndSplineSet
EndChar

StartChar: ordmasculine
Encoding: 186 186 124
Width: 1017
GlyphClass: 1
Flags: MW
LayerCount: 2
Fore
SplineSet
500 787 m 0,0,1
 379 787 379 787 296.5 830 c 128,-1,2
 214 873 214 873 170 955 c 128,-1,3
 126 1037 126 1037 126 1156 c 0,4,5
 126 1278 126 1278 172 1362 c 128,-1,6
 218 1446 218 1446 305 1490 c 128,-1,7
 392 1534 392 1534 518 1534 c 0,8,9
 639 1534 639 1534 722.5 1491 c 128,-1,10
 806 1448 806 1448 848.5 1366 c 128,-1,11
 891 1284 891 1284 891 1165 c 0,12,13
 891 1043 891 1043 846 958.5 c 128,-1,14
 801 874 801 874 713.5 830.5 c 128,-1,15
 626 787 626 787 500 787 c 0,0,1
507 945 m 0,16,17
 580 945 580 945 617 992.5 c 128,-1,18
 654 1040 654 1040 654 1148 c 0,19,20
 654 1264 654 1264 618.5 1319.5 c 128,-1,21
 583 1375 583 1375 511 1375 c 128,-1,22
 439 1375 439 1375 402 1327.5 c 128,-1,23
 365 1280 365 1280 365 1172 c 0,24,25
 365 1056 365 1056 400 1000.5 c 128,-1,26
 435 945 435 945 507 945 c 0,16,17
140 492 m 1,27,-1
 140 662 l 1,28,-1
 878 662 l 1,29,-1
 878 492 l 1,30,-1
 140 492 l 1,27,-1
EndSplineSet
EndChar

StartChar: guillemotright
Encoding: 187 187 125
Width: 1255
GlyphClass: 1
Flags: MW
LayerCount: 2
Fore
SplineSet
853 500 m 1,0,-1
 619 880 l 1,1,-1
 732 988 l 1,2,-1
 1162 588 l 1,3,-1
 1162 412 l 1,4,-1
 732 12 l 1,5,-1
 619 120 l 1,6,-1
 853 500 l 1,0,-1
326 500 m 1,7,-1
 91 880 l 1,8,-1
 205 988 l 1,9,-1
 634 588 l 1,10,-1
 634 412 l 1,11,-1
 205 12 l 1,12,-1
 91 120 l 1,13,-1
 326 500 l 1,7,-1
EndSplineSet
Substitution2: "'case' Case-Sensitive Forms in Latin lookup 9 subtable" guillemotright.case
EndChar

StartChar: questiondown
Encoding: 191 191 129
Width: 1187
GlyphClass: 1
Flags: MW
LayerCount: 2
Fore
SplineSet
640 647 m 0,0,1
 554 647 554 647 503.5 694.5 c 128,-1,2
 453 742 453 742 453 826 c 0,3,4
 453 911 453 911 503.5 959.5 c 128,-1,5
 554 1008 554 1008 640 1008 c 0,6,7
 727 1008 727 1008 777.5 959.5 c 128,-1,8
 828 911 828 911 828 826 c 0,9,10
 828 742 828 742 777.5 694.5 c 128,-1,11
 727 647 727 647 640 647 c 0,0,1
670 -434 m 0,12,13
 517 -434 517 -434 405.5 -403 c 128,-1,14
 294 -372 294 -372 222.5 -316 c 128,-1,15
 151 -260 151 -260 117 -185.5 c 128,-1,16
 83 -111 83 -111 83 -23 c 0,17,18
 83 96 83 96 130.5 179.5 c 128,-1,19
 178 263 178 263 289 308 c 0,20,21
 381 345 381 345 526 355 c 1,22,-1
 547 512 l 1,23,-1
 727 512 l 1,24,-1
 783 156 l 1,25,26
 637 161 637 161 553.5 141 c 128,-1,27
 470 121 470 121 436.5 75.5 c 128,-1,28
 403 30 403 30 403 -43 c 0,29,30
 403 -100 403 -100 428.5 -145.5 c 128,-1,31
 454 -191 454 -191 509.5 -217 c 128,-1,32
 565 -243 565 -243 654 -243 c 0,33,34
 724 -243 724 -243 775 -218.5 c 128,-1,35
 826 -194 826 -194 864 -161.5 c 128,-1,36
 902 -129 902 -129 933 -104.5 c 128,-1,37
 964 -80 964 -80 994 -80 c 0,38,39
 1039 -80 1039 -80 1071.5 -97.5 c 128,-1,40
 1104 -115 1104 -115 1123 -146 c 128,-1,41
 1142 -177 1142 -177 1142 -220 c 0,42,43
 1142 -279 1142 -279 1098.5 -327.5 c 128,-1,44
 1055 -376 1055 -376 952.5 -405 c 128,-1,45
 850 -434 850 -434 670 -434 c 0,12,13
EndSplineSet
Substitution2: "'case' Case-Sensitive Forms in Latin lookup 9 subtable" questiondown.case
EndChar

StartChar: AE
Encoding: 198 198 136
Width: 2262
GlyphClass: 2
Flags: MW
AnchorPoint: "Anchor-4" 1150 0 basechar 0
LayerCount: 2
Fore
SplineSet
891 0 m 1,0,-1
 891 102 l 1,1,-1
 1055 152 l 1,2,-1
 1055 440 l 1,3,-1
 566 440 l 1,4,-1
 379 148 l 1,5,-1
 538 102 l 1,6,-1
 538 0 l 1,7,-1
 -6 0 l 1,8,-1
 -6 102 l 1,9,-1
 151 146 l 1,10,-1
 853 1236 l 1,11,-1
 668 1293 l 1,12,-1
 668 1396 l 1,13,-1
 956 1396 l 1,14,-1
 994 1396 l 1,15,-1
 1055 1396 l 1,16,-1
 1094 1396 l 1,17,-1
 1226 1396 l 1,18,-1
 1400 1396 l 1,19,-1
 1925 1396 l 1,20,-1
 2029 1475 l 1,21,-1
 2126 1475 l 1,22,-1
 2145 982 l 1,23,-1
 2007 979 l 1,24,-1
 1916 1209 l 1,25,-1
 1400 1209 l 1,26,-1
 1400 814 l 1,27,-1
 1677 814 l 1,28,-1
 1694 984 l 1,29,-1
 1830 984 l 1,30,-1
 1830 727 l 1,31,-1
 1830 470 l 1,32,-1
 1694 470 l 1,33,-1
 1677 643 l 1,34,-1
 1400 643 l 1,35,-1
 1400 187 l 1,36,-1
 1917 187 l 1,37,-1
 2056 471 l 1,38,-1
 2194 468 l 1,39,-1
 2110 -84 l 1,40,-1
 1998 -84 l 1,41,-1
 1913 0 l 1,42,-1
 1400 0 l 1,43,-1
 1226 0 l 1,44,-1
 891 0 l 1,0,-1
1055 1205 m 1,45,-1
 687 629 l 1,46,-1
 1055 629 l 1,47,-1
 1055 1205 l 1,45,-1
EndSplineSet
EndChar

StartChar: Ccedilla
Encoding: 199 199 137
Width: 1472
GlyphClass: 1
Flags: MW
LayerCount: 2
Fore
SplineSet
741 -481 m 0,0,1
 649 -481 649 -481 615.5 -457.5 c 128,-1,2
 582 -434 582 -434 582 -393 c 0,3,4
 582 -362 582 -362 599.5 -346 c 128,-1,5
 617 -330 617 -330 636 -330 c 0,6,7
 650 -330 650 -330 671.5 -345 c 128,-1,8
 693 -360 693 -360 719.5 -375 c 128,-1,9
 746 -390 746 -390 776 -390 c 0,10,11
 821 -390 821 -390 841.5 -373.5 c 128,-1,12
 862 -357 862 -357 862 -324 c 0,13,14
 862 -300 862 -300 846.5 -283.5 c 128,-1,15
 831 -267 831 -267 785 -253 c 128,-1,16
 739 -239 739 -239 648 -226 c 1,17,-1
 648 -197 l 1,18,-1
 780 -22 l 1,19,20
 645 -14 645 -14 536 20 c 0,21,22
 390 64 390 64 291.5 153 c 128,-1,23
 193 242 193 242 143 374.5 c 128,-1,24
 93 507 93 507 94 683 c 0,25,26
 95 907 95 907 184 1072.5 c 128,-1,27
 273 1238 273 1238 446.5 1329.5 c 128,-1,28
 620 1421 620 1421 877 1421 c 0,29,30
 965 1421 965 1421 1048 1407 c 0,31,32
 1100 1398 1100 1398 1154 1384 c 1,33,-1
 1237 1476 l 1,34,-1
 1344 1476 l 1,35,-1
 1360 919 l 1,36,-1
 1219 916 l 1,37,-1
 1125 1169 l 1,38,39
 1086 1187 1086 1187 1048 1198 c 0,40,41
 973 1218 973 1218 882 1218 c 0,42,43
 770 1218 770 1218 687.5 1190 c 128,-1,44
 605 1162 605 1162 552 1103 c 128,-1,45
 499 1044 499 1044 472.5 954 c 128,-1,46
 446 864 446 864 445 740 c 0,47,48
 444 593 444 593 476 485.5 c 128,-1,49
 508 378 508 378 571.5 308 c 128,-1,50
 635 238 635 238 727 203.5 c 128,-1,51
 819 169 819 169 936 169 c 0,52,53
 1009 169 1009 169 1086 184 c 0,54,55
 1106 188 1106 188 1126 193 c 1,56,-1
 1256 470 l 1,57,-1
 1378 470 l 1,58,-1
 1334 56 l 1,59,60
 1241 17 1241 17 1125 -4 c 0,61,62
 1018 -23 1018 -23 896 -25 c 1,63,-1
 836 -102 l 1,64,65
 893 -116 893 -116 928 -134 c 0,66,67
 984 -161 984 -161 1003.5 -197 c 128,-1,68
 1023 -233 1023 -233 1023 -279 c 0,69,70
 1023 -347 1023 -347 987.5 -391.5 c 128,-1,71
 952 -436 952 -436 888.5 -458.5 c 128,-1,72
 825 -481 825 -481 741 -481 c 0,0,1
EndSplineSet
EndChar

StartChar: multiply
Encoding: 215 215 153
Width: 1049
GlyphClass: 1
Flags: MW
LayerCount: 2
Fore
SplineSet
145 762 m 1,0,-1
 275 898 l 1,1,-1
 525 635 l 1,2,-1
 775 898 l 1,3,-1
 904 762 l 1,4,-1
 654 498 l 1,5,-1
 904 235 l 1,6,-1
 775 99 l 1,7,-1
 525 362 l 1,8,-1
 275 99 l 1,9,-1
 145 235 l 1,10,-1
 395 498 l 1,11,-1
 145 762 l 1,0,-1
EndSplineSet
EndChar

StartChar: Oslash
Encoding: 216 216 154
Width: 1646
GlyphClass: 2
Flags: MW
AnchorPoint: "Anchor-4" 823 0 basechar 0
LayerCount: 2
Fore
SplineSet
827 187 m 0,0,1
 942 187 942 187 1022 237.5 c 128,-1,2
 1102 288 1102 288 1144 390.5 c 128,-1,3
 1186 493 1186 493 1186 647 c 0,4,5
 1186 832 1186 832 1146 956 c 1,6,-1
 578 293 l 1,7,8
 599 268 599 268 624 250 c 0,9,10
 705 187 705 187 827 187 c 0,0,1
838 1421 m 0,11,12
 1002 1421 1002 1421 1132 1370 c 0,13,14
 1201 1344 1201 1344 1259 1305 c 1,15,16
 1291 1341 1291 1341 1340 1396 c 1,17,-1
 1551 1396 l 1,18,-1
 1376 1200 l 1,19,20
 1449 1114 1449 1114 1490 999 c 0,21,22
 1538 866 1538 866 1538 700 c 0,23,24
 1538 533 1538 533 1486.5 399.5 c 128,-1,25
 1435 266 1435 266 1339.5 171 c 128,-1,26
 1244 76 1244 76 1110 25.5 c 128,-1,27
 976 -25 976 -25 808 -25 c 0,28,29
 644 -25 644 -25 514 26 c 0,30,31
 446 52 446 52 389 91 c 1,32,-1
 308 0 l 1,33,-1
 96 0 l 1,34,-1
 271 196 l 1,35,36
 197 282 197 282 156 397 c 0,37,38
 108 530 108 530 108 696 c 128,-1,39
 108 862 108 862 159.5 996 c 128,-1,40
 211 1130 211 1130 306.5 1225 c 128,-1,41
 402 1320 402 1320 536.5 1370.5 c 128,-1,42
 671 1421 671 1421 838 1421 c 0,11,12
1068 1103 m 1,43,44
 1047 1127 1047 1127 1022 1146 c 0,45,46
 940 1209 940 1209 818 1209 c 0,47,48
 704 1209 704 1209 624 1158.5 c 128,-1,49
 544 1108 544 1108 502.5 1005.5 c 128,-1,50
 461 903 461 903 461 749 c 0,51,52
 461 563 461 563 501 438 c 1,53,-1
 1068 1103 l 1,43,44
EndSplineSet
EndChar

StartChar: Thorn
Encoding: 222 222 160
Width: 1441
GlyphClass: 1
Flags: MW
LayerCount: 2
Fore
SplineSet
762 102 m 1,0,-1
 762 0 l 1,1,-1
 89 0 l 1,2,-1
 89 102 l 1,3,-1
 253 152 l 1,4,-1
 253 1244 l 1,5,-1
 89 1293 l 1,6,-1
 89 1396 l 1,7,-1
 762 1396 l 1,8,-1
 762 1293 l 1,9,-1
 598 1244 l 1,10,-1
 598 1140 l 1,11,-1
 831 1140 l 2,12,13
 1022 1140 1022 1140 1138.5 1087 c 128,-1,14
 1255 1034 1255 1034 1308 937 c 128,-1,15
 1361 840 1361 840 1361 709 c 0,16,17
 1361 583 1361 583 1310.5 484.5 c 128,-1,18
 1260 386 1260 386 1148.5 330 c 128,-1,19
 1037 274 1037 274 856 274 c 2,20,-1
 598 274 l 1,21,-1
 598 152 l 1,22,-1
 762 102 l 1,0,-1
1022 705 m 0,23,24
 1022 782 1022 782 998.5 834 c 128,-1,25
 975 886 975 886 918.5 912.5 c 128,-1,26
 862 939 862 939 763 939 c 2,27,-1
 598 939 l 1,28,-1
 598 470 l 1,29,-1
 798 470 l 2,30,31
 870 470 870 470 920 495 c 128,-1,32
 970 520 970 520 996 572 c 128,-1,33
 1022 624 1022 624 1022 705 c 0,23,24
EndSplineSet
EndChar

StartChar: germandbls
Encoding: 223 223 161
Width: 1549
GlyphClass: 1
Flags: MW
LayerCount: 2
Fore
SplineSet
236 840 m 1,0,-1
 39 926 l 1,1,-1
 39 999 l 1,2,-1
 236 1090 l 1,3,4
 238 1214 238 1214 275 1306 c 0,5,6
 314 1403 314 1403 390.5 1466 c 128,-1,7
 467 1529 467 1529 581 1560 c 0,8,9
 696 1591 696 1591 846 1591 c 0,10,11
 988 1591 988 1591 1084 1570.5 c 128,-1,12
 1180 1550 1180 1550 1236 1512 c 128,-1,13
 1292 1474 1292 1474 1316 1420 c 128,-1,14
 1340 1366 1340 1366 1340 1299 c 0,15,16
 1340 1219 1340 1219 1309.5 1169 c 128,-1,17
 1279 1119 1279 1119 1234 1086 c 128,-1,18
 1189 1053 1189 1053 1144.5 1026.5 c 128,-1,19
 1100 1000 1100 1000 1069.5 968 c 128,-1,20
 1039 936 1039 936 1039 886 c 0,21,22
 1039 841 1039 841 1071.5 813.5 c 128,-1,23
 1104 786 1104 786 1154 765.5 c 128,-1,24
 1204 745 1204 745 1260.5 720.5 c 128,-1,25
 1317 696 1317 696 1366.5 654.5 c 128,-1,26
 1416 613 1416 613 1448.5 545 c 128,-1,27
 1481 477 1481 477 1481 368 c 0,28,29
 1481 239 1481 239 1432.5 152 c 128,-1,30
 1384 65 1384 65 1287.5 19.5 c 128,-1,31
 1191 -26 1191 -26 1044 -26 c 0,32,33
 975 -26 975 -26 899 -14 c 0,34,35
 824 -3 824 -3 770 17 c 1,36,-1
 735 336 l 1,37,-1
 851 336 l 1,38,-1
 943 136 l 1,39,40
 981 132 981 132 1016 132 c 0,41,42
 1119 132 1119 132 1161.5 172.5 c 128,-1,43
 1204 213 1204 213 1204 285 c 0,44,45
 1204 352 1204 352 1174 390 c 128,-1,46
 1144 428 1144 428 1096.5 450 c 128,-1,47
 1049 472 1049 472 996 492.5 c 128,-1,48
 943 513 943 513 896 544.5 c 128,-1,49
 849 576 849 576 818.5 629.5 c 128,-1,50
 788 683 788 683 788 773 c 0,51,52
 788 857 788 857 814 912.5 c 128,-1,53
 840 968 840 968 877.5 1007.5 c 128,-1,54
 915 1047 915 1047 952.5 1080 c 128,-1,55
 990 1113 990 1113 1015 1151.5 c 128,-1,56
 1040 1190 1040 1190 1040 1245 c 0,57,58
 1040 1298 1040 1298 1017 1337 c 128,-1,59
 994 1376 994 1376 945 1397 c 128,-1,60
 896 1418 896 1418 817 1418 c 0,61,62
 719 1418 719 1418 660.5 1393 c 128,-1,63
 602 1368 602 1368 577.5 1312 c 128,-1,64
 553 1256 553 1256 553 1162 c 2,65,-1
 553 143 l 1,66,-1
 660 98 l 1,67,-1
 660 0 l 1,68,-1
 100 0 l 1,69,-1
 100 98 l 1,70,-1
 236 141 l 1,71,-1
 236 840 l 1,0,-1
EndSplineSet
EndChar

StartChar: ae
Encoding: 230 230 168
Width: 1735
GlyphClass: 2
Flags: MW
AnchorPoint: "Anchor-4" 862 0 basechar 0
AnchorPoint: "Anchor-0" 867 1071 basechar 0
LayerCount: 2
Fore
SplineSet
512 941 m 0,0,1
 460 941 460 941 422 936 c 0,2,3
 408 935 408 935 395 933 c 1,4,5
 394 927 394 927 392 922 c 0,6,7
 384 886 384 886 375 855.5 c 128,-1,8
 366 825 366 825 354 798 c 0,9,10
 337 757 337 757 304.5 743 c 128,-1,11
 272 729 272 729 217 729 c 0,12,13
 155 729 155 729 124 754 c 128,-1,14
 93 779 93 779 93 818 c 0,15,16
 93 861 93 861 132 909 c 128,-1,17
 171 957 171 957 243 1000 c 128,-1,18
 315 1043 315 1043 412.5 1070 c 128,-1,19
 510 1097 510 1097 626 1097 c 0,20,21
 739 1097 739 1097 815 1066 c 0,22,23
 882 1039 882 1039 924 995 c 1,24,25
 947 1016 947 1016 973 1034 c 0,26,27
 1066 1098 1066 1098 1201 1098 c 0,28,29
 1356 1098 1356 1098 1454 1035.5 c 128,-1,30
 1552 973 1552 973 1602 845.5 c 128,-1,31
 1652 718 1652 718 1658 521 c 1,32,-1
 998 521 l 1,33,34
 1005 439 1005 439 1029 382 c 0,35,36
 1064 298 1064 298 1136.5 259.5 c 128,-1,37
 1209 221 1209 221 1324 221 c 0,38,39
 1385 221 1385 221 1438 229 c 128,-1,40
 1491 237 1491 237 1539 251 c 128,-1,41
 1587 265 1587 265 1634 283 c 1,42,-1
 1642 170 l 1,43,44
 1561 105 1561 105 1486 60.5 c 128,-1,45
 1411 16 1411 16 1341.5 -5.5 c 128,-1,46
 1272 -27 1272 -27 1207 -27 c 0,47,48
 1066 -27 1066 -27 959 15 c 128,-1,49
 852 57 852 57 785 140 c 0,50,51
 745 189 745 189 720 253 c 1,52,53
 704 179 704 179 674 127 c 0,54,55
 627 44 627 44 554.5 8.5 c 128,-1,56
 482 -27 482 -27 389 -27 c 0,57,58
 244 -27 244 -27 163.5 47 c 128,-1,59
 83 121 83 121 83 267 c 0,60,61
 83 343 83 343 108.5 403 c 128,-1,62
 134 463 134 463 205 511 c 128,-1,63
 276 559 276 559 410 599 c 0,64,65
 521 632 521 632 689 662 c 1,66,-1
 689 744 l 2,67,68
 689 843 689 843 649 892 c 128,-1,69
 609 941 609 941 512 941 c 0,0,1
689 528 m 1,70,71
 611 515 611 515 560 500 c 0,72,73
 490 481 490 481 454.5 457.5 c 128,-1,74
 419 434 419 434 407 404 c 128,-1,75
 395 374 395 374 395 335 c 0,76,77
 395 264 395 264 425 232 c 128,-1,78
 455 200 455 200 524 200 c 0,79,80
 572 200 572 200 609.5 218.5 c 128,-1,81
 647 237 647 237 668 273.5 c 128,-1,82
 689 310 689 310 689 362 c 2,83,-1
 689 528 l 1,70,71
1356 669 m 1,84,85
 1353 751 1353 751 1338 802 c 0,86,87
 1318 868 1318 868 1279.5 895.5 c 128,-1,88
 1241 923 1241 923 1183 923 c 0,89,90
 1121 923 1121 923 1079 893 c 128,-1,91
 1037 863 1037 863 1016 794 c 0,92,93
 1000 743 1000 743 995 664 c 1,94,-1
 1356 669 l 1,84,85
EndSplineSet
EndChar

StartChar: eth
Encoding: 240 240 178
Width: 1247
GlyphClass: 1
Flags: MW
LayerCount: 2
Fore
SplineSet
376 1085 m 1,0,-1
 314 1190 l 1,1,-1
 504 1322 l 1,2,3
 388 1382 388 1382 221 1436 c 1,4,-1
 272 1591 l 1,5,6
 493 1536 493 1536 647 1464 c 0,7,8
 666 1455 666 1455 684 1446 c 1,9,-1
 894 1592 l 1,10,-1
 955 1487 l 1,11,-1
 800 1379 l 1,12,13
 855 1343 855 1343 900 1302 c 0,14,15
 998 1213 998 1213 1052.5 1106 c 128,-1,16
 1107 999 1107 999 1128 875 c 128,-1,17
 1149 751 1149 751 1149 609 c 0,18,19
 1149 383 1149 383 1082 243 c 128,-1,20
 1015 103 1015 103 891.5 38 c 128,-1,21
 768 -27 768 -27 601 -27 c 0,22,23
 438 -27 438 -27 321 38.5 c 128,-1,24
 204 104 204 104 142 224.5 c 128,-1,25
 80 345 80 345 80 510 c 0,26,27
 80 678 80 678 139 797 c 128,-1,28
 198 916 198 916 304.5 978.5 c 128,-1,29
 411 1041 411 1041 553 1041 c 0,30,31
 621 1041 621 1041 675 1019.5 c 128,-1,32
 729 998 729 998 769 958 c 128,-1,33
 809 918 809 918 834 864 c 0,34,35
 835 863 835 863 835 861 c 1,36,37
 826 931 826 931 808 990 c 0,38,39
 775 1095 775 1095 703 1174 c 0,40,41
 666 1215 666 1215 617 1252 c 1,42,-1
 376 1085 l 1,0,-1
610 166 m 0,43,44
 683 166 683 166 732.5 198 c 128,-1,45
 782 230 782 230 806 302 c 128,-1,46
 830 374 830 374 830 489 c 0,47,48
 830 619 830 619 808 702.5 c 128,-1,49
 786 786 786 786 739 826 c 128,-1,50
 692 866 692 866 618 866 c 0,51,52
 545 866 545 866 496 833.5 c 128,-1,53
 447 801 447 801 422 730 c 128,-1,54
 397 659 397 659 397 543 c 0,55,56
 397 413 397 413 420 329.5 c 128,-1,57
 443 246 443 246 490.5 206 c 128,-1,58
 538 166 538 166 610 166 c 0,43,44
EndSplineSet
EndChar

StartChar: divide
Encoding: 247 247 185
Width: 1049
GlyphClass: 1
Flags: MW
LayerCount: 2
Fore
SplineSet
118 595 m 1,0,-1
 933 595 l 1,1,-1
 933 403 l 1,2,-1
 118 403 l 1,3,-1
 118 595 l 1,0,-1
525 1004 m 128,-1,5
 591 1004 591 1004 631 964 c 128,-1,6
 671 924 671 924 671 856 c 0,7,8
 671 789 671 789 631 749 c 128,-1,9
 591 709 591 709 525 709 c 128,-1,10
 459 709 459 709 419 749 c 128,-1,11
 379 789 379 789 379 856 c 0,12,13
 379 924 379 924 419 964 c 128,-1,4
 459 1004 459 1004 525 1004 c 128,-1,5
525 288 m 128,-1,15
 591 288 591 288 631 248.5 c 128,-1,16
 671 209 671 209 671 141 c 0,17,18
 671 74 671 74 631 33.5 c 128,-1,19
 591 -7 591 -7 525 -7 c 128,-1,20
 459 -7 459 -7 419 33.5 c 128,-1,21
 379 74 379 74 379 141 c 0,22,23
 379 209 379 209 419 248.5 c 128,-1,14
 459 288 459 288 525 288 c 128,-1,15
EndSplineSet
EndChar

StartChar: oslash
Encoding: 248 248 186
Width: 1260
GlyphClass: 2
Flags: MW
AnchorPoint: "Anchor-4" 630 0 basechar 0
AnchorPoint: "Anchor-0" 630 1071 basechar 0
LayerCount: 2
Fore
SplineSet
618 -27 m 0,0,1
 454 -27 454 -27 338 40 c 0,2,3
 319 51 319 51 302 63 c 1,4,-1
 246 0 l 1,5,-1
 71 0 l 1,6,-1
 208 154 l 1,7,8
 180 190 180 190 159 232 c 0,9,10
 97 357 97 357 97 529 c 0,11,12
 97 704 97 704 163 832 c 128,-1,13
 229 960 229 960 351.5 1029 c 128,-1,14
 474 1098 474 1098 644 1098 c 0,15,16
 807 1098 807 1098 924 1030 c 0,17,18
 943 1020 943 1020 960 1008 c 1,19,-1
 1016 1071 l 1,20,-1
 1188 1071 l 1,21,-1
 1053 918 l 1,22,23
 1082 882 1082 882 1104 838 c 0,24,25
 1166 714 1166 714 1166 542 c 0,26,27
 1166 367 1166 367 1100 239 c 128,-1,28
 1034 111 1034 111 910.5 42 c 128,-1,29
 787 -27 787 -27 618 -27 c 0,0,1
626 173 m 128,-1,31
 699 173 699 173 748.5 206.5 c 128,-1,32
 798 240 798 240 822.5 314 c 128,-1,33
 847 388 847 388 847 508 c 0,34,35
 847 610 847 610 834 684 c 1,36,-1
 474 252 l 1,37,38
 488 230 488 230 506 214 c 0,39,30
 553 173 553 173 626 173 c 128,-1,31
788 819 m 1,40,41
 774 841 774 841 756 857 c 0,42,43
 709 899 709 899 635 899 c 0,44,45
 562 899 562 899 513 865.5 c 128,-1,46
 464 832 464 832 439 758 c 128,-1,47
 414 684 414 684 414 564 c 0,48,49
 414 461 414 461 427 386 c 1,50,-1
 788 819 l 1,40,41
EndSplineSet
EndChar

StartChar: thorn
Encoding: 254 254 192
Width: 1287
GlyphClass: 1
Flags: MW
LayerCount: 2
Fore
SplineSet
150 1283 m 1,0,1
 137 1294 137 1294 107.5 1312.5 c 128,-1,2
 78 1331 78 1331 41 1352.5 c 128,-1,3
 4 1374 4 1374 -34 1395 c 1,4,-1
 -34 1493 l 1,5,-1
 418 1591 l 1,6,-1
 487 1591 l 1,7,-1
 466 1328 l 1,8,-1
 466 963 l 1,9,10
 502 988 502 988 533 1007 c 0,11,12
 591 1043 591 1043 633.5 1063 c 128,-1,13
 676 1083 676 1083 710.5 1090.5 c 128,-1,14
 745 1098 745 1098 777 1098 c 0,15,16
 918 1098 918 1098 1013.5 1034.5 c 128,-1,17
 1109 971 1109 971 1157.5 855 c 128,-1,18
 1206 739 1206 739 1206 581 c 0,19,20
 1206 387 1206 387 1141.5 250.5 c 128,-1,21
 1077 114 1077 114 970.5 43.5 c 128,-1,22
 864 -27 864 -27 735 -27 c 0,23,24
 649 -27 649 -27 584 7.5 c 128,-1,25
 519 42 519 42 477 102 c 0,26,27
 471 111 471 111 466 119 c 1,28,-1
 466 -350 l 1,29,-1
 623 -394 l 1,30,-1
 623 -492 l 1,31,-1
 11 -492 l 1,32,-1
 11 -394 l 1,33,-1
 150 -351 l 1,34,-1
 150 1283 l 1,0,1
466 847 m 1,35,-1
 466 402 l 2,36,37
 466 321 466 321 489.5 269 c 128,-1,38
 513 217 513 217 556 193.5 c 128,-1,39
 599 170 599 170 659 170 c 0,40,41
 729 170 729 170 779.5 207.5 c 128,-1,42
 830 245 830 245 857 325 c 128,-1,43
 884 405 884 405 884 530 c 0,44,45
 884 710 884 710 820.5 791 c 128,-1,46
 757 872 757 872 634 872 c 0,47,48
 597 872 597 872 557.5 866.5 c 128,-1,49
 518 861 518 861 478 850 c 0,50,51
 472 848 472 848 466 847 c 1,35,-1
EndSplineSet
EndChar

StartChar: Aogonek
Encoding: 260 260 198
Width: 1645
GlyphClass: 1
Flags: MW
LayerCount: 2
Fore
SplineSet
1325 -77 m 2,0,1
 1285 -148 1285 -148 1273 -186.5 c 128,-1,2
 1261 -225 1261 -225 1261 -260 c 0,3,4
 1261 -302 1261 -302 1284.5 -324 c 128,-1,5
 1308 -346 1308 -346 1347 -346 c 0,6,7
 1376 -346 1376 -346 1401.5 -338 c 128,-1,8
 1427 -330 1427 -330 1465 -307 c 1,9,-1
 1473 -386 l 1,10,11
 1434 -422 1434 -422 1402 -443 c 128,-1,12
 1370 -464 1370 -464 1338 -472.5 c 128,-1,13
 1306 -481 1306 -481 1269 -481 c 0,14,15
 1178 -481 1178 -481 1136 -436.5 c 128,-1,16
 1094 -392 1094 -392 1094 -317 c 0,17,18
 1094 -282 1094 -282 1103 -248 c 128,-1,19
 1112 -214 1112 -214 1139 -169.5 c 128,-1,20
 1166 -125 1166 -125 1220 -60 c 2,21,-1
 1270 0 l 1,22,-1
 946 0 l 1,23,-1
 946 102 l 1,24,-1
 1109 146 l 1,25,-1
 1007 425 l 1,26,-1
 474 425 l 1,27,-1
 379 148 l 1,28,-1
 538 102 l 1,29,-1
 538 0 l 1,30,-1
 8 0 l 1,31,-1
 8 102 l 1,32,-1
 163 146 l 1,33,-1
 628 1405 l 1,34,-1
 999 1405 l 1,35,-1
 1478 154 l 1,36,-1
 1645 102 l 1,37,-1
 1645 0 l 1,38,-1
 1371 0 l 1,39,-1
 1325 -77 l 2,0,1
732 1174 m 1,40,-1
 539 614 l 1,41,-1
 937 614 l 1,42,-1
 732 1174 l 1,40,-1
EndSplineSet
EndChar

StartChar: Dcroat
Encoding: 272 272 210
Width: 1630
GlyphClass: 1
Flags: MW
LayerCount: 2
Fore
SplineSet
93 0 m 1,0,-1
 93 102 l 1,1,-1
 256 152 l 1,2,-1
 256 624 l 1,3,-1
 93 624 l 1,4,-1
 93 787 l 1,5,-1
 256 787 l 1,6,-1
 256 1244 l 1,7,-1
 93 1293 l 1,8,-1
 93 1396 l 1,9,-1
 415 1396 l 1,10,-1
 601 1396 l 1,11,-1
 816 1396 l 2,12,13
 1054 1396 1054 1396 1214.5 1320.5 c 128,-1,14
 1375 1245 1375 1245 1455 1096.5 c 128,-1,15
 1535 948 1535 948 1535 730 c 0,16,17
 1535 494 1535 494 1444 331 c 128,-1,18
 1353 168 1353 168 1189.5 84 c 128,-1,19
 1026 0 1026 0 809 0 c 2,20,-1
 601 0 l 1,21,-1
 415 0 l 1,22,-1
 93 0 l 1,0,-1
1180 714 m 0,23,24
 1180 963 1180 963 1078.5 1078.5 c 128,-1,25
 977 1194 977 1194 757 1194 c 2,26,-1
 601 1194 l 1,27,-1
 601 787 l 1,28,-1
 860 787 l 1,29,-1
 860 624 l 1,30,-1
 601 624 l 1,31,-1
 601 202 l 1,32,-1
 795 202 l 2,33,34
 921 202 921 202 1006.5 254.5 c 128,-1,35
 1092 307 1092 307 1136 419.5 c 128,-1,36
 1180 532 1180 532 1180 714 c 0,23,24
EndSplineSet
EndChar

StartChar: dcroat
Encoding: 273 273 211
Width: 1326
GlyphClass: 1
Flags: MW
LayerCount: 2
Fore
SplineSet
558 1188 m 1,0,-1
 558 1320 l 1,1,-1
 820 1320 l 1,2,-1
 820 1358 l 1,3,4
 810 1369 810 1369 790.5 1380.5 c 128,-1,5
 771 1392 771 1392 748.5 1404 c 128,-1,6
 726 1416 726 1416 707 1426 c 1,7,-1
 707 1523 l 1,8,-1
 1088 1591 l 1,9,-1
 1157 1591 l 1,10,-1
 1137 1327 l 1,11,-1
 1137 1320 l 1,12,-1
 1301 1320 l 1,13,-1
 1301 1188 l 1,14,-1
 1137 1188 l 1,15,-1
 1137 271 l 1,16,17
 1146 263 1146 263 1166 248.5 c 128,-1,18
 1186 234 1186 234 1210 217.5 c 128,-1,19
 1234 201 1234 201 1257.5 186 c 128,-1,20
 1281 171 1281 171 1298 161 c 1,21,-1
 1298 96 l 1,22,-1
 939 -27 l 1,23,-1
 893 -27 l 1,24,-1
 836 147 l 1,25,26
 778 103 778 103 735 72 c 0,27,28
 674 29 674 29 633.5 7.5 c 128,-1,29
 593 -14 593 -14 563 -20 c 0,30,31
 534 -27 534 -27 504 -27 c 0,32,33
 364 -27 364 -27 270 36 c 128,-1,34
 176 99 176 99 128.5 216 c 128,-1,35
 81 333 81 333 81 491 c 0,36,37
 81 634 81 634 124.5 746.5 c 128,-1,38
 168 859 168 859 246 937.5 c 128,-1,39
 324 1016 324 1016 426.5 1057 c 128,-1,40
 529 1098 529 1098 648 1098 c 0,41,42
 717 1098 717 1098 775 1088 c 0,43,44
 798 1084 798 1084 820 1078 c 1,45,-1
 820 1188 l 1,46,-1
 558 1188 l 1,0,-1
820 698 m 2,47,48
 820 804 820 804 779.5 858.5 c 128,-1,49
 739 913 739 913 645 913 c 0,50,51
 567 913 567 913 512.5 874 c 128,-1,52
 458 835 458 835 429.5 753.5 c 128,-1,53
 401 672 401 672 401 543 c 0,54,55
 401 421 401 421 429 344.5 c 128,-1,56
 457 268 457 268 512.5 233 c 128,-1,57
 568 198 568 198 653 198 c 0,58,59
 709 198 709 198 769 212 c 0,60,61
 794 219 794 219 820 227 c 1,62,-1
 820 698 l 2,47,48
EndSplineSet
EndChar

StartChar: Eogonek
Encoding: 280 280 218
Width: 1461
GlyphClass: 1
Flags: MW
LayerCount: 2
Fore
SplineSet
1098 -74 m 2,0,1
 1073 -120 1073 -120 1059.5 -152 c 128,-1,2
 1046 -184 1046 -184 1040.5 -208.5 c 128,-1,3
 1035 -233 1035 -233 1035 -255 c 0,4,5
 1035 -300 1035 -300 1057.5 -323 c 128,-1,6
 1080 -346 1080 -346 1122 -346 c 0,7,8
 1151 -346 1151 -346 1176.5 -338 c 128,-1,9
 1202 -330 1202 -330 1240 -307 c 1,10,-1
 1248 -386 l 1,11,12
 1208 -422 1208 -422 1176 -443 c 128,-1,13
 1144 -464 1144 -464 1112.5 -472.5 c 128,-1,14
 1081 -481 1081 -481 1044 -481 c 0,15,16
 953 -481 953 -481 910.5 -436.5 c 128,-1,17
 868 -392 868 -392 868 -317 c 0,18,19
 868 -282 868 -282 877 -247 c 128,-1,20
 886 -212 886 -212 912 -167 c 128,-1,21
 938 -122 938 -122 989 -57 c 2,22,-1
 1033 0 l 1,23,-1
 598 0 l 1,24,-1
 425 0 l 1,25,-1
 89 0 l 1,26,-1
 89 102 l 1,27,-1
 253 152 l 1,28,-1
 253 1244 l 1,29,-1
 89 1293 l 1,30,-1
 89 1396 l 1,31,-1
 425 1396 l 1,32,-1
 598 1396 l 1,33,-1
 1123 1396 l 1,34,-1
 1226 1475 l 1,35,-1
 1324 1475 l 1,36,-1
 1342 982 l 1,37,-1
 1206 979 l 1,38,-1
 1115 1209 l 1,39,-1
 598 1209 l 1,40,-1
 598 814 l 1,41,-1
 875 814 l 1,42,-1
 892 984 l 1,43,-1
 1028 984 l 1,44,-1
 1028 727 l 1,45,-1
 1028 470 l 1,46,-1
 892 470 l 1,47,-1
 875 643 l 1,48,-1
 598 643 l 1,49,-1
 598 187 l 1,50,-1
 1114 187 l 1,51,-1
 1254 471 l 1,52,-1
 1392 468 l 1,53,-1
 1308 -84 l 1,54,-1
 1196 -84 l 1,55,-1
 1128 -16 l 1,56,-1
 1098 -74 l 2,0,1
EndSplineSet
EndChar

StartChar: Hbar
Encoding: 294 294 232
Width: 1773
GlyphClass: 1
Flags: MW
LayerCount: 2
Fore
SplineSet
92 973 m 1,0,-1
 92 1136 l 1,1,-1
 256 1136 l 1,2,-1
 256 1244 l 1,3,-1
 92 1293 l 1,4,-1
 92 1396 l 1,5,-1
 765 1396 l 1,6,-1
 765 1293 l 1,7,-1
 600 1244 l 1,8,-1
 600 1136 l 1,9,-1
 1173 1136 l 1,10,-1
 1173 1244 l 1,11,-1
 1009 1293 l 1,12,-1
 1009 1396 l 1,13,14
 1010 1396 1010 1396 1682 1396 c 1,15,-1
 1682 1293 l 1,16,-1
 1518 1244 l 1,17,-1
 1518 1136 l 1,18,-1
 1682 1136 l 1,19,-1
 1682 973 l 1,20,-1
 1518 973 l 1,21,-1
 1518 152 l 1,22,-1
 1682 102 l 1,23,-1
 1682 0 l 1,24,-1
 1009 0 l 1,25,-1
 1009 102 l 1,26,-1
 1173 152 l 1,27,-1
 1173 611 l 1,28,-1
 600 611 l 1,29,-1
 600 152 l 1,30,-1
 765 102 l 1,31,-1
 765 0 l 1,32,-1
 92 0 l 1,33,-1
 92 102 l 1,34,-1
 256 152 l 1,35,-1
 256 973 l 1,36,-1
 92 973 l 1,0,-1
1173 973 m 1,37,-1
 600 973 l 1,38,-1
 600 813 l 1,39,-1
 1173 813 l 1,40,-1
 1173 973 l 1,37,-1
EndSplineSet
EndChar

StartChar: hbar
Encoding: 295 295 233
Width: 1354
GlyphClass: 1
Flags: MW
LayerCount: 2
Fore
SplineSet
24 1188 m 1,0,-1
 24 1320 l 1,1,-1
 176 1320 l 1,2,3
 168 1335 168 1335 157 1350 c 0,4,5
 137 1377 137 1377 114.5 1402.5 c 128,-1,6
 92 1428 92 1428 70 1452 c 1,7,-1
 70 1523 l 1,8,-1
 455 1591 l 1,9,-1
 524 1591 l 1,10,-1
 504 1328 l 1,11,-1
 504 1320 l 1,12,-1
 766 1320 l 1,13,-1
 766 1188 l 1,14,-1
 504 1188 l 1,15,-1
 504 897 l 1,16,17
 564 951 564 951 608 987 c 0,18,19
 667 1037 667 1037 708 1060.5 c 128,-1,20
 749 1084 749 1084 783.5 1091 c 128,-1,21
 818 1098 818 1098 861 1098 c 0,22,23
 1023 1098 1023 1098 1099.5 1009.5 c 128,-1,24
 1176 921 1176 921 1176 751 c 2,25,-1
 1176 141 l 1,26,-1
 1314 98 l 1,27,-1
 1314 0 l 1,28,-1
 756 0 l 1,29,-1
 756 98 l 1,30,-1
 860 134 l 1,31,-1
 860 671 l 2,32,33
 860 724 860 724 843 758 c 128,-1,34
 826 792 826 792 790 808.5 c 128,-1,35
 754 825 754 825 693 825 c 0,36,37
 639 825 639 825 582 812 c 0,38,39
 540 803 540 803 504 790 c 1,40,-1
 504 136 l 1,41,-1
 611 98 l 1,42,-1
 611 0 l 1,43,-1
 51 0 l 1,44,-1
 51 98 l 1,45,-1
 187 141 l 1,46,-1
 187 1188 l 1,47,-1
 24 1188 l 1,0,-1
EndSplineSet
EndChar

StartChar: Iogonek
Encoding: 302 302 240
Width: 851
GlyphClass: 1
Flags: MW
LayerCount: 2
Fore
SplineSet
446 -72 m 2,0,1
 423 -118 423 -118 411.5 -152 c 128,-1,2
 400 -186 400 -186 395 -211.5 c 128,-1,3
 390 -237 390 -237 390 -260 c 0,4,5
 390 -302 390 -302 414.5 -324 c 128,-1,6
 439 -346 439 -346 478 -346 c 0,7,8
 507 -346 507 -346 532.5 -338 c 128,-1,9
 558 -330 558 -330 596 -307 c 1,10,-1
 604 -386 l 1,11,12
 564 -422 564 -422 532 -443 c 128,-1,13
 500 -464 500 -464 468.5 -472.5 c 128,-1,14
 437 -481 437 -481 400 -481 c 0,15,16
 309 -481 309 -481 266.5 -436.5 c 128,-1,17
 224 -392 224 -392 224 -317 c 0,18,19
 224 -282 224 -282 232.5 -248 c 128,-1,20
 241 -214 241 -214 265.5 -169 c 128,-1,21
 290 -124 290 -124 336 -59 c 2,22,-1
 378 0 l 1,23,-1
 89 0 l 1,24,-1
 89 102 l 1,25,-1
 253 152 l 1,26,-1
 253 1244 l 1,27,-1
 89 1293 l 1,28,-1
 89 1396 l 1,29,-1
 762 1396 l 1,30,-1
 762 1293 l 1,31,-1
 598 1244 l 1,32,-1
 598 152 l 1,33,-1
 762 102 l 1,34,-1
 762 0 l 1,35,-1
 480 0 l 1,36,-1
 446 -72 l 2,0,1
EndSplineSet
EndChar

StartChar: dotlessi
Encoding: 305 305 243
Width: 721
GlyphClass: 2
Flags: MW
AnchorPoint: "Anchor-4" 376 0 basechar 0
AnchorPoint: "Anchor-3" 522 0 basechar 0
AnchorPoint: "Anchor-0" 350 1071 basechar 0
LayerCount: 2
Fore
SplineSet
552 1098 m 1,0,-1
 533 799 l 1,1,-1
 533 141 l 1,2,-1
 667 98 l 1,3,-1
 667 0 l 1,4,-1
 81 0 l 1,5,-1
 81 98 l 1,6,-1
 218 141 l 1,7,-1
 218 779 l 1,8,9
 207 791 207 791 181 812 c 128,-1,10
 155 833 155 833 123.5 857 c 128,-1,11
 92 881 92 881 62 903 c 1,12,-1
 62 981 l 1,13,-1
 466 1098 l 1,14,-1
 552 1098 l 1,0,-1
EndSplineSet
Substitution2: "'case' Case-Sensitive Forms in Latin lookup 8 subtable" I
EndChar

StartChar: kgreenlandic
Encoding: 312 312 248
Width: 1386
GlyphClass: 1
Flags: MW
LayerCount: 2
Fore
SplineSet
551 1098 m 1,0,-1
 533 799 l 1,1,-1
 533 650 l 1,2,-1
 686 650 l 1,3,-1
 940 940 l 1,4,-1
 796 977 l 1,5,-1
 796 1071 l 1,6,-1
 1309 1071 l 1,7,-1
 1309 977 l 1,8,-1
 1162 939 l 1,9,-1
 895 670 l 1,10,-1
 1270 147 l 1,11,-1
 1382 91 l 1,12,-1
 1382 0 l 1,13,-1
 904 0 l 1,14,-1
 904 91 l 1,15,-1
 925 114 l 1,16,-1
 667 467 l 1,17,-1
 533 467 l 1,18,-1
 533 141 l 1,19,-1
 663 98 l 1,20,-1
 663 0 l 1,21,-1
 80 0 l 1,22,-1
 80 98 l 1,23,-1
 217 141 l 1,24,-1
 217 779 l 1,25,26
 206 791 206 791 180 812 c 128,-1,27
 154 833 154 833 122.5 857 c 128,-1,28
 91 881 91 881 62 903 c 1,29,-1
 62 981 l 1,30,-1
 465 1098 l 1,31,-1
 551 1098 l 1,0,-1
EndSplineSet
EndChar

StartChar: Lslash
Encoding: 321 321 257
Width: 1397
GlyphClass: 1
Flags: MW
LayerCount: 2
Fore
SplineSet
1264 -86 m 1,0,-1
 1150 -86 l 1,1,-1
 1063 0 l 1,2,-1
 623 0 l 1,3,-1
 449 0 l 1,4,-1
 114 0 l 1,5,-1
 114 102 l 1,6,-1
 278 152 l 1,7,-1
 278 509 l 1,8,-1
 108 413 l 1,9,-1
 108 586 l 1,10,-1
 278 682 l 1,11,-1
 278 1244 l 1,12,-1
 114 1293 l 1,13,-1
 114 1396 l 1,14,-1
 787 1396 l 1,15,-1
 787 1293 l 1,16,-1
 623 1244 l 1,17,-1
 623 839 l 1,18,-1
 912 1004 l 1,19,-1
 912 831 l 1,20,-1
 623 666 l 1,21,-1
 623 202 l 1,22,-1
 1056 202 l 1,23,-1
 1220 526 l 1,24,-1
 1358 523 l 1,25,-1
 1264 -86 l 1,0,-1
EndSplineSet
EndChar

StartChar: lslash
Encoding: 322 322 258
Width: 780
GlyphClass: 1
Flags: MW
LayerCount: 2
Fore
SplineSet
550 141 m 1,0,-1
 683 98 l 1,1,-1
 683 0 l 1,2,-1
 97 0 l 1,3,-1
 97 98 l 1,4,-1
 233 141 l 1,5,-1
 233 548 l 1,6,-1
 79 423 l 1,7,-1
 79 588 l 1,8,-1
 233 713 l 1,9,-1
 233 1283 l 1,10,11
 220 1294 220 1294 191 1312.5 c 128,-1,12
 162 1331 162 1331 124.5 1352.5 c 128,-1,13
 87 1374 87 1374 49 1395 c 1,14,-1
 49 1493 l 1,15,-1
 501 1591 l 1,16,-1
 570 1591 l 1,17,-1
 550 1328 l 1,18,-1
 550 903 l 1,19,-1
 720 1041 l 1,20,-1
 720 877 l 1,21,-1
 550 739 l 1,22,-1
 550 141 l 1,0,-1
EndSplineSet
EndChar

StartChar: Eng
Encoding: 330 330 265
Width: 1672
GlyphClass: 1
Flags: MW
LayerCount: 2
Fore
SplineSet
1439 -59 m 2,0,1
 1439 -204 1439 -204 1394 -297.5 c 128,-1,2
 1349 -391 1349 -391 1258.5 -436 c 128,-1,3
 1168 -481 1168 -481 1029 -481 c 0,4,5
 881 -481 881 -481 821.5 -433 c 128,-1,6
 762 -385 762 -385 762 -305 c 0,7,8
 762 -253 762 -253 793 -215 c 128,-1,9
 824 -177 824 -177 866 -177 c 0,10,11
 880 -177 880 -177 902 -192.5 c 128,-1,12
 924 -208 924 -208 951 -228.5 c 128,-1,13
 978 -249 978 -249 1008.5 -264.5 c 128,-1,14
 1039 -280 1039 -280 1071 -280 c 0,15,16
 1131 -280 1131 -280 1169.5 -259.5 c 128,-1,17
 1208 -239 1208 -239 1227.5 -191 c 128,-1,18
 1247 -143 1247 -143 1247 -59 c 2,19,-1
 1247 -35 l 1,20,-1
 447 1144 l 1,21,-1
 447 151 l 1,22,-1
 618 102 l 1,23,-1
 618 0 l 1,24,-1
 94 0 l 1,25,-1
 94 102 l 1,26,-1
 256 151 l 1,27,-1
 256 1232 l 1,28,-1
 83 1294 l 1,29,-1
 83 1396 l 1,30,-1
 678 1396 l 1,31,-1
 1247 560 l 1,32,-1
 1247 1244 l 1,33,-1
 1076 1293 l 1,34,-1
 1076 1396 l 1,35,-1
 1601 1396 l 1,36,-1
 1601 1293 l 1,37,-1
 1439 1244 l 1,38,-1
 1439 -59 l 2,0,1
EndSplineSet
EndChar

StartChar: eng
Encoding: 331 331 266
Width: 1341
GlyphClass: 1
Flags: MW
LayerCount: 2
Fore
SplineSet
888 -5 m 2,0,-1
 888 671 l 2,1,2
 888 724 888 724 872 758 c 128,-1,3
 856 792 856 792 819.5 808.5 c 128,-1,4
 783 825 783 825 722 825 c 0,5,6
 667 825 667 825 611 812 c 0,7,8
 570 803 570 803 533 790 c 1,9,-1
 533 134 l 1,10,11
 534 134 534 134 636 98 c 1,12,-1
 636 0 l 1,13,-1
 80 0 l 1,14,-1
 80 98 l 1,15,-1
 217 141 l 1,16,-1
 217 767 l 1,17,18
 199 786 199 786 161.5 817 c 128,-1,19
 124 848 124 848 62 897 c 1,20,-1
 62 968 l 1,21,-1
 396 1101 l 1,22,-1
 453 1101 l 1,23,-1
 522 888 l 1,24,25
 590 948 590 948 636 987 c 0,26,27
 696 1037 696 1037 737 1060.5 c 128,-1,28
 778 1084 778 1084 812.5 1091 c 128,-1,29
 847 1098 847 1098 890 1098 c 0,30,31
 1052 1098 1052 1098 1129 1009.5 c 128,-1,32
 1206 921 1206 921 1206 751 c 2,33,-1
 1206 55 l 2,34,35
 1206 -20 1206 -20 1197 -76.5 c 128,-1,36
 1188 -133 1188 -133 1163 -181.5 c 128,-1,37
 1138 -230 1138 -230 1088.5 -279 c 128,-1,38
 1039 -328 1039 -328 958 -386 c 128,-1,39
 877 -444 877 -444 756 -519 c 1,40,-1
 674 -394 l 1,41,42
 751 -310 751 -310 795 -257.5 c 128,-1,43
 839 -205 839 -205 859 -167.5 c 128,-1,44
 879 -130 879 -130 883.5 -93.5 c 128,-1,45
 888 -57 888 -57 888 -5 c 2,0,-1
EndSplineSet
EndChar

StartChar: OE
Encoding: 338 338 273
Width: 2255
GlyphClass: 1
Flags: MW
LayerCount: 2
Fore
SplineSet
815 0 m 2,0,1
 577 0 577 0 416.5 77 c 128,-1,2
 256 154 256 154 175.5 304 c 128,-1,3
 95 454 95 454 95 672 c 0,4,5
 95 849 95 849 147.5 984 c 128,-1,6
 200 1119 200 1119 296.5 1210.5 c 128,-1,7
 393 1302 393 1302 526 1349 c 128,-1,8
 659 1396 659 1396 822 1396 c 2,9,-1
 1047 1396 l 1,10,-1
 1392 1396 l 1,11,-1
 1916 1396 l 1,12,-1
 2021 1475 l 1,13,-1
 2118 1475 l 1,14,-1
 2137 982 l 1,15,-1
 1999 979 l 1,16,-1
 1908 1209 l 1,17,-1
 1392 1209 l 1,18,-1
 1392 814 l 1,19,-1
 1668 814 l 1,20,-1
 1685 984 l 1,21,-1
 1821 984 l 1,22,-1
 1821 727 l 1,23,-1
 1821 470 l 1,24,-1
 1685 470 l 1,25,-1
 1668 643 l 1,26,-1
 1392 643 l 1,27,-1
 1392 187 l 1,28,-1
 1908 187 l 1,29,-1
 2047 471 l 1,30,-1
 2186 468 l 1,31,-1
 2101 -84 l 1,32,-1
 1990 -84 l 1,33,-1
 1905 0 l 1,34,-1
 1392 0 l 1,35,-1
 1047 0 l 1,36,-1
 815 0 l 2,0,1
1047 1209 m 1,37,-1
 844 1209 l 2,38,39
 716 1209 716 1209 628 1155.5 c 128,-1,40
 540 1102 540 1102 495 986 c 128,-1,41
 450 870 450 870 450 683 c 0,42,43
 450 512 450 512 496 402.5 c 128,-1,44
 542 293 542 293 637.5 240 c 128,-1,45
 733 187 733 187 883 187 c 2,46,-1
 1047 187 l 1,47,-1
 1047 1209 l 1,37,-1
EndSplineSet
EndChar

StartChar: oe
Encoding: 339 339 274
Width: 1879
GlyphClass: 2
Flags: MW
AnchorPoint: "Anchor-4" 947 0 basechar 0
AnchorPoint: "Anchor-0" 947 1071 basechar 0
LayerCount: 2
Fore
SplineSet
610 173 m 128,-1,1
 683 173 683 173 732.5 206.5 c 128,-1,2
 782 240 782 240 806 314 c 128,-1,3
 830 388 830 388 830 508 c 0,4,5
 830 643 830 643 808 729 c 128,-1,6
 786 815 786 815 739 857 c 128,-1,7
 692 899 692 899 618 899 c 0,8,9
 545 899 545 899 496 865.5 c 128,-1,10
 447 832 447 832 422 758 c 128,-1,11
 397 684 397 684 397 564 c 0,12,13
 397 430 397 430 420 343 c 128,-1,14
 443 256 443 256 490 214.5 c 128,-1,0
 537 173 537 173 610 173 c 128,-1,1
1499 672 m 1,15,16
 1495 752 1495 752 1481 802 c 0,17,18
 1462 868 1462 868 1423 895.5 c 128,-1,19
 1384 923 1384 923 1327 923 c 0,20,21
 1264 923 1264 923 1221 893 c 128,-1,22
 1178 863 1178 863 1156 794 c 0,23,24
 1140 744 1140 744 1136 667 c 1,25,-1
 1499 672 l 1,15,16
1138 524 m 1,26,27
 1145 440 1145 440 1170 382 c 0,28,29
 1205 298 1205 298 1278.5 259.5 c 128,-1,30
 1352 221 1352 221 1468 221 c 0,31,32
 1529 221 1529 221 1581.5 229 c 128,-1,33
 1634 237 1634 237 1682.5 251 c 128,-1,34
 1731 265 1731 265 1778 283 c 1,35,-1
 1786 170 l 1,36,37
 1705 105 1705 105 1630 60.5 c 128,-1,38
 1555 16 1555 16 1486 -5.5 c 128,-1,39
 1417 -27 1417 -27 1353 -27 c 0,40,41
 1186 -27 1186 -27 1071 56 c 0,42,43
 1023 90 1023 90 984 134 c 1,44,45
 944 91 944 91 894 57 c 0,46,47
 773 -27 773 -27 600 -27 c 0,48,49
 437 -27 437 -27 320 40.5 c 128,-1,50
 203 108 203 108 141 232.5 c 128,-1,51
 79 357 79 357 79 529 c 0,52,53
 79 704 79 704 145 832 c 128,-1,54
 211 960 211 960 334 1029 c 128,-1,55
 457 1098 457 1098 626 1098 c 0,56,57
 786 1098 786 1098 898 1021 c 0,58,59
 951 984 951 984 994 937 c 1,60,61
 1036 984 1036 984 1086 1020 c 0,62,63
 1194 1098 1194 1098 1344 1098 c 0,64,65
 1499 1098 1499 1098 1597.5 1036 c 128,-1,66
 1696 974 1696 974 1746 847 c 128,-1,67
 1796 720 1796 720 1802 524 c 1,68,-1
 1138 524 l 1,26,27
EndSplineSet
EndChar

StartChar: Scedilla
Encoding: 350 350 285
Width: 1292
GlyphClass: 1
Flags: MW
LayerCount: 2
Fore
SplineSet
559 -481 m 0,0,1
 467 -481 467 -481 433.5 -457.5 c 128,-1,2
 400 -434 400 -434 400 -393 c 0,3,4
 400 -362 400 -362 416.5 -346 c 128,-1,5
 433 -330 433 -330 452 -330 c 0,6,7
 467 -330 467 -330 488 -345 c 128,-1,8
 509 -360 509 -360 536 -375 c 128,-1,9
 563 -390 563 -390 594 -390 c 0,10,11
 638 -390 638 -390 658.5 -373.5 c 128,-1,12
 679 -357 679 -357 679 -324 c 0,13,14
 679 -300 679 -300 663.5 -283.5 c 128,-1,15
 648 -267 648 -267 602.5 -253 c 128,-1,16
 557 -239 557 -239 465 -226 c 1,17,-1
 465 -197 l 1,18,-1
 595 -25 l 1,19,20
 584 -25 584 -25 573 -25 c 0,21,22
 453 -25 453 -25 357 -15.5 c 128,-1,23
 261 -6 261 -6 161 27 c 1,24,-1
 107 435 l 1,25,26
 108 435 108 435 238 435 c 1,27,-1
 388 173 l 1,28,29
 455 160 455 160 542 160 c 0,30,31
 666 160 666 160 740.5 181.5 c 128,-1,32
 815 203 815 203 848 247 c 128,-1,33
 881 291 881 291 881 360 c 0,34,35
 881 426 881 426 847 464.5 c 128,-1,36
 813 503 813 503 756 524.5 c 128,-1,37
 699 546 699 546 629.5 559 c 128,-1,38
 560 572 560 572 488 588 c 0,39,40
 418 604 418 604 350.5 629 c 128,-1,41
 283 654 283 654 230 698.5 c 128,-1,42
 177 743 177 743 145.5 815.5 c 128,-1,43
 114 888 114 888 114 998 c 0,44,45
 114 1136 114 1136 181.5 1230.5 c 128,-1,46
 249 1325 249 1325 376.5 1373 c 128,-1,47
 504 1421 504 1421 682 1421 c 0,48,49
 786 1421 786 1421 874 1402 c 0,50,51
 907 1396 907 1396 940 1385 c 1,52,-1
 1014 1476 l 1,53,-1
 1122 1476 l 1,54,-1
 1140 983 l 1,55,-1
 1000 980 l 1,56,-1
 905 1196 l 1,57,58
 872 1212 872 1212 834 1221 c 0,59,60
 766 1238 766 1238 680 1238 c 0,61,62
 553 1238 553 1238 486 1201.5 c 128,-1,63
 419 1165 419 1165 419 1076 c 0,64,65
 419 1019 419 1019 447 984.5 c 128,-1,66
 475 950 475 950 524.5 929 c 128,-1,67
 574 908 574 908 638 893.5 c 128,-1,68
 702 879 702 879 774 864 c 0,69,70
 846 848 846 848 920 824 c 128,-1,71
 994 800 994 800 1056 755 c 128,-1,72
 1118 710 1118 710 1155.5 633 c 128,-1,73
 1193 556 1193 556 1193 436 c 0,74,75
 1193 279 1193 279 1120.5 176.5 c 128,-1,76
 1048 74 1048 74 910 24 c 0,77,78
 825 -6 825 -6 719 -17 c 1,79,-1
 653 -102 l 1,80,81
 710 -116 710 -116 745 -134 c 0,82,83
 801 -161 801 -161 820.5 -197 c 128,-1,84
 840 -233 840 -233 840 -279 c 0,85,86
 840 -347 840 -347 804.5 -391.5 c 128,-1,87
 769 -436 769 -436 705.5 -458.5 c 128,-1,88
 642 -481 642 -481 559 -481 c 0,0,1
EndSplineSet
Substitution2: "'locl' Localized Forms in Latin lookup 1 subtable" uni0218
Substitution2: "'locl' Localized Forms in Latin lookup 0 subtable" uni0218
EndChar

StartChar: uni0162
Encoding: 354 354 289
Width: 1501
GlyphClass: 1
Flags: MW
LayerCount: 2
Fore
SplineSet
659 -481 m 0,0,1
 567 -481 567 -481 534 -457.5 c 128,-1,2
 501 -434 501 -434 501 -393 c 0,3,4
 501 -362 501 -362 517.5 -346 c 128,-1,5
 534 -330 534 -330 553 -330 c 0,6,7
 567 -330 567 -330 588.5 -345 c 128,-1,8
 610 -360 610 -360 636.5 -375 c 128,-1,9
 663 -390 663 -390 694 -390 c 0,10,11
 738 -390 738 -390 758.5 -373.5 c 128,-1,12
 779 -357 779 -357 779 -324 c 0,13,14
 779 -300 779 -300 764 -283.5 c 128,-1,15
 749 -267 749 -267 703 -253 c 128,-1,16
 657 -239 657 -239 565 -226 c 1,17,-1
 565 -197 l 1,18,-1
 715 0 l 1,19,-1
 407 0 l 1,20,-1
 407 102 l 1,21,-1
 578 152 l 1,22,-1
 578 1194 l 1,23,-1
 303 1194 l 1,24,-1
 187 912 l 1,25,-1
 46 915 l 1,26,-1
 108 1485 l 1,27,-1
 211 1485 l 1,28,-1
 291 1396 l 1,29,-1
 1210 1396 l 1,30,-1
 1291 1485 l 1,31,-1
 1394 1485 l 1,32,-1
 1456 915 l 1,33,-1
 1315 912 l 1,34,-1
 1199 1194 l 1,35,-1
 922 1194 l 1,36,-1
 922 152 l 1,37,-1
 1092 102 l 1,38,-1
 1092 0 l 1,39,-1
 833 0 l 1,40,-1
 754 -102 l 1,41,42
 810 -116 810 -116 846 -134 c 0,43,44
 902 -161 902 -161 921 -197 c 128,-1,45
 940 -233 940 -233 940 -279 c 0,46,47
 940 -347 940 -347 904.5 -391.5 c 128,-1,48
 869 -436 869 -436 805.5 -458.5 c 128,-1,49
 742 -481 742 -481 659 -481 c 0,0,1
EndSplineSet
EndChar

StartChar: Tbar
Encoding: 358 358 293
Width: 1502
GlyphClass: 1
Flags: MW
LayerCount: 2
Fore
SplineSet
316 597 m 1,0,-1
 316 760 l 1,1,-1
 578 760 l 1,2,-1
 578 1194 l 1,3,-1
 304 1194 l 1,4,-1
 187 912 l 1,5,-1
 46 915 l 1,6,-1
 108 1485 l 1,7,-1
 211 1485 l 1,8,-1
 292 1396 l 1,9,-1
 1211 1396 l 1,10,-1
 1292 1485 l 1,11,-1
 1395 1485 l 1,12,-1
 1457 915 l 1,13,-1
 1315 912 l 1,14,-1
 1199 1194 l 1,15,-1
 922 1194 l 1,16,-1
 922 760 l 1,17,-1
 1185 760 l 1,18,-1
 1185 597 l 1,19,-1
 922 597 l 1,20,-1
 922 152 l 1,21,-1
 1093 102 l 1,22,-1
 1093 0 l 1,23,-1
 408 0 l 1,24,-1
 408 102 l 1,25,-1
 578 152 l 1,26,-1
 578 597 l 1,27,-1
 316 597 l 1,0,-1
EndSplineSet
EndChar

StartChar: tbar
Encoding: 359 359 294
Width: 942
GlyphClass: 1
Flags: MW
LayerCount: 2
Fore
SplineSet
526 361 m 2,0,1
 526 278 526 278 568 242.5 c 128,-1,2
 610 207 610 207 708 207 c 0,3,4
 751 207 751 207 801.5 215.5 c 128,-1,5
 852 224 852 224 912 240 c 1,6,-1
 912 120 l 1,7,8
 811 64 811 64 742.5 32 c 128,-1,9
 674 0 674 0 621.5 -13.5 c 128,-1,10
 569 -27 569 -27 521 -27 c 0,11,12
 426 -27 426 -27 356 6.5 c 128,-1,13
 286 40 286 40 248 107 c 128,-1,14
 210 174 210 174 210 275 c 2,15,-1
 210 501 l 1,16,-1
 55 501 l 1,17,-1
 55 633 l 1,18,-1
 210 633 l 1,19,-1
 210 846 l 1,20,-1
 35 968 l 1,21,-1
 35 1048 l 1,22,23
 67 1063 67 1063 107.5 1085 c 128,-1,24
 148 1107 148 1107 191 1134.5 c 128,-1,25
 234 1162 234 1162 277.5 1193.5 c 128,-1,26
 321 1225 321 1225 361.5 1258 c 128,-1,27
 402 1291 402 1291 436 1323 c 1,28,-1
 526 1323 l 1,29,-1
 526 1071 l 1,30,-1
 884 1071 l 1,31,-1
 880 869 l 1,32,-1
 526 869 l 1,33,-1
 526 633 l 1,34,-1
 821 633 l 1,35,-1
 821 501 l 1,36,-1
 526 501 l 1,37,-1
 526 361 l 2,0,1
EndSplineSet
EndChar

StartChar: Uogonek
Encoding: 370 370 305
Width: 1633
GlyphClass: 1
Flags: MW
LayerCount: 2
Fore
SplineSet
914 -78 m 2,0,1
 888 -124 888 -124 874 -155.5 c 128,-1,2
 860 -187 860 -187 854 -211 c 128,-1,3
 848 -235 848 -235 848 -260 c 0,4,5
 848 -302 848 -302 872 -324 c 128,-1,6
 896 -346 896 -346 935 -346 c 0,7,8
 964 -346 964 -346 990 -338 c 128,-1,9
 1016 -330 1016 -330 1054 -307 c 1,10,-1
 1062 -386 l 1,11,12
 1022 -422 1022 -422 990 -443 c 128,-1,13
 958 -464 958 -464 926.5 -472.5 c 128,-1,14
 895 -481 895 -481 858 -481 c 0,15,16
 766 -481 766 -481 724 -436.5 c 128,-1,17
 682 -392 682 -392 682 -317 c 0,18,19
 682 -282 682 -282 691.5 -248 c 128,-1,20
 701 -214 701 -214 728 -170 c 128,-1,21
 755 -126 755 -126 809 -61 c 2,22,-1
 838 -25 l 1,23,24
 838 -25 838 -25 838 -25 c 1,25,26
 631 -25 631 -25 492 33.5 c 128,-1,27
 353 92 353 92 284 215 c 128,-1,28
 215 338 215 338 215 530 c 2,29,-1
 215 1244 l 1,30,-1
 50 1293 l 1,31,-1
 50 1396 l 1,32,-1
 723 1396 l 1,33,-1
 723 1293 l 1,34,-1
 560 1244 l 1,35,-1
 560 545 l 2,36,37
 560 437 560 437 597 367 c 128,-1,38
 634 297 634 297 709 263 c 128,-1,39
 784 229 784 229 896 229 c 128,-1,40
 1008 229 1008 229 1081 264 c 128,-1,41
 1154 299 1154 299 1190.5 370.5 c 128,-1,42
 1227 442 1227 442 1227 552 c 2,43,-1
 1227 1244 l 1,44,-1
 1061 1293 l 1,45,-1
 1061 1396 l 1,46,-1
 1584 1396 l 1,47,-1
 1584 1293 l 1,48,-1
 1419 1244 l 1,49,-1
 1419 545 l 2,50,51
 1419 353 1419 353 1352.5 226.5 c 128,-1,52
 1286 100 1286 100 1156 38 c 0,53,54
 1067 -6 1067 -6 948 -19 c 1,55,-1
 914 -78 l 2,0,1
EndSplineSet
EndChar

StartChar: uni018F
Encoding: 399 399 318
Width: 1482
GlyphClass: 1
Flags: MW
LayerCount: 2
Fore
SplineSet
1050 722 m 1,0,1
 1040 845 1040 845 1005 930 c 0,2,3
 956 1047 956 1047 852.5 1099.5 c 128,-1,4
 749 1152 749 1152 586 1152 c 0,5,6
 496 1152 496 1152 416.5 1141.5 c 128,-1,7
 337 1131 337 1131 266 1111 c 128,-1,8
 195 1091 195 1091 127 1064 c 1,9,-1
 113 1200 l 1,10,11
 224 1279 224 1279 326 1327.5 c 128,-1,12
 428 1376 428 1376 521.5 1398.5 c 128,-1,13
 615 1421 615 1421 700 1421 c 0,14,15
 916 1421 916 1421 1070 1338 c 128,-1,16
 1224 1255 1224 1255 1306.5 1098 c 128,-1,17
 1389 941 1389 941 1389 719 c 0,18,19
 1389 552 1389 552 1343.5 415 c 128,-1,20
 1298 278 1298 278 1210 179.5 c 128,-1,21
 1122 81 1122 81 995.5 28 c 128,-1,22
 869 -25 869 -25 707 -25 c 0,23,24
 499 -25 499 -25 366.5 55.5 c 128,-1,25
 234 136 234 136 167 301.5 c 128,-1,26
 100 467 100 467 90 722 c 1,27,-1
 1050 722 l 1,0,1
1050 520 m 1,28,-1
 432 520 l 1,29,30
 440 422 440 422 462 358 c 0,31,32
 496 263 496 263 561.5 223 c 128,-1,33
 627 183 627 183 724 183 c 0,34,35
 803 183 803 183 864.5 206.5 c 128,-1,36
 926 230 926 230 968 280.5 c 128,-1,37
 1010 331 1010 331 1032 414 c 0,38,39
 1044 461 1044 461 1050 520 c 1,28,-1
EndSplineSet
EndChar

StartChar: Ohorn
Encoding: 416 416 320
Width: 1627
GlyphClass: 2
Flags: MW
AnchorPoint: "Anchor-4" 808 0 basechar 0
LayerCount: 2
Fore
SplineSet
823 1421 m 0,0,1
 893 1421 893 1421 947 1414 c 128,-1,2
 1001 1407 1001 1407 1050 1400 c 128,-1,3
 1099 1393 1099 1393 1152 1393 c 0,4,5
 1237 1393 1237 1393 1269 1420.5 c 128,-1,6
 1301 1448 1301 1448 1301 1491 c 0,7,8
 1301 1523 1301 1523 1291.5 1547 c 128,-1,9
 1282 1571 1282 1571 1273 1588 c 128,-1,10
 1264 1605 1264 1605 1264 1614 c 0,11,12
 1265 1647 1265 1647 1299 1670.5 c 128,-1,13
 1333 1694 1333 1694 1377 1694 c 0,14,15
 1434 1694 1434 1694 1472 1660 c 128,-1,16
 1510 1626 1510 1626 1510 1546 c 0,17,18
 1510 1433 1510 1433 1447 1364 c 0,19,20
 1389 1300 1389 1300 1264 1287 c 1,21,22
 1344 1228 1344 1228 1398 1146 c 0,23,24
 1460 1054 1460 1054 1491 940.5 c 128,-1,25
 1522 827 1522 827 1522 700 c 0,26,27
 1522 533 1522 533 1471 399.5 c 128,-1,28
 1420 266 1420 266 1324.5 171 c 128,-1,29
 1229 76 1229 76 1094.5 25.5 c 128,-1,30
 960 -25 960 -25 792 -25 c 0,31,32
 629 -25 629 -25 499.5 25.5 c 128,-1,33
 370 76 370 76 279 170 c 128,-1,34
 188 264 188 264 140.5 397 c 128,-1,35
 93 530 93 530 93 696 c 128,-1,36
 93 862 93 862 144 996 c 128,-1,37
 195 1130 195 1130 291 1225 c 128,-1,38
 387 1320 387 1320 521.5 1370.5 c 128,-1,39
 656 1421 656 1421 823 1421 c 0,0,1
812 187 m 0,40,41
 927 187 927 187 1007 237.5 c 128,-1,42
 1087 288 1087 288 1128.5 390.5 c 128,-1,43
 1170 493 1170 493 1170 647 c 0,44,45
 1170 835 1170 835 1129 959.5 c 128,-1,46
 1088 1084 1088 1084 1006.5 1146.5 c 128,-1,47
 925 1209 925 1209 803 1209 c 0,48,49
 689 1209 689 1209 608.5 1158.5 c 128,-1,50
 528 1108 528 1108 486.5 1005.5 c 128,-1,51
 445 903 445 903 445 749 c 0,52,53
 445 562 445 562 486 437 c 128,-1,54
 527 312 527 312 608.5 249.5 c 128,-1,55
 690 187 690 187 812 187 c 0,40,41
EndSplineSet
EndChar

StartChar: Uhorn
Encoding: 431 431 322
Width: 1672
GlyphClass: 2
Flags: MW
AnchorPoint: "Anchor-4" 857 0 basechar 0
LayerCount: 2
Fore
SplineSet
1575 1491 m 0,0,1
 1575 1523 1575 1523 1566 1547 c 128,-1,2
 1557 1571 1557 1571 1548 1587.5 c 128,-1,3
 1539 1604 1539 1604 1539 1614 c 0,4,5
 1540 1647 1540 1647 1573.5 1670.5 c 128,-1,6
 1607 1694 1607 1694 1652 1694 c 0,7,8
 1709 1694 1709 1694 1747.5 1660 c 128,-1,9
 1786 1626 1786 1626 1786 1546 c 128,-1,10
 1786 1466 1786 1466 1751 1404.5 c 128,-1,11
 1716 1343 1716 1343 1635.5 1304 c 128,-1,12
 1555 1265 1555 1265 1419 1250 c 1,13,-1
 1419 545 l 2,14,15
 1419 353 1419 353 1352.5 226.5 c 128,-1,16
 1286 100 1286 100 1156.5 37.5 c 128,-1,17
 1027 -25 1027 -25 838 -25 c 0,18,19
 631 -25 631 -25 492 33.5 c 128,-1,20
 353 92 353 92 284 215 c 128,-1,21
 215 338 215 338 215 530 c 2,22,-1
 215 1244 l 1,23,-1
 50 1293 l 1,24,-1
 50 1396 l 1,25,-1
 723 1396 l 1,26,-1
 723 1293 l 1,27,-1
 560 1244 l 1,28,-1
 560 545 l 2,29,30
 560 437 560 437 597 367 c 128,-1,31
 634 297 634 297 709 263 c 128,-1,32
 784 229 784 229 896 229 c 128,-1,33
 1008 229 1008 229 1081 264 c 128,-1,34
 1154 299 1154 299 1190.5 370.5 c 128,-1,35
 1227 442 1227 442 1227 552 c 2,36,-1
 1227 1244 l 1,37,-1
 1061 1293 l 1,38,-1
 1061 1396 l 1,39,-1
 1437 1396 l 2,40,41
 1491 1396 1491 1396 1520.5 1407 c 128,-1,42
 1550 1418 1550 1418 1562.5 1439.5 c 128,-1,43
 1575 1461 1575 1461 1575 1491 c 0,0,1
EndSplineSet
EndChar

StartChar: uni01EA
Encoding: 490 490 335
Width: 1615
GlyphClass: 1
Flags: MW
LayerCount: 2
Fore
SplineSet
865 -77 m 2,0,1
 837 -123 837 -123 823 -154.5 c 128,-1,2
 809 -186 809 -186 804 -209.5 c 128,-1,3
 799 -233 799 -233 799 -257 c 0,4,5
 799 -301 799 -301 822.5 -323.5 c 128,-1,6
 846 -346 846 -346 885 -346 c 0,7,8
 914 -346 914 -346 940 -338 c 128,-1,9
 966 -330 966 -330 1004 -307 c 1,10,-1
 1013 -386 l 1,11,12
 973 -422 973 -422 940.5 -443 c 128,-1,13
 908 -464 908 -464 877 -472.5 c 128,-1,14
 846 -481 846 -481 808 -481 c 0,15,16
 716 -481 716 -481 674.5 -436.5 c 128,-1,17
 633 -392 633 -392 633 -317 c 0,18,19
 633 -282 633 -282 641.5 -247.5 c 128,-1,20
 650 -213 650 -213 677.5 -168.5 c 128,-1,21
 705 -124 705 -124 760 -60 c 2,22,-1
 790 -25 l 1,23,24
 628 -25 628 -25 500 26 c 0,25,26
 370 76 370 76 279 170 c 128,-1,27
 188 264 188 264 140.5 397 c 128,-1,28
 93 530 93 530 93 696 c 128,-1,29
 93 862 93 862 144 996 c 128,-1,30
 195 1130 195 1130 291 1225 c 128,-1,31
 387 1320 387 1320 521.5 1370.5 c 128,-1,32
 656 1421 656 1421 823 1421 c 0,33,34
 986 1421 986 1421 1115.5 1370.5 c 128,-1,35
 1245 1320 1245 1320 1336 1226 c 128,-1,36
 1427 1132 1427 1132 1474.5 999 c 128,-1,37
 1522 866 1522 866 1522 700 c 0,38,39
 1522 533 1522 533 1471 399.5 c 128,-1,40
 1420 266 1420 266 1324.5 171 c 128,-1,41
 1229 76 1229 76 1094 26 c 0,42,43
 1005 -8 1005 -8 900 -19 c 1,44,-1
 865 -77 l 2,0,1
812 187 m 0,45,46
 927 187 927 187 1007 237.5 c 128,-1,47
 1087 288 1087 288 1128.5 390.5 c 128,-1,48
 1170 493 1170 493 1170 647 c 0,49,50
 1170 835 1170 835 1129 959.5 c 128,-1,51
 1088 1084 1088 1084 1006.5 1146.5 c 128,-1,52
 925 1209 925 1209 803 1209 c 0,53,54
 689 1209 689 1209 608.5 1158.5 c 128,-1,55
 528 1108 528 1108 486.5 1005.5 c 128,-1,56
 445 903 445 903 445 749 c 0,57,58
 445 562 445 562 486 437 c 128,-1,59
 527 312 527 312 608.5 249.5 c 128,-1,60
 690 187 690 187 812 187 c 0,45,46
EndSplineSet
EndChar

StartChar: uni0237
Encoding: 567 567 379
Width: 666
GlyphClass: 2
Flags: MW
AnchorPoint: "Anchor-4" 316 -508 basechar 0
AnchorPoint: "Anchor-0" 323 1071 basechar 0
LayerCount: 2
Fore
SplineSet
198 779 m 1,0,1
 187 791 187 791 161 812 c 128,-1,2
 135 833 135 833 103.5 857 c 128,-1,3
 72 881 72 881 43 903 c 1,4,-1
 43 981 l 1,5,-1
 446 1098 l 1,6,-1
 532 1098 l 1,7,-1
 515 799 l 1,8,-1
 515 55 l 2,9,10
 515 -20 515 -20 506 -76.5 c 128,-1,11
 497 -133 497 -133 471.5 -181.5 c 128,-1,12
 446 -230 446 -230 397 -279 c 128,-1,13
 348 -328 348 -328 267 -386 c 128,-1,14
 186 -444 186 -444 65 -519 c 1,15,-1
 -18 -394 l 1,16,17
 59 -310 59 -310 102.5 -257.5 c 128,-1,18
 146 -205 146 -205 166.5 -167.5 c 128,-1,19
 187 -130 187 -130 192.5 -93.5 c 128,-1,20
 198 -57 198 -57 198 -5 c 2,21,-1
 198 779 l 1,0,1
EndSplineSet
EndChar

StartChar: uni0259
Encoding: 601 601 380
Width: 1120
GlyphClass: 1
Flags: MW
LayerCount: 2
Fore
SplineSet
535 -27 m 0,0,1
 381 -27 381 -27 283 34.5 c 128,-1,2
 185 96 185 96 135.5 224 c 128,-1,3
 86 352 86 352 78 548 c 1,4,-1
 742 548 l 1,5,6
 735 631 735 631 710 688 c 0,7,8
 675 773 675 773 601.5 811.5 c 128,-1,9
 528 850 528 850 413 850 c 0,10,11
 352 850 352 850 299 842.5 c 128,-1,12
 246 835 246 835 197.5 821 c 128,-1,13
 149 807 149 807 103 787 c 1,14,-1
 95 901 l 1,15,16
 176 968 176 968 250.5 1011 c 128,-1,17
 325 1054 325 1054 394.5 1076 c 128,-1,18
 464 1098 464 1098 526 1098 c 0,19,20
 688 1098 688 1098 802.5 1034 c 128,-1,21
 917 970 917 970 978.5 848 c 128,-1,22
 1040 726 1040 726 1040 552 c 0,23,24
 1040 379 1040 379 981 248.5 c 128,-1,25
 922 118 922 118 809 45.5 c 128,-1,26
 696 -27 696 -27 535 -27 c 0,0,1
382 399 m 1,27,28
 386 320 386 320 400 270 c 0,29,30
 419 203 419 203 457.5 175.5 c 128,-1,31
 496 148 496 148 553 148 c 0,32,33
 616 148 616 148 659 178 c 128,-1,34
 702 208 702 208 724 278 c 0,35,36
 740 329 740 329 744 404 c 1,37,-1
 382 399 l 1,27,28
EndSplineSet
EndChar

StartChar: gravecomb
Encoding: 768 768 392
Width: 0
GlyphClass: 4
Flags: MW
AnchorPoint: "Anchor-6" -14 1486 basemark 0
AnchorPoint: "Anchor-6" 0 992 mark 0
AnchorPoint: "Anchor-0" 0 992 mark 0
LayerCount: 2
Fore
SplineSet
84 1106 m 1,0,-1
 -58 1106 l 1,1,-1
 -380 1380 l 1,2,-1
 -380 1433 l 1,3,-1
 -68 1433 l 1,4,-1
 84 1106 l 1,0,-1
EndSplineSet
EndChar

StartChar: acutecomb
Encoding: 769 769 393
Width: 0
GlyphClass: 4
Flags: MW
AnchorPoint: "Anchor-6" 14 1486 basemark 0
AnchorPoint: "Anchor-6" 0 992 mark 0
AnchorPoint: "Anchor-0" 0 992 mark 0
LayerCount: 2
Fore
SplineSet
-84 1106 m 1,0,-1
 68 1433 l 1,1,-1
 380 1433 l 1,2,-1
 380 1380 l 1,3,-1
 58 1106 l 1,4,-1
 -84 1106 l 1,0,-1
EndSplineSet
EndChar

StartChar: uni0302
Encoding: 770 770 394
Width: 0
GlyphClass: 4
Flags: MW
AnchorPoint: "Anchor-6" 0 1433 basemark 0
AnchorPoint: "Anchor-6" 0 992 mark 0
AnchorPoint: "Anchor-0" 0 992 mark 0
LayerCount: 2
Fore
SplineSet
-352 1106 m 1,0,-1
 -117 1433 l 1,1,-1
 117 1433 l 2,2,3
 118 1433 118 1433 352 1106 c 1,4,-1
 169 1106 l 1,5,-1
 0 1263 l 1,6,-1
 -169 1106 l 1,7,-1
 -352 1106 l 1,0,-1
EndSplineSet
EndChar

StartChar: tildecomb
Encoding: 771 771 395
Width: 0
GlyphClass: 4
Flags: MW
AnchorPoint: "Anchor-6" 0 1354 basemark 0
AnchorPoint: "Anchor-6" 0 992 mark 0
AnchorPoint: "Anchor-0" 0 992 mark 0
LayerCount: 2
Fore
SplineSet
323 1425 m 1,0,1
 309 1296 309 1296 285 1228 c 128,-1,2
 261 1160 261 1160 222.5 1135 c 128,-1,3
 184 1110 184 1110 126 1110 c 0,4,5
 85 1110 85 1110 52 1129 c 128,-1,6
 19 1148 19 1148 -9.5 1172.5 c 128,-1,7
 -38 1197 -38 1197 -63.5 1216 c 128,-1,8
 -89 1235 -89 1235 -114 1235 c 0,9,10
 -134 1235 -134 1235 -148 1225.5 c 128,-1,11
 -162 1216 -162 1216 -171 1190 c 128,-1,12
 -180 1164 -180 1164 -188 1114 c 1,13,-1
 -327 1114 l 1,14,15
 -313 1243 -313 1243 -289 1311 c 128,-1,16
 -265 1379 -265 1379 -226 1404 c 128,-1,17
 -187 1429 -187 1429 -130 1429 c 0,18,19
 -89 1429 -89 1429 -56 1410 c 128,-1,20
 -23 1391 -23 1391 5 1366.5 c 128,-1,21
 33 1342 33 1342 59.5 1322.5 c 128,-1,22
 86 1303 86 1303 110 1303 c 0,23,24
 131 1303 131 1303 144 1312.5 c 128,-1,25
 157 1322 157 1322 166.5 1348.5 c 128,-1,26
 176 1375 176 1375 184 1425 c 1,27,-1
 323 1425 l 1,0,1
EndSplineSet
EndChar

StartChar: uni0304
Encoding: 772 772 396
Width: 0
GlyphClass: 4
Flags: MW
AnchorPoint: "Anchor-6" 0 1433 basemark 0
AnchorPoint: "Anchor-6" 0 992 mark 0
AnchorPoint: "Anchor-0" 0 992 mark 0
LayerCount: 2
Fore
SplineSet
-301 1194 m 1,0,-1
 -301 1346 l 1,1,-1
 301 1346 l 1,2,-1
 301 1194 l 1,3,-1
 -301 1194 l 1,0,-1
EndSplineSet
EndChar

StartChar: uni0306
Encoding: 774 774 397
Width: 0
GlyphClass: 4
Flags: MW
AnchorPoint: "Anchor-6" 0 1433 basemark 0
AnchorPoint: "Anchor-6" 0 992 mark 0
AnchorPoint: "Anchor-0" 0 992 mark 0
LayerCount: 2
Fore
SplineSet
0 1281 m 0,0,1
 57 1281 57 1281 94 1296 c 128,-1,2
 131 1311 131 1311 154 1344 c 128,-1,3
 177 1377 177 1377 190 1433 c 1,4,-1
 316 1433 l 1,5,6
 299 1305 299 1305 262 1232.5 c 128,-1,7
 225 1160 225 1160 161 1131 c 128,-1,8
 97 1102 97 1102 0 1102 c 128,-1,9
 -97 1102 -97 1102 -160.5 1131 c 128,-1,10
 -224 1160 -224 1160 -261.5 1232.5 c 128,-1,11
 -299 1305 -299 1305 -316 1433 c 1,12,-1
 -190 1433 l 1,13,14
 -177 1377 -177 1377 -154 1344 c 128,-1,15
 -131 1311 -131 1311 -93.5 1296 c 128,-1,16
 -56 1281 -56 1281 0 1281 c 0,0,1
EndSplineSet
EndChar

StartChar: uni0307
Encoding: 775 775 398
Width: 0
GlyphClass: 4
Flags: MW
AnchorPoint: "Anchor-6" 0 1354 basemark 0
AnchorPoint: "Anchor-6" 0 992 mark 0
AnchorPoint: "Anchor-0" 0 992 mark 0
LayerCount: 2
Fore
SplineSet
0 1131 m 128,-1,1
 -84 1131 -84 1131 -125.5 1168 c 128,-1,2
 -167 1205 -167 1205 -167 1271 c 0,3,4
 -167 1338 -167 1338 -125.5 1373 c 128,-1,5
 -84 1408 -84 1408 0 1408 c 128,-1,6
 84 1408 84 1408 125.5 1373 c 128,-1,7
 167 1338 167 1338 167 1271 c 0,8,9
 167 1205 167 1205 125.5 1168 c 128,-1,0
 84 1131 84 1131 0 1131 c 128,-1,1
EndSplineSet
EndChar

StartChar: uni0308
Encoding: 776 776 399
Width: 0
GlyphClass: 4
Flags: MW
AnchorPoint: "Anchor-6" 0 1354 basemark 0
AnchorPoint: "Anchor-6" 0 992 mark 0
AnchorPoint: "Anchor-0" 0 992 mark 0
LayerCount: 2
Fore
SplineSet
218 1138 m 0,0,1
 148 1138 148 1138 112.5 1173.5 c 128,-1,2
 77 1209 77 1209 77 1272 c 0,3,4
 77 1334 77 1334 112 1367.5 c 128,-1,5
 147 1401 147 1401 218 1401 c 0,6,7
 287 1401 287 1401 322 1367.5 c 128,-1,8
 357 1334 357 1334 357 1272 c 0,9,10
 357 1209 357 1209 322 1173.5 c 128,-1,11
 287 1138 287 1138 218 1138 c 0,0,1
-217 1138 m 128,-1,13
 -287 1138 -287 1138 -322 1173.5 c 128,-1,14
 -357 1209 -357 1209 -357 1272 c 0,15,16
 -357 1334 -357 1334 -322 1367.5 c 128,-1,17
 -287 1401 -287 1401 -217 1401 c 128,-1,18
 -147 1401 -147 1401 -112 1367.5 c 128,-1,19
 -77 1334 -77 1334 -77 1272 c 0,20,21
 -77 1209 -77 1209 -112 1173.5 c 128,-1,12
 -147 1138 -147 1138 -217 1138 c 128,-1,13
EndSplineSet
EndChar

StartChar: hookabovecomb
Encoding: 777 777 400
Width: 0
GlyphClass: 4
Flags: MW
AnchorPoint: "Anchor-6" 0 1433 basemark 0
AnchorPoint: "Anchor-6" 0 992 mark 0
AnchorPoint: "Anchor-0" 0 992 mark 0
LayerCount: 2
Fore
SplineSet
-192 1316 m 1,0,-1
 -181 1482 l 1,1,2
 -49 1481 -49 1481 31.5 1469.5 c 128,-1,3
 112 1458 112 1458 154.5 1436 c 128,-1,4
 197 1414 197 1414 211.5 1382 c 128,-1,5
 226 1350 226 1350 226 1308 c 0,6,7
 226 1257 226 1257 200.5 1215 c 128,-1,8
 175 1173 175 1173 109 1141.5 c 128,-1,9
 43 1110 43 1110 -79 1089 c 1,10,-1
 -96 1175 l 1,11,12
 -32 1187 -32 1187 -1.5 1198.5 c 128,-1,13
 29 1210 29 1210 38.5 1224.5 c 128,-1,14
 48 1239 48 1239 48 1256 c 0,15,16
 48 1277 48 1277 33 1290.5 c 128,-1,17
 18 1304 18 1304 -33 1311 c 128,-1,18
 -84 1318 -84 1318 -192 1316 c 1,0,-1
EndSplineSet
EndChar

StartChar: uni030A
Encoding: 778 778 401
Width: 0
GlyphClass: 4
Flags: MW
AnchorPoint: "Anchor-6" 0 1433 basemark 0
AnchorPoint: "Anchor-6" 0 992 mark 0
AnchorPoint: "Anchor-0" 0 992 mark 0
LayerCount: 2
Fore
SplineSet
-2 1161 m 128,-1,1
 46 1161 46 1161 74.5 1192 c 128,-1,2
 103 1223 103 1223 103 1273 c 0,3,4
 103 1326 103 1326 74.5 1357 c 128,-1,5
 46 1388 46 1388 -2 1388 c 128,-1,6
 -50 1388 -50 1388 -78.5 1357 c 128,-1,7
 -107 1326 -107 1326 -107 1273 c 0,8,9
 -107 1223 -107 1223 -78.5 1192 c 128,-1,0
 -50 1161 -50 1161 -2 1161 c 128,-1,1
-3 1458 m 0,10,11
 78 1458 78 1458 127.5 1407 c 128,-1,12
 177 1356 177 1356 177 1273 c 0,13,14
 177 1191 177 1191 127.5 1139.5 c 128,-1,15
 78 1088 78 1088 -3 1088 c 0,16,17
 -82 1088 -82 1088 -131.5 1139.5 c 128,-1,18
 -181 1191 -181 1191 -181 1273 c 0,19,20
 -181 1356 -181 1356 -131.5 1407 c 128,-1,21
 -82 1458 -82 1458 -3 1458 c 0,10,11
EndSplineSet
EndChar

StartChar: uni030B
Encoding: 779 779 402
Width: 0
GlyphClass: 4
Flags: MW
AnchorPoint: "Anchor-6" 0 1433 basemark 0
AnchorPoint: "Anchor-6" 0 992 mark 0
AnchorPoint: "Anchor-0" 0 992 mark 0
LayerCount: 2
Fore
SplineSet
-247 1106 m 1,0,-1
 -191 1433 l 1,1,-1
 81 1433 l 1,2,-1
 81 1388 l 1,3,-1
 -116 1106 l 1,4,-1
 -247 1106 l 1,0,-1
69 1106 m 1,5,-1
 224 1433 l 1,6,-1
 519 1433 l 1,7,-1
 519 1380 l 1,8,-1
 207 1106 l 1,9,-1
 69 1106 l 1,5,-1
EndSplineSet
EndChar

StartChar: uni030C
Encoding: 780 780 403
Width: 0
GlyphClass: 4
Flags: MW
AnchorPoint: "Anchor-6" 0 1433 basemark 0
AnchorPoint: "Anchor-6" 0 992 mark 0
AnchorPoint: "Anchor-0" 0 992 mark 0
LayerCount: 2
Fore
SplineSet
0 1275 m 1,0,-1
 169 1433 l 2,1,2
 170 1433 170 1433 352 1433 c 1,3,-1
 117 1106 l 1,4,-1
 -117 1106 l 2,5,6
 -118 1106 -118 1106 -352 1433 c 1,7,-1
 -169 1433 l 1,8,-1
 0 1275 l 1,0,-1
EndSplineSet
EndChar

StartChar: uni030F
Encoding: 783 783 404
Width: 0
GlyphClass: 4
Flags: MW
AnchorPoint: "Anchor-6" 0 1433 basemark 0
AnchorPoint: "Anchor-6" 0 992 mark 0
AnchorPoint: "Anchor-0" 0 992 mark 0
LayerCount: 2
Fore
SplineSet
247 1106 m 1,0,-1
 116 1106 l 1,1,-1
 -81 1388 l 1,2,-1
 -81 1433 l 1,3,-1
 191 1433 l 1,4,-1
 247 1106 l 1,0,-1
-69 1106 m 1,5,-1
 -207 1106 l 1,6,-1
 -519 1380 l 1,7,-1
 -519 1433 l 1,8,-1
 -224 1433 l 1,9,-1
 -69 1106 l 1,5,-1
EndSplineSet
EndChar

StartChar: uni0311
Encoding: 785 785 405
Width: 0
GlyphClass: 4
Flags: MW
AnchorPoint: "Anchor-6" 0 1433 basemark 0
AnchorPoint: "Anchor-6" 0 992 mark 0
AnchorPoint: "Anchor-0" 0 992 mark 0
LayerCount: 2
Fore
SplineSet
0 1257 m 0,0,1
 -56 1257 -56 1257 -93.5 1242.5 c 128,-1,2
 -131 1228 -131 1228 -154 1194.5 c 128,-1,3
 -177 1161 -177 1161 -190 1106 c 1,4,-1
 -316 1106 l 1,5,6
 -299 1235 -299 1235 -261.5 1306.5 c 128,-1,7
 -224 1378 -224 1378 -160.5 1407.5 c 128,-1,8
 -97 1437 -97 1437 0 1437 c 128,-1,9
 97 1437 97 1437 161 1407.5 c 128,-1,10
 225 1378 225 1378 262 1306.5 c 128,-1,11
 299 1235 299 1235 316 1106 c 1,12,-1
 190 1106 l 1,13,14
 177 1161 177 1161 154 1194.5 c 128,-1,15
 131 1228 131 1228 94 1242.5 c 128,-1,16
 57 1257 57 1257 0 1257 c 0,0,1
EndSplineSet
EndChar

StartChar: uni0312
Encoding: 786 786 406
Width: 0
GlyphClass: 4
Flags: MW
AnchorPoint: "Anchor-6" 0 1433 basemark 0
AnchorPoint: "Anchor-6" 0 992 mark 0
AnchorPoint: "Anchor-0" 0 992 mark 0
LayerCount: 2
Fore
SplineSet
139 1224 m 0,0,1
 139 1166 139 1166 106 1130.5 c 128,-1,2
 73 1095 73 1095 2 1095 c 0,3,4
 -61 1095 -61 1095 -98 1130 c 128,-1,5
 -135 1165 -135 1165 -135 1248 c 0,6,7
 -135 1298 -135 1298 -112 1344.5 c 128,-1,8
 -89 1391 -89 1391 -32.5 1426 c 128,-1,9
 24 1461 24 1461 125 1476 c 1,10,-1
 141 1394 l 1,11,12
 74 1382 74 1382 51 1363 c 128,-1,13
 28 1344 28 1344 28 1315 c 0,14,15
 28 1293 28 1293 44.5 1278.5 c 128,-1,16
 61 1264 61 1264 83 1255 c 128,-1,17
 105 1246 105 1246 122 1239 c 128,-1,18
 139 1232 139 1232 139 1224 c 0,0,1
EndSplineSet
EndChar

StartChar: uni031B
Encoding: 795 795 407
Width: 0
GlyphClass: 4
Flags: MW
AnchorPoint: "Anchor-2" 0 995 mark 0
LayerCount: 2
Fore
SplineSet
373 1146 m 0,0,1
 373 1022 373 1022 295.5 953.5 c 128,-1,2
 218 885 218 885 62 885 c 2,3,-1
 -80 885 l 1,4,-1
 -80 995 l 1,5,-1
 15 995 l 2,6,7
 73 995 73 995 105 1006 c 128,-1,8
 137 1017 137 1017 149.5 1038.5 c 128,-1,9
 162 1060 162 1060 162 1090 c 0,10,11
 162 1122 162 1122 153.5 1146 c 128,-1,12
 145 1170 145 1170 135.5 1186.5 c 128,-1,13
 126 1203 126 1203 126 1213 c 0,14,15
 128 1246 128 1246 161.5 1270 c 128,-1,16
 195 1294 195 1294 239 1294 c 0,17,18
 296 1294 296 1294 334.5 1259.5 c 128,-1,19
 373 1225 373 1225 373 1146 c 0,0,1
EndSplineSet
EndChar

StartChar: dotbelowcomb
Encoding: 803 803 408
Width: 0
GlyphClass: 4
Flags: MW
AnchorPoint: "Anchor-5" 0 -481 basemark 0
AnchorPoint: "Anchor-5" 0 0 mark 0
AnchorPoint: "Anchor-4" 0 0 mark 0
LayerCount: 2
Fore
SplineSet
0 -365 m 128,-1,1
 -84 -365 -84 -365 -125.5 -328 c 128,-1,2
 -167 -291 -167 -291 -167 -224 c 0,3,4
 -167 -158 -167 -158 -125.5 -123 c 128,-1,5
 -84 -88 -84 -88 0 -88 c 128,-1,6
 84 -88 84 -88 125.5 -123 c 128,-1,7
 167 -158 167 -158 167 -224 c 0,8,9
 167 -291 167 -291 125.5 -328 c 128,-1,0
 84 -365 84 -365 0 -365 c 128,-1,1
EndSplineSet
EndChar

StartChar: uni0324
Encoding: 804 804 409
Width: 0
GlyphClass: 4
Flags: MW
AnchorPoint: "Anchor-5" 0 -481 basemark 0
AnchorPoint: "Anchor-5" 0 0 mark 0
AnchorPoint: "Anchor-4" 0 0 mark 0
LayerCount: 2
Fore
SplineSet
218 -358 m 0,0,1
 148 -358 148 -358 112.5 -323 c 128,-1,2
 77 -288 77 -288 77 -225 c 128,-1,3
 77 -162 77 -162 112 -128.5 c 128,-1,4
 147 -95 147 -95 218 -95 c 0,5,6
 287 -95 287 -95 322 -128.5 c 128,-1,7
 357 -162 357 -162 357 -225 c 128,-1,8
 357 -288 357 -288 322 -323 c 128,-1,9
 287 -358 287 -358 218 -358 c 0,0,1
-217 -358 m 128,-1,11
 -287 -358 -287 -358 -322 -323 c 128,-1,12
 -357 -288 -357 -288 -357 -225 c 128,-1,13
 -357 -162 -357 -162 -322 -128.5 c 128,-1,14
 -287 -95 -287 -95 -217 -95 c 128,-1,15
 -147 -95 -147 -95 -112 -128.5 c 128,-1,16
 -77 -162 -77 -162 -77 -225 c 128,-1,17
 -77 -288 -77 -288 -112 -323 c 128,-1,10
 -147 -358 -147 -358 -217 -358 c 128,-1,11
EndSplineSet
EndChar

StartChar: uni0326
Encoding: 806 806 410
Width: 0
GlyphClass: 4
Flags: MW
AnchorPoint: "Anchor-5" 0 -481 basemark 0
AnchorPoint: "Anchor-5" 0 0 mark 0
AnchorPoint: "Anchor-4" 0 0 mark 0
LayerCount: 2
Fore
SplineSet
-125 -392 m 1,0,1
 -56 -377 -56 -377 -33.5 -360 c 128,-1,2
 -11 -343 -11 -343 -11 -310 c 0,3,4
 -11 -285 -11 -285 -28.5 -270 c 128,-1,5
 -46 -255 -46 -255 -68 -245 c 128,-1,6
 -90 -235 -90 -235 -107 -227.5 c 128,-1,7
 -124 -220 -124 -220 -124 -211 c 0,8,9
 -124 -151 -124 -151 -91 -119.5 c 128,-1,10
 -58 -88 -58 -88 10 -88 c 0,11,12
 72 -88 72 -88 108 -123.5 c 128,-1,13
 144 -159 144 -159 144 -242 c 0,14,15
 144 -293 144 -293 123.5 -339.5 c 128,-1,16
 103 -386 103 -386 47.5 -421 c 128,-1,17
 -8 -456 -8 -456 -109 -475 c 1,18,-1
 -125 -392 l 1,0,1
EndSplineSet
EndChar

StartChar: uni0327
Encoding: 807 807 411
Width: 0
GlyphClass: 4
Flags: MW
AnchorPoint: "Anchor-5" 4 -481 basemark 0
AnchorPoint: "Anchor-5" 0 0 mark 0
AnchorPoint: "Anchor-4" 0 0 mark 0
LayerCount: 2
Fore
SplineSet
-92 -481 m 0,0,1
 -184 -481 -184 -481 -217.5 -457.5 c 128,-1,2
 -251 -434 -251 -434 -251 -393 c 0,3,4
 -251 -362 -251 -362 -234.5 -346 c 128,-1,5
 -218 -330 -218 -330 -198 -330 c 0,6,7
 -184 -330 -184 -330 -162.5 -345 c 128,-1,8
 -141 -360 -141 -360 -114 -375 c 128,-1,9
 -87 -390 -87 -390 -57 -390 c 0,10,11
 -12 -390 -12 -390 8 -373.5 c 128,-1,12
 28 -357 28 -357 28 -324 c 0,13,14
 28 -300 28 -300 12.5 -283.5 c 128,-1,15
 -3 -267 -3 -267 -48.5 -253.5 c 128,-1,16
 -94 -240 -94 -240 -185 -226 c 1,17,-1
 -185 -197 l 1,18,-1
 -6 40 l 1,19,-1
 113 40 l 2,20,21
 114 40 114 40 3 -102 c 1,22,23
 60 -116 60 -116 94 -134 c 0,24,25
 150 -161 150 -161 169.5 -197 c 128,-1,26
 189 -233 189 -233 189 -279 c 0,27,28
 189 -347 189 -347 154 -391.5 c 128,-1,29
 119 -436 119 -436 55.5 -458.5 c 128,-1,30
 -8 -481 -8 -481 -92 -481 c 0,0,1
EndSplineSet
EndChar

StartChar: uni0328
Encoding: 808 808 412
Width: 0
GlyphClass: 4
Flags: MW
AnchorPoint: "Anchor-3" 0 0 mark 0
LayerCount: 2
Fore
SplineSet
-126 -78 m 2,0,1
 -156 -124 -156 -124 -172.5 -156 c 128,-1,2
 -189 -188 -189 -188 -195 -212.5 c 128,-1,3
 -201 -237 -201 -237 -201 -260 c 0,4,5
 -201 -302 -201 -302 -177.5 -324 c 128,-1,6
 -154 -346 -154 -346 -114 -346 c 0,7,8
 -86 -346 -86 -346 -60 -338 c 128,-1,9
 -34 -330 -34 -330 4 -307 c 1,10,-1
 12 -386 l 1,11,12
 -28 -422 -28 -422 -60 -443 c 128,-1,13
 -92 -464 -92 -464 -123.5 -472.5 c 128,-1,14
 -155 -481 -155 -481 -192 -481 c 0,15,16
 -284 -481 -284 -481 -326 -436.5 c 128,-1,17
 -368 -392 -368 -392 -368 -317 c 0,18,19
 -368 -282 -368 -282 -358 -248 c 128,-1,20
 -348 -214 -348 -214 -319 -169.5 c 128,-1,21
 -290 -125 -290 -125 -232 -61 c 2,22,-1
 -118 66 l 1,23,-1
 -32 66 l 1,24,-1
 -126 -78 l 2,0,1
EndSplineSet
EndChar

StartChar: uni032E
Encoding: 814 814 413
Width: 0
GlyphClass: 4
Flags: MW
AnchorPoint: "Anchor-5" 0 -481 basemark 0
AnchorPoint: "Anchor-5" 0 0 mark 0
AnchorPoint: "Anchor-4" 0 0 mark 0
LayerCount: 2
Fore
SplineSet
0 -211 m 0,0,1
 57 -211 57 -211 94 -196.5 c 128,-1,2
 131 -182 131 -182 154 -148.5 c 128,-1,3
 177 -115 177 -115 190 -60 c 1,4,-1
 316 -60 l 1,5,6
 299 -188 299 -188 262 -260 c 128,-1,7
 225 -332 225 -332 161 -361.5 c 128,-1,8
 97 -391 97 -391 0 -391 c 128,-1,9
 -97 -391 -97 -391 -160.5 -361.5 c 128,-1,10
 -224 -332 -224 -332 -261.5 -260 c 128,-1,11
 -299 -188 -299 -188 -316 -60 c 1,12,-1
 -190 -60 l 1,13,14
 -177 -115 -177 -115 -154 -148.5 c 128,-1,15
 -131 -182 -131 -182 -93.5 -196.5 c 128,-1,16
 -56 -211 -56 -211 0 -211 c 0,0,1
EndSplineSet
EndChar

StartChar: uni0331
Encoding: 817 817 414
Width: 0
GlyphClass: 4
Flags: MW
AnchorPoint: "Anchor-5" 0 -481 basemark 0
AnchorPoint: "Anchor-5" 0 0 mark 0
AnchorPoint: "Anchor-4" 0 0 mark 0
LayerCount: 2
Fore
SplineSet
-301 -310 m 1,0,-1
 -301 -150 l 1,1,-1
 301 -150 l 1,2,-1
 301 -310 l 1,3,-1
 -301 -310 l 1,0,-1
EndSplineSet
EndChar

StartChar: uni0335
Encoding: 821 821 415
Width: 0
GlyphClass: 4
Flags: MW
AnchorPoint: "Anchor-1" 0 1175 mark 0
LayerCount: 2
Fore
SplineSet
-354 1114 m 1,0,-1
 -354 1236 l 1,1,-1
 354 1236 l 1,2,-1
 354 1114 l 1,3,-1
 -354 1114 l 1,0,-1
EndSplineSet
EndChar

StartChar: endash
Encoding: 8211 8211 514
Width: 1013
GlyphClass: 1
Flags: MW
LayerCount: 2
Fore
SplineSet
114 586 m 1,0,-1
 901 586 l 1,1,-1
 901 417 l 1,2,-1
 114 417 l 1,3,-1
 114 586 l 1,0,-1
EndSplineSet
Substitution2: "'case' Case-Sensitive Forms in Latin lookup 9 subtable" endash.case
EndChar

StartChar: emdash
Encoding: 8212 8212 515
Width: 1327
GlyphClass: 1
Flags: MW
LayerCount: 2
Fore
SplineSet
114 586 m 1,0,-1
 1214 586 l 1,1,-1
 1214 417 l 1,2,-1
 114 417 l 1,3,-1
 114 586 l 1,0,-1
EndSplineSet
Substitution2: "'case' Case-Sensitive Forms in Latin lookup 9 subtable" emdash.case
EndChar

StartChar: quoteleft
Encoding: 8216 8216 516
Width: 555
GlyphClass: 1
Flags: MW
LayerCount: 2
Fore
SplineSet
477 1310 m 1,0,1
 378 1263 378 1263 345.5 1225 c 128,-1,2
 313 1187 313 1187 313 1141 c 0,3,4
 313 1110 313 1110 333.5 1086 c 128,-1,5
 354 1062 354 1062 381 1043 c 128,-1,6
 408 1024 408 1024 428.5 1007 c 128,-1,7
 449 990 449 990 449 973 c 0,8,9
 449 898 449 898 401.5 846.5 c 128,-1,10
 354 795 354 795 270 795 c 0,11,12
 183 795 183 795 132.5 847.5 c 128,-1,13
 82 900 82 900 82 992 c 0,14,15
 82 1087 82 1087 113 1162 c 128,-1,16
 144 1237 144 1237 219 1299.5 c 128,-1,17
 294 1362 294 1362 426 1418 c 1,18,-1
 477 1310 l 1,0,1
EndSplineSet
EndChar

StartChar: quoteright
Encoding: 8217 8217 517
Width: 554
GlyphClass: 1
Flags: MW
LayerCount: 2
Fore
SplineSet
88 902 m 1,0,1
 188 950 188 950 220.5 987.5 c 128,-1,2
 253 1025 253 1025 253 1071 c 0,3,4
 253 1102 253 1102 232 1126 c 128,-1,5
 211 1150 211 1150 184.5 1169 c 128,-1,6
 158 1188 158 1188 137 1205 c 128,-1,7
 116 1222 116 1222 116 1239 c 0,8,9
 116 1315 116 1315 164 1366 c 128,-1,10
 212 1417 212 1417 295 1417 c 0,11,12
 382 1417 382 1417 433 1365 c 128,-1,13
 484 1313 484 1313 484 1220 c 0,14,15
 484 1125 484 1125 452.5 1050 c 128,-1,16
 421 975 421 975 346 913 c 128,-1,17
 271 851 271 851 140 795 c 1,18,-1
 88 902 l 1,0,1
EndSplineSet
EndChar

StartChar: quotesinglbase
Encoding: 8218 8218 518
Width: 553
GlyphClass: 1
Flags: MW
LayerCount: 2
Fore
SplineSet
61 -164 m 1,0,1
 160 -116 160 -116 192.5 -78.5 c 128,-1,2
 225 -41 225 -41 225 5 c 0,3,4
 225 36 225 36 204 59.5 c 128,-1,5
 183 83 183 83 156 102.5 c 128,-1,6
 129 122 129 122 108.5 139 c 128,-1,7
 88 156 88 156 88 173 c 0,8,9
 88 249 88 249 135.5 300 c 128,-1,10
 183 351 183 351 268 351 c 0,11,12
 355 351 355 351 405.5 298.5 c 128,-1,13
 456 246 456 246 456 154 c 0,14,15
 456 59 456 59 424.5 -16 c 128,-1,16
 393 -91 393 -91 318 -153 c 128,-1,17
 243 -215 243 -215 112 -272 c 1,18,-1
 61 -164 l 1,0,1
EndSplineSet
EndChar

StartChar: dagger
Encoding: 8224 8224 522
Width: 801
GlyphClass: 1
Flags: MW
LayerCount: 2
Fore
SplineSet
314 1258 m 1,0,-1
 280 1448 l 1,1,-1
 522 1448 l 1,2,-1
 488 1258 l 1,3,-1
 699 1282 l 1,4,-1
 699 1074 l 1,5,-1
 488 1098 l 1,6,-1
 520 912 l 1,7,-1
 456 664 l 1,8,-1
 343 664 l 1,9,-1
 283 912 l 1,10,-1
 314 1098 l 1,11,-1
 103 1074 l 1,12,-1
 103 1282 l 1,13,-1
 314 1258 l 1,0,-1
EndSplineSet
EndChar

StartChar: daggerdbl
Encoding: 8225 8225 523
Width: 836
GlyphClass: 1
Flags: MW
LayerCount: 2
Fore
SplineSet
322 995 m 1,0,-1
 318 1054 l 1,1,-1
 322 1116 l 1,2,-1
 121 1109 l 1,3,-1
 121 1290 l 1,4,-1
 323 1267 l 1,5,-1
 297 1448 l 1,6,-1
 540 1448 l 1,7,-1
 514 1267 l 1,8,-1
 716 1290 l 1,9,-1
 716 1109 l 1,10,-1
 515 1116 l 1,11,-1
 519 1054 l 1,12,-1
 515 995 l 1,13,-1
 716 1003 l 1,14,-1
 716 822 l 1,15,-1
 514 845 l 1,16,-1
 540 664 l 1,17,-1
 297 664 l 1,18,-1
 323 845 l 1,19,-1
 121 822 l 1,20,-1
 121 1003 l 1,21,-1
 322 995 l 1,0,-1
EndSplineSet
EndChar

StartChar: bullet
Encoding: 8226 8226 524
Width: 892
GlyphClass: 1
Flags: MW
LayerCount: 2
Fore
SplineSet
446 803 m 0,0,1
 534 803 534 803 599 766 c 128,-1,2
 664 729 664 729 700.5 661.5 c 128,-1,3
 737 594 737 594 737 502 c 128,-1,4
 737 410 737 410 700.5 342 c 128,-1,5
 664 274 664 274 599 237 c 128,-1,6
 534 200 534 200 446 200 c 0,7,8
 359 200 359 200 293.5 237 c 128,-1,9
 228 274 228 274 191.5 342 c 128,-1,10
 155 410 155 410 155 502 c 128,-1,11
 155 594 155 594 191.5 661.5 c 128,-1,12
 228 729 228 729 293.5 766 c 128,-1,13
 359 803 359 803 446 803 c 0,0,1
EndSplineSet
EndChar

StartChar: minute
Encoding: 8242 8242 527
Width: 499
GlyphClass: 1
Flags: MW
LayerCount: 2
Fore
SplineSet
108 841 m 1,0,-1
 157 1396 l 1,1,-1
 441 1396 l 1,2,-1
 441 1336 l 1,3,-1
 275 841 l 1,4,-1
 108 841 l 1,0,-1
EndSplineSet
EndChar

StartChar: guilsinglleft
Encoding: 8249 8249 529
Width: 700
GlyphClass: 1
Flags: MW
LayerCount: 2
Fore
SplineSet
384 500 m 1,0,-1
 618 120 l 1,1,-1
 504 12 l 1,2,-1
 76 412 l 1,3,-1
 76 588 l 1,4,-1
 504 988 l 1,5,-1
 618 880 l 1,6,-1
 384 500 l 1,0,-1
EndSplineSet
Substitution2: "'case' Case-Sensitive Forms in Latin lookup 9 subtable" guilsinglleft.case
EndChar

StartChar: guilsinglright
Encoding: 8250 8250 530
Width: 728
GlyphClass: 1
Flags: MW
LayerCount: 2
Fore
SplineSet
326 500 m 1,0,-1
 91 880 l 1,1,-1
 205 988 l 1,2,-1
 634 588 l 1,3,-1
 634 412 l 1,4,-1
 205 12 l 1,5,-1
 91 120 l 1,6,-1
 326 500 l 1,0,-1
EndSplineSet
Substitution2: "'case' Case-Sensitive Forms in Latin lookup 9 subtable" guilsinglright.case
EndChar

StartChar: fraction
Encoding: 8260 8260 531
Width: 152
GlyphClass: 1
Flags: MW
LayerCount: 2
Fore
SplineSet
-473 0 m 1,0,-1
 445 1396 l 1,1,-1
 627 1396 l 1,2,-1
 -290 0 l 1,3,-1
 -473 0 l 1,0,-1
EndSplineSet
EndChar

StartChar: zerosuperior
Encoding: 8304 8304 533
Width: 849
GlyphClass: 1
Flags: MW
LayerCount: 2
Fore
SplineSet
424 629 m 0,0,1
 315 629 315 629 235 674.5 c 128,-1,2
 155 720 155 720 111.5 807 c 128,-1,3
 68 894 68 894 68 1019 c 0,4,5
 68 1148 68 1148 111.5 1235.5 c 128,-1,6
 155 1323 155 1323 235 1368.5 c 128,-1,7
 315 1414 315 1414 427 1414 c 0,8,9
 536 1414 536 1414 615.5 1368.5 c 128,-1,10
 695 1323 695 1323 738 1236 c 128,-1,11
 781 1149 781 1149 781 1023 c 0,12,13
 781 895 781 895 738 807.5 c 128,-1,14
 695 720 695 720 615 674.5 c 128,-1,15
 535 629 535 629 424 629 c 0,0,1
428 779 m 0,16,17
 495 779 495 779 528.5 835.5 c 128,-1,18
 562 892 562 892 562 1005 c 0,19,20
 562 1093 562 1093 547 1150.5 c 128,-1,21
 532 1208 532 1208 501 1236 c 128,-1,22
 470 1264 470 1264 423 1264 c 0,23,24
 357 1264 357 1264 322.5 1207.5 c 128,-1,25
 288 1151 288 1151 288 1038 c 0,26,27
 288 950 288 950 303 892.5 c 128,-1,28
 318 835 318 835 349.5 807 c 128,-1,29
 381 779 381 779 428 779 c 0,16,17
EndSplineSet
EndChar

StartChar: uni2074
Encoding: 8308 8308 534
Width: 821
GlyphClass: 1
Flags: MW
LayerCount: 2
Fore
SplineSet
594 863 m 1,0,-1
 594 751 l 1,1,-1
 702 721 l 1,2,-1
 702 645 l 1,3,-1
 238 645 l 1,4,-1
 238 721 l 1,5,-1
 361 751 l 1,6,-1
 361 863 l 1,7,-1
 39 863 l 1,8,-1
 39 986 l 1,9,-1
 361 1396 l 1,10,-1
 594 1396 l 1,11,-1
 594 997 l 1,12,-1
 670 997 l 1,13,-1
 786 1013 l 1,14,-1
 749 863 l 1,15,-1
 594 863 l 1,0,-1
361 997 m 1,16,-1
 361 1248 l 1,17,-1
 157 997 l 1,18,-1
 361 997 l 1,16,-1
EndSplineSet
EndChar

StartChar: uni20A6
Encoding: 8358 8358 538
Width: 1308
GlyphClass: 1
Flags: MW
LayerCount: 2
Fore
SplineSet
1299 966 m 1,0,-1
 1299 830 l 1,1,-1
 1127 830 l 1,2,-1
 1127 639 l 1,3,-1
 1299 639 l 1,4,-1
 1299 503 l 1,5,-1
 1127 503 l 1,6,-1
 1127 -2 l 1,7,-1
 822 -2 l 1,8,-1
 612 503 l 1,9,-1
 357 503 l 1,10,-1
 357 137 l 1,11,-1
 493 97 l 1,12,-1
 493 0 l 1,13,-1
 66 0 l 1,14,-1
 66 97 l 1,15,-1
 200 137 l 1,16,-1
 200 503 l 1,17,-1
 19 503 l 1,18,-1
 19 639 l 1,19,-1
 200 639 l 1,20,-1
 200 830 l 1,21,-1
 19 830 l 1,22,-1
 19 966 l 1,23,-1
 200 966 l 1,24,-1
 200 1246 l 1,25,-1
 58 1299 l 1,26,-1
 58 1396 l 1,27,-1
 566 1396 l 1,28,-1
 744 966 l 1,29,-1
 969 966 l 1,30,-1
 969 1258 l 1,31,-1
 835 1299 l 1,32,-1
 835 1396 l 1,33,-1
 1261 1396 l 1,34,-1
 1261 1299 l 1,35,-1
 1127 1258 l 1,36,-1
 1127 966 l 1,37,-1
 1299 966 l 1,0,-1
357 1118 m 1,38,-1
 357 966 l 1,39,-1
 420 966 l 1,40,-1
 357 1118 l 1,38,-1
969 425 m 1,41,-1
 969 503 l 1,42,-1
 937 503 l 1,43,-1
 969 425 l 1,41,-1
969 830 m 1,44,-1
 801 830 l 1,45,-1
 880 639 l 1,46,-1
 969 639 l 1,47,-1
 969 830 l 1,44,-1
476 830 m 1,48,-1
 357 830 l 1,49,-1
 357 639 l 1,50,-1
 556 639 l 1,51,-1
 476 830 l 1,48,-1
EndSplineSet
Substitution2: "'rvrn' Required Variation Alternates in Latin lookup 11 subtable" uni20A6.1
Substitution2: "'tnum' Tabular Numbers in Latin lookup 7 subtable" uni20A6
Substitution2: "'pnum' Proportional Numbers in Latin lookup 6 subtable" uni20A6.lf
EndChar

StartChar: peseta
Encoding: 8359 8359 539
Width: 1308
GlyphClass: 1
Flags: MW
LayerCount: 2
Fore
SplineSet
1206 954 m 0,0,1
 1243 954 1243 954 1270 948 c 0,2,3
 1296 943 1296 943 1320 931 c 1,4,-1
 1331 693 l 1,5,-1
 1268 693 l 1,6,-1
 1238 820 l 2,7,8
 1235 820 1235 820 1231 820 c 0,9,10
 1194 820 1194 820 1177 797.5 c 128,-1,11
 1160 775 1160 775 1160 730 c 0,12,13
 1160 680 1160 680 1179.5 649.5 c 128,-1,14
 1199 619 1199 619 1228 592 c 128,-1,15
 1257 565 1257 565 1285 528 c 128,-1,16
 1313 491 1313 491 1332.5 428 c 128,-1,17
 1352 365 1352 365 1352 261 c 0,18,19
 1352 119 1352 119 1299 50.5 c 128,-1,20
 1246 -18 1246 -18 1150 -18 c 0,21,22
 1120 -18 1120 -18 1087 -12 c 128,-1,23
 1054 -6 1054 -6 1028 6 c 1,24,-1
 1009 266 l 1,25,26
 1010 266 1010 266 1074 266 c 1,27,-1
 1115 121 l 1,28,29
 1156 122 1156 122 1176 146 c 0,30,31
 1197 171 1197 171 1197 229 c 0,32,33
 1197 283 1197 283 1178 315 c 128,-1,34
 1159 347 1159 347 1131.5 372 c 128,-1,35
 1104 397 1104 397 1076.5 432 c 128,-1,36
 1049 467 1049 467 1030 525 c 128,-1,37
 1011 583 1011 583 1011 683 c 0,38,39
 1011 816 1011 816 1063 885 c 128,-1,40
 1115 954 1115 954 1206 954 c 0,0,1
679 193 m 2,41,-1
 679 757 l 1,42,43
 678 757 678 757 636 757 c 1,44,-1
 636 853 l 1,45,46
 678 880 678 880 704.5 907.5 c 128,-1,47
 731 935 731 935 749 980.5 c 128,-1,48
 767 1026 767 1026 784 1107 c 1,49,-1
 871 1107 l 1,50,-1
 871 922 l 1,51,-1
 961 922 l 1,52,-1
 959 757 l 1,53,-1
 871 757 l 1,54,-1
 871 227 l 2,55,56
 871 181 871 181 881 165.5 c 128,-1,57
 891 150 891 150 915 150 c 0,58,59
 930 150 930 150 945 153.5 c 128,-1,60
 960 157 960 157 978 167 c 1,61,-1
 978 40 l 1,62,63
 938 8 938 8 902.5 -4.5 c 128,-1,64
 867 -17 867 -17 831 -17 c 0,65,66
 784 -17 784 -17 750.5 0.5 c 128,-1,67
 717 18 717 18 698 63.5 c 128,-1,68
 679 109 679 109 679 193 c 2,41,-1
290 136 m 1,69,-1
 391 99 l 1,70,-1
 391 0 l 1,71,-1
 -12 0 l 1,72,-1
 -12 99 l 1,73,-1
 76 135 l 1,74,-1
 76 1261 l 1,75,-1
 -12 1296 l 1,76,-1
 -12 1396 l 1,77,-1
 185 1396 l 1,78,-1
 290 1396 l 1,79,-1
 348 1396 l 2,80,81
 438 1396 438 1396 495.5 1348 c 128,-1,82
 553 1300 553 1300 580.5 1205.5 c 128,-1,83
 608 1111 608 1111 608 970 c 0,84,85
 608 834 608 834 581.5 739 c 128,-1,86
 555 644 555 644 500.5 594.5 c 128,-1,87
 446 545 446 545 362 545 c 2,88,-1
 290 545 l 1,89,-1
 290 136 l 1,69,-1
290 1215 m 1,90,-1
 290 717 l 1,91,-1
 315 717 l 2,92,93
 351 717 351 717 374 742 c 128,-1,94
 397 767 397 767 408 823 c 128,-1,95
 419 879 419 879 419 971 c 0,96,97
 419 1055 419 1055 409.5 1109 c 128,-1,98
 400 1163 400 1163 376.5 1189 c 128,-1,99
 353 1215 353 1215 309 1215 c 2,100,-1
 290 1215 l 1,90,-1
EndSplineSet
Substitution2: "'tnum' Tabular Numbers in Latin lookup 7 subtable" peseta
Substitution2: "'pnum' Proportional Numbers in Latin lookup 6 subtable" peseta.lf
EndChar

StartChar: uni20A9
Encoding: 8361 8361 540
Width: 1308
GlyphClass: 1
Flags: MW
LayerCount: 2
Fore
SplineSet
1326 966 m 1,0,-1
 1326 830 l 1,1,-1
 1186 830 l 1,2,-1
 1168 639 l 1,3,-1
 1326 639 l 1,4,-1
 1326 503 l 1,5,-1
 1155 503 l 1,6,-1
 1109 -2 l 2,7,8
 1108 -2 1108 -2 826 -2 c 1,9,-1
 739 503 l 1,10,-1
 575 503 l 1,11,-1
 467 -2 l 1,12,-1
 190 -2 l 1,13,-1
 148 503 l 1,14,-1
 -16 503 l 1,15,-1
 -16 639 l 1,16,-1
 137 639 l 1,17,-1
 121 830 l 1,18,-1
 -16 830 l 1,19,-1
 -16 966 l 1,20,-1
 110 966 l 1,21,-1
 86 1259 l 1,22,-1
 -20 1298 l 1,23,-1
 -20 1396 l 1,24,-1
 458 1396 l 1,25,-1
 458 1298 l 1,26,-1
 369 1270 l 1,27,-1
 387 966 l 1,28,-1
 540 966 l 1,29,-1
 633 1398 l 1,30,-1
 846 1398 l 1,31,-1
 922 966 l 1,32,-1
 1060 966 l 1,33,-1
 1081 1268 l 1,34,-1
 996 1298 l 1,35,-1
 996 1396 l 1,36,-1
 1325 1396 l 1,37,-1
 1325 1298 l 1,38,-1
 1226 1270 l 1,39,-1
 1198 966 l 1,40,-1
 1326 966 l 1,0,-1
1022 397 m 1,41,-1
 1029 503 l 1,42,-1
 1003 503 l 1,43,-1
 1022 397 l 1,41,-1
420 414 m 1,44,-1
 440 503 l 1,45,-1
 415 503 l 1,46,-1
 420 414 l 1,44,-1
645 830 m 1,47,-1
 604 639 l 1,48,-1
 716 639 l 1,49,-1
 683 830 l 1,50,-1
 645 830 l 1,47,-1
395 830 m 1,51,-1
 407 639 l 1,52,-1
 469 639 l 1,53,-1
 510 830 l 1,54,-1
 395 830 l 1,51,-1
946 830 m 1,55,-1
 979 639 l 1,56,-1
 1038 639 l 1,57,-1
 1051 830 l 1,58,-1
 946 830 l 1,55,-1
EndSplineSet
Substitution2: "'rvrn' Required Variation Alternates in Latin lookup 11 subtable" uni20A9.1
Substitution2: "'tnum' Tabular Numbers in Latin lookup 7 subtable" uni20A9
Substitution2: "'pnum' Proportional Numbers in Latin lookup 6 subtable" uni20A9.lf
EndChar

StartChar: trademark
Encoding: 8482 8482 552
Width: 1729
GlyphClass: 1
Flags: MW
LayerCount: 2
Fore
SplineSet
1548 906 m 1,0,-1
 1616 885 l 1,1,-1
 1616 837 l 1,2,-1
 1320 837 l 1,3,-1
 1320 885 l 1,4,-1
 1378 903 l 1,5,-1
 1353 1302 l 1,6,-1
 1215 836 l 1,7,-1
 1068 836 l 1,8,-1
 928 1292 l 1,9,-1
 907 902 l 1,10,-1
 962 885 l 1,11,-1
 962 837 l 1,12,-1
 753 837 l 1,13,-1
 753 885 l 1,14,-1
 820 903 l 1,15,-1
 845 1321 l 1,16,-1
 770 1348 l 1,17,-1
 770 1397 l 1,18,-1
 1070 1397 l 1,19,-1
 1179 1021 l 1,20,-1
 1287 1397 l 1,21,-1
 1589 1397 l 1,22,-1
 1589 1348 l 1,23,-1
 1523 1327 l 1,24,-1
 1548 906 l 1,0,-1
597 1397 m 1,25,-1
 629 1433 l 1,26,-1
 676 1433 l 1,27,-1
 703 1188 l 1,28,-1
 639 1187 l 1,29,-1
 594 1304 l 1,30,-1
 475 1304 l 1,31,-1
 475 903 l 1,32,-1
 540 883 l 1,33,-1
 540 837 l 1,34,-1
 240 837 l 1,35,-1
 240 883 l 1,36,-1
 306 903 l 1,37,-1
 306 1304 l 1,38,-1
 188 1304 l 1,39,-1
 142 1187 l 1,40,-1
 79 1188 l 2,41,42
 78 1188 78 1188 104 1433 c 1,43,-1
 152 1433 l 1,44,-1
 184 1397 l 1,45,-1
 597 1397 l 1,25,-1
EndSplineSet
EndChar

StartChar: minus
Encoding: 8722 8722 553
Width: 1049
GlyphClass: 1
Flags: MW
LayerCount: 2
Fore
SplineSet
118 595 m 1,0,-1
 933 595 l 1,1,-1
 933 403 l 1,2,-1
 118 403 l 1,3,-1
 118 595 l 1,0,-1
EndSplineSet
EndChar

StartChar: notequal
Encoding: 8800 8800 557
Width: 1049
GlyphClass: 1
Flags: MW
LayerCount: 2
Fore
SplineSet
813 792 m 1,0,-1
 933 792 l 1,1,-1
 933 600 l 1,2,-1
 695 600 l 1,3,-1
 571 398 l 1,4,-1
 933 398 l 1,5,-1
 933 206 l 1,6,-1
 453 206 l 1,7,-1
 329 4 l 1,8,-1
 118 4 l 1,9,-1
 242 206 l 1,10,-1
 118 206 l 1,11,-1
 118 398 l 1,12,-1
 360 398 l 1,13,-1
 484 600 l 1,14,-1
 118 600 l 1,15,-1
 118 792 l 1,16,-1
 602 792 l 1,17,-1
 722 988 l 1,18,-1
 933 988 l 1,19,-1
 813 792 l 1,0,-1
EndSplineSet
EndChar

StartChar: lessequal
Encoding: 8804 8804 558
Width: 1049
GlyphClass: 1
Flags: MW
LayerCount: 2
Fore
SplineSet
74 514 m 1,0,-1
 74 727 l 1,1,-1
 971 1021 l 1,2,-1
 971 819 l 1,3,-1
 306 621 l 1,4,-1
 971 424 l 1,5,-1
 971 220 l 1,6,-1
 74 514 l 1,0,-1
74 192 m 1,7,-1
 971 192 l 1,8,-1
 971 0 l 1,9,-1
 74 0 l 1,10,-1
 74 192 l 1,7,-1
EndSplineSet
EndChar

StartChar: greaterequal
Encoding: 8805 8805 559
Width: 1049
GlyphClass: 1
Flags: MW
LayerCount: 2
Fore
SplineSet
977 514 m 1,0,-1
 80 220 l 1,1,-1
 80 424 l 1,2,-1
 744 621 l 1,3,-1
 80 819 l 1,4,-1
 80 1021 l 1,5,-1
 977 727 l 1,6,-1
 977 514 l 1,0,-1
977 192 m 1,7,-1
 977 0 l 1,8,-1
 80 0 l 1,9,-1
 80 192 l 1,10,-1
 977 192 l 1,7,-1
EndSplineSet
EndChar

StartChar: uni27E8
Encoding: 10216 10216 560
Width: 1049
GlyphClass: 1
Flags: MW
LayerCount: 2
Fore
SplineSet
405 697 m 1,0,-1
 890 0 l 1,1,-1
 651 0 l 1,2,-1
 179 669 l 1,3,-1
 179 726 l 1,4,-1
 651 1396 l 1,5,-1
 890 1396 l 1,6,-1
 405 697 l 1,0,-1
EndSplineSet
EndChar

StartChar: uni27E9
Encoding: 10217 10217 561
Width: 1049
GlyphClass: 1
Flags: MW
LayerCount: 2
Fore
SplineSet
646 697 m 1,0,-1
 161 1396 l 1,1,-1
 399 1396 l 1,2,-1
 872 726 l 1,3,-1
 872 669 l 1,4,-1
 399 0 l 1,5,-1
 161 0 l 1,6,-1
 646 697 l 1,0,-1
EndSplineSet
EndChar

StartChar: f_f
Encoding: 64256 64256 562
Width: 1625
GlyphClass: 1
Flags: MW
LayerCount: 2
Fore
SplineSet
1248 143 m 1,0,-1
 1405 98 l 1,1,-1
 1405 0 l 1,2,-1
 795 0 l 1,3,-1
 795 98 l 1,4,-1
 932 141 l 1,5,-1
 932 869 l 1,6,-1
 553 869 l 1,7,-1
 553 143 l 1,8,-1
 691 98 l 1,9,-1
 691 0 l 1,10,-1
 100 0 l 1,11,-1
 100 98 l 1,12,-1
 236 141 l 1,13,-1
 236 840 l 1,14,-1
 39 926 l 1,15,-1
 39 999 l 1,16,-1
 237 1090 l 1,17,18
 240 1196 240 1196 272 1276 c 0,19,20
 308 1368 308 1368 378 1428.5 c 128,-1,21
 448 1489 448 1489 551.5 1519.5 c 128,-1,22
 655 1550 655 1550 788 1550 c 0,23,24
 878 1550 878 1550 947 1535 c 128,-1,25
 1016 1520 1016 1520 1072 1485 c 0,26,27
 1079 1481 1079 1481 1086 1476 c 1,28,29
 1154 1531 1154 1531 1249 1560 c 0,30,31
 1352 1591 1352 1591 1486 1591 c 128,-1,32
 1620 1591 1620 1591 1697 1569.5 c 128,-1,33
 1774 1548 1774 1548 1806 1507 c 128,-1,34
 1838 1466 1838 1466 1838 1406 c 0,35,36
 1838 1365 1838 1365 1819 1329.5 c 128,-1,37
 1800 1294 1800 1294 1766.5 1273 c 128,-1,38
 1733 1252 1733 1252 1690 1252 c 0,39,40
 1669 1252 1669 1252 1647.5 1276.5 c 128,-1,41
 1626 1301 1626 1301 1598 1333 c 128,-1,42
 1570 1365 1570 1365 1531.5 1390 c 128,-1,43
 1493 1415 1493 1415 1437 1415 c 0,44,45
 1373 1415 1373 1415 1331.5 1393.5 c 128,-1,46
 1290 1372 1290 1372 1269 1326.5 c 128,-1,47
 1248 1281 1248 1281 1248 1207 c 2,48,-1
 1248 1071 l 1,49,-1
 1595 1071 l 1,50,-1
 1589 869 l 1,51,-1
 1248 869 l 1,52,-1
 1248 143 l 1,0,-1
932 1071 m 1,53,-1
 932 1074 l 2,54,55
 932 1195 932 1195 961 1286 c 1,56,57
 935 1312 935 1312 904 1333 c 0,58,59
 840 1375 840 1375 745 1375 c 0,60,61
 680 1375 680 1375 637 1354 c 128,-1,62
 594 1333 594 1333 573.5 1288 c 128,-1,63
 553 1243 553 1243 553 1172 c 2,64,-1
 553 1071 l 1,65,-1
 932 1071 l 1,53,-1
EndSplineSet
Ligature2: "'liga' Standard Ligatures in Latin lookup 10 subtable" f f
EndChar

StartChar: fi
Encoding: 64257 64257 563
Width: 1436
GlyphClass: 1
Flags: MW
LayerCount: 2
Fore
SplineSet
553 141 m 1,0,-1
 691 98 l 1,1,-1
 691 0 l 1,2,-1
 100 0 l 1,3,-1
 100 98 l 1,4,-1
 236 141 l 1,5,-1
 236 840 l 1,6,-1
 39 926 l 1,7,-1
 39 999 l 1,8,-1
 236 1090 l 1,9,10
 238 1215 238 1215 274 1306 c 0,11,12
 311 1404 311 1404 383.5 1466.5 c 128,-1,13
 456 1529 456 1529 562 1560 c 128,-1,14
 668 1591 668 1591 806 1591 c 0,15,16
 950 1591 950 1591 1033.5 1568 c 128,-1,17
 1117 1545 1117 1545 1152.5 1502.5 c 128,-1,18
 1188 1460 1188 1460 1188 1401 c 0,19,20
 1188 1359 1188 1359 1168.5 1322 c 128,-1,21
 1149 1285 1149 1285 1112.5 1263.5 c 128,-1,22
 1076 1242 1076 1242 1029 1242 c 0,23,24
 1005 1242 1005 1242 982.5 1268.5 c 128,-1,25
 960 1295 960 1295 931 1328.5 c 128,-1,26
 902 1362 902 1362 861 1388.5 c 128,-1,27
 820 1415 820 1415 760 1415 c 0,28,29
 694 1415 694 1415 647 1393.5 c 128,-1,30
 600 1372 600 1372 576.5 1326 c 128,-1,31
 553 1280 553 1280 553 1205 c 2,32,-1
 553 1071 l 1,33,-1
 941 1071 l 1,34,-1
 1181 1085 l 1,35,-1
 1266 1085 l 1,36,-1
 1248 799 l 1,37,-1
 1248 141 l 1,38,-1
 1381 98 l 1,39,-1
 1381 0 l 1,40,-1
 795 0 l 1,41,-1
 795 98 l 1,42,-1
 932 141 l 1,43,-1
 932 907 l 1,44,-1
 925 869 l 1,45,-1
 553 869 l 1,46,-1
 553 141 l 1,0,-1
EndSplineSet
Ligature2: "'liga' Standard Ligatures in Latin lookup 10 subtable" f i
EndChar

StartChar: fl
Encoding: 64258 64258 564
Width: 1437
GlyphClass: 1
Flags: MW
LayerCount: 2
Fore
SplineSet
821 1071 m 1,0,-1
 788 868.900390625 l 1,1,-1
 553 869 l 1,2,-1
 553 141 l 1,3,-1
 691 98 l 1,4,-1
 691 0 l 1,5,-1
 100 0 l 1,6,-1
 100 98 l 1,7,-1
 236 141 l 1,8,-1
 232 868.900390625 l 1,9,-1
 0 941 l 1,10,-1
 38 1070.90039062 l 1,11,-1
 234 1070.90039062 l 1,12,13
 236 1204 236 1204 274 1304 c 0,14,15
 311 1401 311 1401 382.5 1463.5 c 128,-1,16
 454 1526 454 1526 558 1557 c 128,-1,17
 662 1588 662 1588 796 1588 c 0,18,19
 896 1588 896 1588 970 1575 c 0,20,21
 1027 1565 1027 1565 1076 1547 c 1,22,-1
 1203 1591 l 1,23,-1
 1272 1591 l 1,24,-1
 1251 1328 l 1,25,-1
 1251 141 l 1,26,-1
 1384 98 l 1,27,-1
 1384 0 l 1,28,-1
 798 0 l 1,29,-1
 798 98 l 1,30,-1
 935 141 l 1,31,-1
 935 1339 l 1,32,33
 907 1371 907 1371 863.5 1392 c 128,-1,34
 820 1413 820 1413 763 1413 c 0,35,36
 695 1413 695 1413 647.5 1391 c 128,-1,37
 600 1369 600 1369 576.5 1323 c 128,-1,38
 553 1277 553 1277 553 1202 c 2,39,-1
 553 1071 l 1,40,-1
 821 1071 l 1,0,-1
EndSplineSet
LCarets2: 1 0
Ligature2: "'liga' Standard Ligatures in Latin lookup 10 subtable" f l
EndChar

StartChar: f_f_i
Encoding: 64259 64259 565
Width: 2131
GlyphClass: 1
Flags: MW
LayerCount: 2
Fore
SplineSet
1248 141 m 1,0,-1
 1387 98 l 1,1,-1
 1387 0 l 1,2,-1
 795 0 l 1,3,-1
 795 98 l 1,4,-1
 932 141 l 1,5,-1
 932 869 l 1,6,-1
 553 869 l 1,7,-1
 553 143 l 1,8,-1
 691 98 l 1,9,-1
 691 0 l 1,10,-1
 100 0 l 1,11,-1
 100 98 l 1,12,-1
 236 141 l 1,13,-1
 236 840 l 1,14,-1
 39 926 l 1,15,-1
 39 999 l 1,16,-1
 237 1090 l 1,17,18
 240 1196 240 1196 272 1276 c 0,19,20
 308 1368 308 1368 378 1428.5 c 128,-1,21
 448 1489 448 1489 551.5 1519.5 c 128,-1,22
 655 1550 655 1550 788 1550 c 0,23,24
 878 1550 878 1550 947 1535 c 128,-1,25
 1016 1520 1016 1520 1072 1485 c 0,26,27
 1080 1480 1080 1480 1088 1474 c 1,28,29
 1158 1531 1158 1531 1258 1560 c 0,30,31
 1364 1591 1364 1591 1502 1591 c 0,32,33
 1645 1591 1645 1591 1729.5 1568 c 128,-1,34
 1814 1545 1814 1545 1850 1502.5 c 128,-1,35
 1886 1460 1886 1460 1886 1401 c 0,36,37
 1886 1359 1886 1359 1865.5 1322 c 128,-1,38
 1845 1285 1845 1285 1808.5 1263.5 c 128,-1,39
 1772 1242 1772 1242 1724 1242 c 0,40,41
 1701 1242 1701 1242 1678.5 1268.5 c 128,-1,42
 1656 1295 1656 1295 1627 1328.5 c 128,-1,43
 1598 1362 1598 1362 1556.5 1388.5 c 128,-1,44
 1515 1415 1515 1415 1456 1415 c 0,45,46
 1390 1415 1390 1415 1343.5 1393.5 c 128,-1,47
 1297 1372 1297 1372 1272.5 1326 c 128,-1,48
 1248 1280 1248 1280 1248 1205 c 2,49,-1
 1248 1071 l 1,50,-1
 1637 1071 l 1,51,-1
 1877 1085 l 1,52,-1
 1962 1085 l 1,53,-1
 1945 799 l 1,54,-1
 1945 141 l 1,55,-1
 2078 98 l 1,56,-1
 2078 0 l 1,57,-1
 1492 0 l 1,58,-1
 1492 98 l 1,59,-1
 1627 141 l 1,60,-1
 1627 869 l 1,61,-1
 1248 869 l 1,62,-1
 1248 141 l 1,0,-1
962 1286 m 1,63,64
 936 1312 936 1312 904 1333 c 0,65,66
 840 1375 840 1375 745 1375 c 0,67,68
 680 1375 680 1375 637 1354 c 128,-1,69
 594 1333 594 1333 573.5 1288 c 128,-1,70
 553 1243 553 1243 553 1172 c 2,71,-1
 553 1071 l 1,72,-1
 932 1071 l 1,73,-1
 932 1074 l 2,74,75
 932 1195 932 1195 962 1286 c 1,63,64
EndSplineSet
Ligature2: "'liga' Standard Ligatures in Latin lookup 10 subtable" f f i
EndChar

StartChar: f_f_l
Encoding: 64260 64260 566
Width: 2132
GlyphClass: 1
Flags: MW
LayerCount: 2
Fore
SplineSet
1520 1071 m 1,0,-1
 1510 869 l 1,1,-1
 1248 869 l 1,2,-1
 1248 141 l 1,3,-1
 1387 98 l 1,4,-1
 1387 0 l 1,5,-1
 795 0 l 1,6,-1
 795 98 l 1,7,-1
 932 141 l 1,8,-1
 932 869 l 1,9,-1
 553 869 l 1,10,-1
 553 143 l 1,11,-1
 691 98 l 1,12,-1
 691 0 l 1,13,-1
 100 0 l 1,14,-1
 100 98 l 1,15,-1
 236 141 l 1,16,-1
 236 840 l 1,17,-1
 39 926 l 1,18,-1
 39 999 l 1,19,-1
 237 1090 l 1,20,21
 240 1196 240 1196 272 1276 c 0,22,23
 308 1368 308 1368 378 1428.5 c 128,-1,24
 448 1489 448 1489 551.5 1519.5 c 128,-1,25
 655 1550 655 1550 788 1550 c 0,26,27
 878 1550 878 1550 947 1535 c 128,-1,28
 1016 1520 1016 1520 1072 1485 c 0,29,30
 1081 1479 1081 1479 1090 1473 c 1,31,32
 1158 1528 1158 1528 1254 1557 c 0,33,34
 1358 1588 1358 1588 1492 1588 c 0,35,36
 1593 1588 1593 1588 1666 1575 c 0,37,38
 1722 1565 1722 1565 1771 1547 c 1,39,-1
 1898 1591 l 1,40,-1
 1967 1591 l 2,41,42
 1968 1591 1968 1591 1948 1328 c 1,43,-1
 1948 141 l 1,44,-1
 2080 98 l 1,45,-1
 2080 0 l 1,46,-1
 1494 0 l 1,47,-1
 1494 98 l 1,48,-1
 1630 141 l 1,49,-1
 1630 1339 l 1,50,51
 1602 1371 1602 1371 1558.5 1392 c 128,-1,52
 1515 1413 1515 1413 1459 1413 c 0,53,54
 1392 1413 1392 1413 1345 1391 c 128,-1,55
 1298 1369 1298 1369 1273 1323 c 128,-1,56
 1248 1277 1248 1277 1248 1202 c 2,57,-1
 1248 1071 l 1,58,-1
 1520 1071 l 1,0,-1
553 1071 m 1,59,-1
 932 1071 l 1,60,-1
 932 1074 l 2,61,62
 932 1195 932 1195 962 1285 c 1,63,64
 936 1312 936 1312 904 1333 c 0,65,66
 840 1375 840 1375 745 1375 c 0,67,68
 680 1375 680 1375 637 1354 c 128,-1,69
 594 1333 594 1333 573.5 1288 c 128,-1,70
 553 1243 553 1243 553 1172 c 2,71,-1
 553 1071 l 1,59,-1
EndSplineSet
Ligature2: "'liga' Standard Ligatures in Latin lookup 10 subtable" f f l
EndChar

StartChar: uni0302_acutecomb
Encoding: 65541 -1 569
Width: 0
GlyphClass: 1
Flags: MW
LayerCount: 2
Fore
SplineSet
291 1304 m 1,0,-1
 397 1572 l 1,1,-1
 685 1572 l 1,2,-1
 685 1525 l 1,3,-1
 434 1304 l 1,4,-1
 291 1304 l 1,0,-1
0 1263 m 1,5,-1
 -169 1106 l 2,6,7
 -170 1106 -170 1106 -352 1106 c 1,8,-1
 -117 1433 l 1,9,-1
 117 1433 l 2,10,11
 118 1433 118 1433 352 1106 c 1,12,-1
 169 1106 l 1,13,-1
 0 1263 l 1,5,-1
EndSplineSet
EndChar

StartChar: uni0302_gravecomb
Encoding: 65542 -1 570
Width: 0
GlyphClass: 1
Flags: MW
LayerCount: 2
Fore
SplineSet
-291 1304 m 1,0,-1
 -434 1304 l 1,1,-1
 -685 1525 l 1,2,-1
 -685 1572 l 1,3,-1
 -397 1572 l 1,4,-1
 -291 1304 l 1,0,-1
0 1263 m 1,5,-1
 -169 1106 l 2,6,7
 -170 1106 -170 1106 -352 1106 c 1,8,-1
 -117 1433 l 1,9,-1
 117 1433 l 2,10,11
 118 1433 118 1433 352 1106 c 1,12,-1
 169 1106 l 1,13,-1
 0 1263 l 1,5,-1
EndSplineSet
EndChar

StartChar: uni0302_hookabovecomb
Encoding: 65543 -1 571
Width: 0
GlyphClass: 1
Flags: MW
LayerCount: 2
Fore
SplineSet
293 1374 m 1,0,1
 367 1390 367 1390 389 1409.5 c 128,-1,2
 411 1429 411 1429 411 1459 c 0,3,4
 411 1480 411 1480 396.5 1496.5 c 128,-1,5
 382 1513 382 1513 334 1523.5 c 128,-1,6
 286 1534 286 1534 184 1532 c 1,7,-1
 196 1697 l 1,8,9
 323 1695 323 1695 401.5 1682 c 128,-1,10
 480 1669 480 1669 520 1646 c 128,-1,11
 560 1623 560 1623 575 1590 c 128,-1,12
 590 1557 590 1557 590 1515 c 0,13,14
 590 1462 590 1462 567 1417.5 c 128,-1,15
 544 1373 544 1373 484 1340 c 128,-1,16
 424 1307 424 1307 313 1285 c 1,17,-1
 293 1374 l 1,0,1
0 1263 m 1,18,-1
 -169 1106 l 2,19,20
 -170 1106 -170 1106 -352 1106 c 1,21,-1
 -117 1433 l 1,22,-1
 117 1433 l 2,23,24
 118 1433 118 1433 352 1106 c 1,25,-1
 169 1106 l 1,26,-1
 0 1263 l 1,18,-1
EndSplineSet
EndChar

StartChar: uni0302_tildecomb
Encoding: 65544 -1 572
Width: 0
GlyphClass: 1
Flags: MW
LayerCount: 2
Fore
SplineSet
-180 1361 m 1,0,-1
 -305 1361 l 1,1,2
 -295 1443 -295 1443 -275.5 1488.5 c 128,-1,3
 -256 1534 -256 1534 -220.5 1552 c 128,-1,4
 -185 1570 -185 1570 -126 1570 c 0,5,6
 -93 1570 -93 1570 -60.5 1558.5 c 128,-1,7
 -28 1547 -28 1547 2 1532.5 c 128,-1,8
 32 1518 32 1518 59 1506.5 c 128,-1,9
 86 1495 86 1495 107 1495 c 0,10,11
 140 1495 140 1495 156 1509 c 128,-1,12
 172 1523 172 1523 180 1568 c 1,13,-1
 305 1568 l 1,14,15
 295 1486 295 1486 275.5 1440.5 c 128,-1,16
 256 1395 256 1395 221 1377 c 128,-1,17
 186 1359 186 1359 126 1359 c 0,18,19
 93 1359 93 1359 60.5 1370 c 128,-1,20
 28 1381 28 1381 -2 1396 c 128,-1,21
 -32 1411 -32 1411 -59 1422.5 c 128,-1,22
 -86 1434 -86 1434 -107 1434 c 0,23,24
 -140 1434 -140 1434 -155.5 1420 c 128,-1,25
 -171 1406 -171 1406 -180 1361 c 1,0,-1
0 1188 m 1,26,-1
 -163 1071 l 1,27,-1
 -325 1071 l 1,28,-1
 -131 1308 l 1,29,-1
 131 1308 l 1,30,-1
 325 1071 l 1,31,-1
 163 1071 l 1,32,-1
 0 1188 l 1,26,-1
EndSplineSet
EndChar

StartChar: uni0306_acutecomb
Encoding: 65545 -1 573
Width: 0
GlyphClass: 1
Flags: MW
LayerCount: 2
Fore
SplineSet
0 1203 m 128,-1,1
 84 1203 84 1203 125 1226 c 128,-1,2
 166 1249 166 1249 181 1304 c 1,3,-1
 304 1304 l 1,4,5
 287 1207 287 1207 249 1155.5 c 128,-1,6
 211 1104 211 1104 149.5 1085.5 c 128,-1,7
 88 1067 88 1067 0 1067 c 128,-1,8
 -88 1067 -88 1067 -149.5 1085.5 c 128,-1,9
 -211 1104 -211 1104 -248.5 1155.5 c 128,-1,10
 -286 1207 -286 1207 -304 1304 c 1,11,-1
 -181 1304 l 1,12,13
 -166 1248 -166 1248 -125 1225.5 c 128,-1,0
 -84 1203 -84 1203 0 1203 c 128,-1,1
-50 1284 m 1,14,-1
 57 1568 l 1,15,-1
 292 1568 l 1,16,-1
 292 1534 l 1,17,-1
 55 1284 l 1,18,-1
 -50 1284 l 1,14,-1
EndSplineSet
EndChar

StartChar: uni0306_gravecomb
Encoding: 65546 -1 574
Width: 0
GlyphClass: 1
Flags: MW
LayerCount: 2
Fore
SplineSet
0 1203 m 128,-1,1
 84 1203 84 1203 125 1225.5 c 128,-1,2
 166 1248 166 1248 181 1304 c 1,3,-1
 304 1304 l 1,4,5
 287 1207 287 1207 249 1155.5 c 128,-1,6
 211 1104 211 1104 149.5 1085.5 c 128,-1,7
 88 1067 88 1067 0 1067 c 128,-1,8
 -88 1067 -88 1067 -149.5 1085.5 c 128,-1,9
 -211 1104 -211 1104 -248.5 1155.5 c 128,-1,10
 -286 1207 -286 1207 -304 1304 c 1,11,-1
 -181 1304 l 1,12,13
 -166 1249 -166 1249 -125 1226 c 128,-1,0
 -84 1203 -84 1203 0 1203 c 128,-1,1
50 1284 m 1,14,-1
 -55 1284 l 1,15,-1
 -292 1534 l 1,16,-1
 -292 1568 l 1,17,-1
 -57 1568 l 1,18,-1
 50 1284 l 1,14,-1
EndSplineSet
EndChar

StartChar: uni0306_hookabovecomb
Encoding: 65547 -1 575
Width: 0
GlyphClass: 1
Flags: MW
LayerCount: 2
Fore
SplineSet
0 1203 m 128,-1,1
 84 1203 84 1203 125 1226 c 128,-1,2
 166 1249 166 1249 181 1304 c 1,3,-1
 304 1304 l 1,4,5
 287 1207 287 1207 249 1155.5 c 128,-1,6
 211 1104 211 1104 149.5 1085.5 c 128,-1,7
 88 1067 88 1067 0 1067 c 128,-1,8
 -88 1067 -88 1067 -149.5 1085.5 c 128,-1,9
 -211 1104 -211 1104 -248.5 1155.5 c 128,-1,10
 -286 1207 -286 1207 -304 1304 c 1,11,-1
 -181 1304 l 1,12,13
 -166 1248 -166 1248 -125 1225.5 c 128,-1,0
 -84 1203 -84 1203 0 1203 c 128,-1,1
-39 1282 m 1,14,-1
 -53 1366 l 1,15,16
 25 1379 25 1379 49 1393 c 128,-1,17
 73 1407 73 1407 73 1430 c 0,18,19
 73 1447 73 1447 60.5 1458 c 128,-1,20
 48 1469 48 1469 8 1475 c 128,-1,21
 -32 1481 -32 1481 -116 1482 c 1,22,-1
 -103 1620 l 1,23,24
 13 1617 13 1617 79 1597.5 c 128,-1,25
 145 1578 145 1578 172.5 1544 c 128,-1,26
 200 1510 200 1510 200 1462 c 0,27,28
 200 1411 200 1411 178 1375.5 c 128,-1,29
 156 1340 156 1340 103.5 1317 c 128,-1,30
 51 1294 51 1294 -39 1282 c 1,14,-1
EndSplineSet
EndChar

StartChar: uni0306_tildecomb
Encoding: 65548 -1 576
Width: 0
GlyphClass: 1
Flags: MW
LayerCount: 2
Fore
SplineSet
0 1203 m 128,-1,1
 84 1203 84 1203 125 1226 c 128,-1,2
 166 1249 166 1249 181 1304 c 1,3,-1
 304 1304 l 1,4,5
 287 1207 287 1207 249 1155.5 c 128,-1,6
 211 1104 211 1104 149.5 1085.5 c 128,-1,7
 88 1067 88 1067 0 1067 c 128,-1,8
 -88 1067 -88 1067 -149.5 1085.5 c 128,-1,9
 -211 1104 -211 1104 -248.5 1155.5 c 128,-1,10
 -286 1207 -286 1207 -304 1304 c 1,11,-1
 -181 1304 l 1,12,13
 -166 1248 -166 1248 -125 1225.5 c 128,-1,0
 -84 1203 -84 1203 0 1203 c 128,-1,1
-180 1361 m 1,14,-1
 -305 1361 l 1,15,16
 -295 1443 -295 1443 -275.5 1488.5 c 128,-1,17
 -256 1534 -256 1534 -220.5 1552 c 128,-1,18
 -185 1570 -185 1570 -126 1570 c 0,19,20
 -93 1570 -93 1570 -59.5 1559 c 128,-1,21
 -26 1548 -26 1548 6.5 1533.5 c 128,-1,22
 39 1519 39 1519 66 1508 c 128,-1,23
 93 1497 93 1497 112 1497 c 0,24,25
 141 1497 141 1497 156.5 1511 c 128,-1,26
 172 1525 172 1525 180 1568 c 1,27,-1
 305 1568 l 1,28,29
 295 1486 295 1486 275.5 1440.5 c 128,-1,30
 256 1395 256 1395 221 1377 c 128,-1,31
 186 1359 186 1359 126 1359 c 0,32,33
 93 1359 93 1359 59.5 1370 c 128,-1,34
 26 1381 26 1381 -6.5 1395 c 128,-1,35
 -39 1409 -39 1409 -66 1420.5 c 128,-1,36
 -93 1432 -93 1432 -112 1432 c 0,37,38
 -141 1432 -141 1432 -156 1418 c 128,-1,39
 -171 1404 -171 1404 -180 1361 c 1,14,-1
EndSplineSet
EndChar

StartChar: caroncomb.alt
Encoding: 65549 -1 577
Width: 0
GlyphClass: 1
Flags: MW
LayerCount: 2
Fore
SplineSet
114 1041 m 1,0,-1
 165 1448 l 1,1,-1
 427 1448 l 1,2,-1
 427 1404 l 1,3,-1
 252 1041 l 1,4,-1
 114 1041 l 1,0,-1
EndSplineSet
EndChar

StartChar: gravecomb.case
Encoding: 65550 -1 578
Width: 0
GlyphClass: 1
Flags: MW
LayerCount: 2
Fore
SplineSet
81 1527 m 1,0,-1
 -63 1527 l 1,1,-1
 -378 1779 l 1,2,-1
 -378 1832 l 1,3,-1
 -65 1832 l 1,4,-1
 81 1527 l 1,0,-1
EndSplineSet
EndChar

StartChar: acutecomb.case
Encoding: 65551 -1 579
Width: 0
GlyphClass: 1
Flags: MW
LayerCount: 2
Fore
SplineSet
-81 1527 m 1,0,-1
 65 1832 l 1,1,-1
 378 1832 l 1,2,-1
 378 1779 l 1,3,-1
 63 1527 l 1,4,-1
 -81 1527 l 1,0,-1
EndSplineSet
EndChar

StartChar: uni0302.case
Encoding: 65552 -1 580
Width: 0
GlyphClass: 1
Flags: MW
LayerCount: 2
Fore
SplineSet
0 1671 m 1,0,-1
 -166 1527 l 1,1,-1
 -353 1527 l 1,2,-1
 -119 1832 l 1,3,-1
 119 1832 l 1,4,-1
 353 1527 l 1,5,-1
 166 1527 l 1,6,-1
 0 1671 l 1,0,-1
EndSplineSet
EndChar

StartChar: tildecomb.case
Encoding: 65553 -1 581
Width: 0
GlyphClass: 1
Flags: MW
LayerCount: 2
Fore
SplineSet
328 1827 m 1,0,1
 314 1703 314 1703 289.5 1639 c 128,-1,2
 265 1575 265 1575 226.5 1551.5 c 128,-1,3
 188 1528 188 1528 131 1528 c 0,4,5
 91 1528 91 1528 56.5 1545 c 128,-1,6
 22 1562 22 1562 -8 1584.5 c 128,-1,7
 -38 1607 -38 1607 -65 1624 c 128,-1,8
 -92 1641 -92 1641 -117 1641 c 0,9,10
 -137 1641 -137 1641 -150.5 1633 c 128,-1,11
 -164 1625 -164 1625 -173 1601.5 c 128,-1,12
 -182 1578 -182 1578 -190 1532 c 1,13,-1
 -332 1532 l 1,14,15
 -318 1655 -318 1655 -293.5 1719.5 c 128,-1,16
 -269 1784 -269 1784 -230.5 1807.5 c 128,-1,17
 -192 1831 -192 1831 -135 1831 c 0,18,19
 -95 1831 -95 1831 -61 1813.5 c 128,-1,20
 -27 1796 -27 1796 3.5 1774 c 128,-1,21
 34 1752 34 1752 61 1734.5 c 128,-1,22
 88 1717 88 1717 113 1717 c 0,23,24
 133 1717 133 1717 146.5 1725.5 c 128,-1,25
 160 1734 160 1734 169.5 1758 c 128,-1,26
 179 1782 179 1782 186 1827 c 1,27,-1
 328 1827 l 1,0,1
EndSplineSet
EndChar

StartChar: uni0304.case
Encoding: 65554 -1 582
Width: 0
GlyphClass: 1
Flags: MW
LayerCount: 2
Fore
SplineSet
-305 1604 m 1,0,-1
 -305 1756 l 1,1,-1
 305 1756 l 1,2,-1
 305 1604 l 1,3,-1
 -305 1604 l 1,0,-1
EndSplineSet
EndChar

StartChar: uni0306.case
Encoding: 65555 -1 583
Width: 0
GlyphClass: 1
Flags: MW
LayerCount: 2
Fore
SplineSet
0 1701 m 0,0,1
 84 1701 84 1701 125 1729.5 c 128,-1,2
 166 1758 166 1758 185 1832 c 1,3,-1
 315 1832 l 1,4,5
 298 1712 298 1712 261 1645 c 128,-1,6
 224 1578 224 1578 160.5 1551 c 128,-1,7
 97 1524 97 1524 0 1524 c 128,-1,8
 -97 1524 -97 1524 -160.5 1551 c 128,-1,9
 -224 1578 -224 1578 -260.5 1645 c 128,-1,10
 -297 1712 -297 1712 -315 1832 c 1,11,-1
 -185 1832 l 1,12,13
 -166 1758 -166 1758 -124.5 1729.5 c 128,-1,14
 -83 1701 -83 1701 0 1701 c 0,0,1
EndSplineSet
EndChar

StartChar: uni0307.case
Encoding: 65556 -1 584
Width: 0
GlyphClass: 1
Flags: MW
LayerCount: 2
Fore
SplineSet
0 1541 m 128,-1,1
 -84 1541 -84 1541 -125.5 1577.5 c 128,-1,2
 -167 1614 -167 1614 -167 1681 c 128,-1,3
 -167 1748 -167 1748 -125.5 1783 c 128,-1,4
 -84 1818 -84 1818 0 1818 c 128,-1,5
 84 1818 84 1818 125.5 1783 c 128,-1,6
 167 1748 167 1748 167 1681 c 128,-1,7
 167 1614 167 1614 125.5 1577.5 c 128,-1,0
 84 1541 84 1541 0 1541 c 128,-1,1
EndSplineSet
EndChar

StartChar: uni0308.case
Encoding: 65557 -1 585
Width: 0
GlyphClass: 1
Flags: MW
LayerCount: 2
Fore
SplineSet
221 1548 m 0,0,1
 151 1548 151 1548 116 1583 c 128,-1,2
 81 1618 81 1618 81 1681 c 128,-1,3
 81 1744 81 1744 116 1777 c 128,-1,4
 151 1810 151 1810 221 1810 c 0,5,6
 290 1810 290 1810 325.5 1777 c 128,-1,7
 361 1744 361 1744 361 1681 c 128,-1,8
 361 1618 361 1618 325.5 1583 c 128,-1,9
 290 1548 290 1548 221 1548 c 0,0,1
-220 1548 m 128,-1,11
 -290 1548 -290 1548 -325.5 1583 c 128,-1,12
 -361 1618 -361 1618 -361 1681 c 128,-1,13
 -361 1744 -361 1744 -326 1777 c 128,-1,14
 -291 1810 -291 1810 -220 1810 c 0,15,16
 -150 1810 -150 1810 -115.5 1777 c 128,-1,17
 -81 1744 -81 1744 -81 1681 c 128,-1,18
 -81 1618 -81 1618 -115.5 1583 c 128,-1,10
 -150 1548 -150 1548 -220 1548 c 128,-1,11
EndSplineSet
EndChar

StartChar: hookabovecomb.case
Encoding: 65558 -1 586
Width: 0
GlyphClass: 1
Flags: MW
LayerCount: 2
Fore
SplineSet
-190 1726 m 1,0,-1
 -180 1890 l 1,1,2
 -50 1890 -50 1890 30.5 1878.5 c 128,-1,3
 111 1867 111 1867 153.5 1845 c 128,-1,4
 196 1823 196 1823 211 1792 c 128,-1,5
 226 1761 226 1761 226 1719 c 0,6,7
 226 1669 226 1669 200.5 1628 c 128,-1,8
 175 1587 175 1587 109 1556.5 c 128,-1,9
 43 1526 43 1526 -78 1506 c 1,10,-1
 -95 1592 l 1,11,12
 -33 1603 -33 1603 -3 1614 c 128,-1,13
 27 1625 27 1625 36.5 1638.5 c 128,-1,14
 46 1652 46 1652 46 1669 c 0,15,16
 46 1689 46 1689 30.5 1702 c 128,-1,17
 15 1715 15 1715 -35.5 1721.5 c 128,-1,18
 -86 1728 -86 1728 -190 1726 c 1,0,-1
EndSplineSet
EndChar

StartChar: uni030A.case
Encoding: 65559 -1 587
Width: 0
GlyphClass: 1
Flags: MW
LayerCount: 2
Fore
SplineSet
-2 1571 m 128,-1,1
 46 1571 46 1571 74.5 1602 c 128,-1,2
 103 1633 103 1633 103 1683 c 0,3,4
 103 1735 103 1735 74.5 1766.5 c 128,-1,5
 46 1798 46 1798 -2 1798 c 128,-1,6
 -50 1798 -50 1798 -78.5 1766.5 c 128,-1,7
 -107 1735 -107 1735 -107 1683 c 0,8,9
 -107 1633 -107 1633 -78.5 1602 c 128,-1,0
 -50 1571 -50 1571 -2 1571 c 128,-1,1
-3 1868 m 0,10,11
 78 1868 78 1868 127.5 1817 c 128,-1,12
 177 1766 177 1766 177 1683 c 0,13,14
 177 1601 177 1601 127.5 1549.5 c 128,-1,15
 78 1498 78 1498 -3 1498 c 0,16,17
 -82 1498 -82 1498 -131.5 1549.5 c 128,-1,18
 -181 1601 -181 1601 -181 1683 c 0,19,20
 -181 1766 -181 1766 -131.5 1817 c 128,-1,21
 -82 1868 -82 1868 -3 1868 c 0,10,11
EndSplineSet
EndChar

StartChar: uni030B.case
Encoding: 65560 -1 588
Width: 0
GlyphClass: 1
Flags: MW
LayerCount: 2
Fore
SplineSet
-244 1527 m 1,0,-1
 -189 1832 l 1,1,-1
 85 1832 l 1,2,-1
 85 1787 l 1,3,-1
 -114 1527 l 1,4,-1
 -244 1527 l 1,0,-1
71 1527 m 1,5,-1
 228 1832 l 1,6,-1
 523 1832 l 1,7,-1
 523 1779 l 1,8,-1
 209 1527 l 1,9,-1
 71 1527 l 1,5,-1
EndSplineSet
EndChar

